<svg width="1440" height="1024" viewBox="0 0 1440 1024" fill="none" xmlns="http://www.w3.org/2000/svg">
<g clip-path="url(#clip0_17_16)">
<rect width="1440" height="1024" fill="#66D076"/>
<rect opacity="0.56" x="1364.4" y="154.234" width="50.3869" height="50.3869" transform="rotate(-104.245 1364.4 154.234)" fill="#D9D9D9"/>
<rect opacity="0.56" x="1392.54" y="160.895" width="35.0407" height="35.0407" transform="rotate(-104.245 1392.54 160.895)" fill="#D9D9D9"/>
<path d="M298.936 790.974C286.153 787.477 273.429 783.045 260.782 777.681C220.051 760.411 179.743 733.352 140.983 697.263C104.171 662.986 70.949 624.187 38.8226 586.664C5.7815 548.074 -28.3834 508.169 -66.4739 473.171C-163.484 384.033 -271.438 370.628 -373.644 369.416L-373.64 369.088C-307.287 369.873 -255.014 376.753 -209.133 390.744C-155.312 407.155 -108.572 434.038 -66.2499 472.926C-28.1456 507.937 6.02749 547.851 39.0743 586.445C71.1957 623.961 104.409 662.754 141.21 697.019C225.005 775.042 312.828 809.214 402.242 798.586C481.812 789.129 551.92 747.74 619.719 707.716C629.244 702.091 639.092 696.278 648.747 690.686C696.148 663.236 735.835 644.975 773.65 633.218C820.013 618.8 864.493 613.916 909.63 618.281C955.791 622.748 1003.71 634.966 1056.12 655.634C1105.44 675.085 1152.93 699.787 1192.88 721.384C1277.34 767.047 1361.74 816.147 1443.36 863.629C1464.83 876.116 1487.02 889.032 1508.88 901.682C1556.66 929.341 1613.33 961.955 1671.32 994.116C1675.93 996.676 1686.67 1001.78 1700.26 1008.23C1745.81 1029.87 1822.03 1066.09 1821.22 1078.82L1820.89 1078.8C1821.24 1073.4 1806.69 1062.7 1777.65 1047C1752.94 1033.63 1722.41 1019.12 1700.11 1008.53C1686.52 1002.07 1675.78 996.964 1671.16 994.402C1613.17 962.238 1556.5 929.624 1508.71 901.964C1486.86 889.311 1464.66 876.398 1443.19 863.911C1361.57 816.429 1277.18 767.332 1192.72 721.671C1131.88 688.777 1063.29 653.796 989.776 633.676C963.626 626.519 936.869 621.242 909.594 618.603C807.11 608.689 720.303 649.62 648.906 690.965C639.25 696.556 629.403 702.37 619.877 707.994C552.05 748.039 481.912 789.445 402.273 798.909C367.779 803.007 333.16 800.335 298.934 790.967L298.936 790.974Z" fill="white"/>
<path d="M290.255 774.136C278.879 771.023 267.542 767.249 256.258 762.815C214.781 746.518 174.042 721.37 135.168 688.071C132.035 685.387 128.803 682.572 125.562 679.709C89.4182 647.761 56.1344 611.495 23.9431 576.415C-7.90357 541.714 -40.833 505.828 -77.143 473.31C-128.114 427.469 -182.375 401.455 -236.122 386.74C-287.244 372.747 -337.895 368.975 -384.867 368.074L-384.86 367.702C-319.039 368.962 -266.746 376.314 -220.292 390.833C-166.664 407.593 -119.761 434.48 -76.8943 473.031C-40.5705 505.561 -7.63544 541.452 24.2162 576.161C56.4001 611.229 89.6775 647.494 125.807 679.428C129.048 682.292 132.28 685.106 135.411 687.787C218.147 758.662 308.871 791.741 397.777 783.45C474.732 776.272 542.258 738.544 607.56 702.056C617.422 696.546 627.624 690.846 637.627 685.384C640.281 683.936 642.917 682.51 645.468 681.146C690.024 657.268 727.473 641.542 763.322 631.649C807.155 619.556 849.121 616.108 891.62 621.111C928.234 625.424 966.825 634.803 1009.59 649.792C1049.22 663.678 1087.15 680.451 1122.24 696.505C1138.14 703.786 1154.78 711.631 1176.18 721.942C1225.29 745.636 1275.36 770.536 1329.27 798.069C1378.89 823.411 1432.62 852.438 1493.52 886.81C1556.19 922.244 1608.1 951.843 1656.87 979.965C1662.13 983.004 1673.75 988.711 1688.45 995.934C1710.31 1006.68 1740.25 1021.39 1764.07 1034.72C1792.4 1050.57 1806.27 1061.13 1806.49 1067.01L1806.12 1067.02C1805.64 1053.94 1732.17 1017.84 1688.28 996.266C1673.57 989.038 1661.95 983.33 1656.68 980.285C1607.91 952.164 1556.01 922.561 1493.34 887.132C1432.44 852.761 1378.72 823.737 1329.1 798.396C1275.19 770.864 1225.12 745.964 1176.02 722.272C1154.62 711.959 1137.98 704.117 1122.09 696.837C1053.43 665.421 973.339 631.101 891.574 621.474C794.778 610.075 712.935 645.407 645.641 681.468C643.094 682.83 640.458 684.255 637.804 685.704C627.801 691.162 617.603 696.862 607.74 702.373C542.403 738.88 474.842 776.63 397.812 783.814C361.989 787.156 325.942 783.9 290.253 774.132L290.255 774.136Z" fill="white"/>
<path d="M280.52 757.112C218.085 740.023 166.48 707.983 129.361 678.874C126.232 676.42 122.947 673.812 119.6 671.119C79.6605 638.997 44.4765 603.187 7.22481 565.271C-22.8403 534.672 -53.9289 503.027 -87.8114 473.443C-168.733 402.22 -260.928 370.304 -396.091 366.728L-396.081 366.314C-330.8 368.042 -278.486 375.863 -231.448 390.919C-178.036 408.02 -130.965 434.911 -87.5386 473.132C-53.6456 502.728 -22.5506 534.375 7.51945 564.981C44.7605 602.885 79.9356 638.69 119.858 670.798C123.202 673.489 126.487 676.097 129.614 678.548C187.188 723.698 279.675 775.921 393.319 768.306C467.706 763.322 532.736 729.171 595.625 696.145C605.758 690.823 616.235 685.321 626.512 680.073C629.062 678.773 631.625 677.475 634.13 676.222C677.741 654.325 714.17 640.079 748.771 631.386C791.576 620.63 832.413 618.194 873.611 623.937C947.606 634.249 1019.51 664.119 1089.05 693.007C1094.47 695.259 1099.86 697.499 1105.24 699.722C1123.34 707.218 1140.51 714.469 1159.49 722.493C1221.9 748.986 1267.54 768.776 1312.1 788.682C1364.1 811.903 1419.97 839.915 1478.16 871.934C1540.17 906.167 1593.89 936.874 1642.41 965.813C1648.31 969.331 1660.6 975.572 1676.16 983.473C1721.5 1006.49 1790.01 1041.29 1791.76 1055.18L1791.35 1055.24C1790.6 1049.31 1776.63 1038.44 1749.82 1022.96C1726.76 1009.63 1698.6 995.334 1675.97 983.841C1660.4 975.935 1648.11 969.693 1642.2 966.165C1593.69 937.23 1539.96 906.524 1477.96 872.295C1419.78 840.278 1363.92 812.272 1311.93 789.057C1267.37 769.156 1221.73 749.362 1159.32 722.873C1140.35 714.85 1123.18 707.598 1105.08 700.103C1099.7 697.88 1094.31 695.636 1088.89 693.388C1019.37 664.508 947.494 634.651 873.551 624.347C780.314 611.353 700.292 643.469 634.311 676.596C631.805 677.849 629.247 679.144 626.697 680.445C616.423 685.69 605.947 691.193 595.814 696.514C532.887 729.559 467.815 763.731 393.343 768.722C352.846 771.434 315.021 766.556 280.513 757.113L280.52 757.112Z" fill="white"/>
<path d="M268.86 739.619C261.598 737.63 254.356 735.438 247.13 733.04C203.964 718.708 162.384 697.392 123.551 669.68C120.413 667.442 117.174 665.104 113.638 662.533C68.5898 629.753 28.8449 591.913 -13.2351 551.855C-40.3544 526.038 -68.3972 499.341 -98.4764 473.58C-181.782 402.235 -274.143 369.877 -407.31 365.383L-407.294 364.926C-342.705 367.106 -290.399 375.424 -242.683 391.105C-189.622 408.539 -142.354 435.405 -98.179 473.234C-68.0917 499.003 -40.0424 525.702 -12.9175 551.524C29.1511 591.572 68.8885 629.401 113.91 662.164C117.443 664.734 120.685 667.073 123.82 669.31C181.003 710.116 273.406 757.787 388.865 753.166C460.731 750.29 523.343 719.65 583.896 690.018C594.231 684.961 604.919 679.729 615.403 674.767C617.899 673.585 620.385 672.421 622.799 671.302C665.461 651.413 700.869 638.655 734.228 631.149C776.003 621.753 815.705 620.316 855.605 626.764C917.561 636.775 979.115 660.748 1038.65 683.935C1054.98 690.296 1071.87 696.876 1088.24 702.942C1104.45 708.966 1123.62 716.065 1142.79 723.051C1154.73 727.426 1166.7 731.791 1178.27 736.015C1218 750.511 1255.53 764.203 1294.93 779.298C1348.11 799.67 1404.59 825.836 1462.8 857.066C1524.18 890.145 1578.2 921.088 1627.96 951.665C1634.47 955.662 1647.91 962.714 1663.48 970.875C1707.5 993.962 1774.04 1028.85 1777.02 1043.37L1776.58 1043.46C1773.63 1029.16 1707.21 994.33 1663.26 971.28C1647.69 963.114 1634.24 956.061 1627.72 952.054C1577.96 921.484 1523.95 890.544 1462.58 857.469C1404.39 826.25 1347.93 800.095 1294.76 779.727C1255.36 764.633 1217.84 750.941 1178.11 736.445C1166.53 732.225 1154.57 727.857 1142.63 723.481C1123.45 716.495 1104.29 709.397 1088.08 703.373C1071.71 697.307 1054.81 690.728 1038.48 684.364C978.969 661.186 917.436 637.221 855.529 627.217C765.818 612.724 687.635 641.581 622.986 671.721C620.572 672.841 618.087 674.005 615.594 675.187C605.112 680.15 594.428 685.379 584.093 690.436C523.499 720.089 460.845 750.75 388.881 753.63C348.933 755.23 308.657 750.524 268.858 739.629L268.86 739.619Z" fill="white"/>
<path d="M254.88 721.689C250.753 720.559 246.638 719.377 242.527 718.136C198.365 704.794 156.385 685.399 117.745 660.49C114.629 658.483 111.339 656.341 107.68 653.951C56.6475 620.58 11.558 580.235 -36.1792 537.525C-59.5161 516.642 -83.6472 495.051 -109.146 473.72C-194.583 402.233 -287.112 369.433 -418.534 364.041L-418.515 363.541C-387.476 364.813 -359.523 367.536 -333.052 371.86C-304.744 376.483 -278.84 382.818 -253.858 391.22C-201.094 408.967 -153.657 435.828 -108.827 473.338C-83.3233 494.677 -59.1897 516.272 -35.8496 537.156C11.8731 579.856 56.9455 620.187 107.949 653.538C111.608 655.928 114.899 658.066 118.011 660.076C197.728 711.472 292.332 739.159 384.402 738.031C453.785 737.18 514.048 709.992 572.331 683.696C582.814 678.966 593.652 674.077 604.286 669.465C606.701 668.417 609.114 667.381 611.462 666.388C653.748 648.287 687.126 637.355 719.684 630.942C760.424 622.919 798.994 622.479 837.597 629.597C890.523 639.358 943.986 659.474 995.687 678.925C1020.61 688.302 1046.38 697.997 1071.23 706.162C1089.86 712.301 1108.31 718.168 1126.08 723.603C1146.51 729.906 1166.72 735.97 1186.26 741.834C1215.98 750.75 1246.7 759.968 1277.75 769.909C1331.63 787.164 1388.73 811.481 1447.44 842.19C1507.34 873.701 1563.21 905.771 1613.51 937.511C1620.6 941.984 1634.43 949.471 1650.45 958.142C1695.88 982.724 1758.08 1016.39 1762.29 1031.54L1761.81 1031.68C1757.66 1016.73 1693 981.734 1650.22 958.579C1634.19 949.906 1620.35 942.414 1613.24 937.931C1562.95 906.197 1507.09 874.133 1447.21 842.628C1388.52 811.936 1331.46 787.628 1277.6 770.383C1246.55 760.442 1215.83 751.222 1186.12 742.309C1166.58 736.446 1146.37 730.382 1125.94 724.078C1108.17 718.642 1089.71 712.774 1071.08 706.635C1046.22 698.468 1020.44 688.768 995.514 679.39C943.832 659.944 890.393 639.839 837.51 630.085C751.534 614.228 678.152 638.381 611.662 666.844C609.316 667.837 606.904 668.873 604.488 669.922C593.858 674.531 583.022 679.423 572.541 684.151C514.212 710.467 453.901 737.678 384.414 738.528C341.147 739.056 297.633 733.398 254.878 721.696L254.88 721.689Z" fill="white"/>
<path d="M237.146 703C192.609 690.808 150.182 673.391 111.944 651.298C108.959 649.573 105.714 647.69 101.728 645.367C43.2878 611.31 -8.45367 567.524 -63.2333 521.166C-81.4378 505.761 -100.263 489.83 -119.808 473.854C-206.297 403.151 -301.887 368.867 -429.754 362.693L-429.728 362.15C-367.167 365.171 -313.293 374.713 -265.025 391.327C-212.591 409.373 -164.978 436.229 -119.467 473.434C-99.9193 489.414 -81.0941 505.344 -62.8872 520.753C-8.12702 567.094 43.5975 610.866 101.998 644.9C105.985 647.224 109.23 649.106 112.215 650.831C189.964 695.748 285.049 721.337 379.956 722.886C446.888 723.978 504.867 700.189 560.935 677.184C571.51 672.844 582.449 668.356 593.182 664.153C595.453 663.264 597.728 662.389 599.999 661.513L600.136 661.46C665.548 636.274 737.408 615.324 819.596 632.418C865.451 641.956 912.35 659.365 957.702 676.2C989.565 688.028 1022.51 700.257 1054.23 709.373C1072.7 714.701 1090.74 719.535 1109.38 724.146C1133.09 730.089 1156.35 735.515 1178.84 740.764C1205.34 746.944 1232.73 753.335 1260.57 760.514C1314.96 774.542 1372.66 797.014 1432.08 827.304C1491.41 857.76 1547.58 890.074 1599.06 923.347C1606.7 928.288 1620.8 936.16 1637.13 945.274C1681.45 970.011 1742.14 1003.89 1747.56 1019.71L1747.05 1019.89C1741.69 1004.27 1681.11 970.446 1636.87 945.749C1620.53 936.63 1606.42 928.753 1598.77 923.805C1547.3 890.542 1491.14 858.238 1431.84 827.79C1372.45 797.514 1314.79 775.051 1260.44 761.039C1232.61 753.858 1205.21 747.47 1178.72 741.291C1156.22 736.045 1132.96 730.618 1109.25 724.675C1090.6 720.058 1072.56 715.223 1054.09 709.894C1022.34 700.774 989.388 688.54 957.515 676.709C912.182 659.882 865.304 642.481 819.489 632.949C737.435 615.882 665.668 636.809 600.334 661.965L600.197 662.018C597.926 662.894 595.651 663.77 593.383 664.66C582.654 668.86 571.719 673.346 561.143 677.685C505.023 700.713 446.996 724.524 379.95 723.43C331.627 722.639 283.258 715.624 237.149 703.004L237.146 703Z" fill="white"/>
<path d="M214.385 683.416C175.025 672.644 138.693 658.783 106.142 642.109C102.665 640.329 99.2102 638.553 95.7706 636.785C64.8918 620.912 34.2034 601.643 -0.80414 576.148C-32.0336 553.402 -62.8601 528.501 -95.4939 502.139C-106.833 492.978 -118.556 483.509 -130.473 473.991C-219.248 403.084 -315.009 368.341 -440.977 361.347L-440.945 360.762C-378.948 364.206 -325.058 374.24 -276.192 391.434C-224.12 409.757 -176.335 436.613 -130.111 473.536C-118.194 483.056 -106.468 492.526 -95.1279 501.683C-28.7884 555.271 28.5051 601.551 96.0404 636.265C99.48 638.033 102.935 639.808 106.409 641.588C180.838 679.716 276.407 703.209 375.502 707.743C440.016 710.693 495.761 690.262 549.67 670.503C560.3 666.607 571.288 662.58 582.074 658.84C583.944 658.193 585.815 657.552 587.686 656.915L588.806 656.533C616.158 647.2 652.449 635.823 690.642 630.639C729.339 625.384 765.63 626.889 801.586 635.244C841.691 644.564 883.094 659.959 923.139 674.85C960.786 688.848 999.713 703.323 1037.22 712.59C1055.6 717.154 1073.73 721.115 1092.67 724.7C1117.89 729.568 1142.48 733.632 1166.25 737.56C1191.22 741.685 1217.03 745.953 1243.39 751.126C1298.17 761.874 1356.48 782.5 1416.72 812.429C1475.53 841.891 1532.01 874.447 1584.6 909.194C1592.76 914.591 1607.01 922.791 1623.51 932.288C1666.84 957.228 1726.18 991.382 1732.82 1007.89L1732.27 1008.11C1725.72 991.788 1666.48 957.69 1623.22 932.794C1606.71 923.292 1592.46 915.086 1584.28 909.682C1531.71 874.946 1475.24 842.402 1416.46 812.952C1356.27 783.047 1298.01 762.436 1243.27 751.699C1216.92 746.528 1191.11 742.261 1166.16 738.138C1142.38 734.208 1117.79 730.141 1092.55 725.274C1073.61 721.687 1055.46 717.723 1037.08 713.156C999.539 703.882 960.592 689.403 922.93 675.398C882.904 660.514 841.516 645.123 801.45 635.816C722.963 617.578 652.953 635.265 588.988 657.09L587.869 657.471C585.998 658.108 584.127 658.746 582.26 659.394C571.482 663.132 560.494 667.159 549.868 671.053C495.903 690.833 440.103 711.285 375.47 708.328C326.621 706.092 278.771 699.35 233.24 688.288C226.88 686.743 220.589 685.117 214.378 683.418L214.385 683.416Z" fill="white"/>
<path d="M185.254 662.82C154.183 654.314 125.751 644.306 100.348 632.915L99.1577 632.382C96.0315 630.981 92.9206 629.587 89.8249 628.199C11.0025 592.91 -56.3317 540.338 -134.298 479.463L-141.138 474.125C-232.3 402.974 -328.234 367.778 -452.199 359.998L-452.161 359.371C-328.062 367.158 -232.021 402.399 -140.753 473.631L-133.914 478.968C-55.9807 539.815 11.3244 592.367 90.08 627.625C93.1757 629.012 96.2867 630.406 99.413 631.807L100.604 632.341C170.336 663.607 263.856 684.441 371.055 692.598C433.178 697.322 486.733 680.214 538.525 663.668C549.169 660.269 560.174 656.751 570.973 653.526C572.555 653.051 574.14 652.588 575.724 652.121L577.483 651.606C605.903 643.239 639.848 634.191 676.12 630.501C713.78 626.668 748.934 629.146 783.588 638.067C818.858 647.151 855.54 660.967 891.015 674.327C933.615 690.374 977.666 706.967 1020.22 715.8C1038.63 719.65 1056.87 722.738 1075.96 725.246C1101.96 728.762 1127.14 731.19 1151.48 733.537C1175.63 735.865 1200.59 738.271 1226.2 741.733C1281.33 749.178 1340.26 767.958 1401.36 797.551C1459.71 826.068 1516.5 858.868 1570.15 895.04C1578.8 900.869 1593.09 909.349 1609.64 919.163C1652.09 944.348 1710.23 978.838 1718.08 996.063L1717.51 996.323C1709.75 979.279 1651.7 944.848 1609.32 919.706C1592.76 909.884 1578.46 901.402 1569.8 895.562C1516.18 859.406 1459.41 826.621 1401.09 798.118C1340.05 768.556 1281.18 749.796 1226.12 742.36C1200.52 738.904 1175.56 736.496 1151.42 734.17C1127.07 731.821 1101.89 729.392 1075.88 725.876C1056.77 723.366 1038.52 720.277 1020.09 716.423C977.49 707.579 933.417 690.978 890.791 674.925C855.333 661.569 818.67 647.754 783.431 638.683C704.777 618.433 635.976 635.05 577.66 652.215L575.9 652.733C574.318 653.197 572.735 653.664 571.154 654.136C560.362 657.359 549.358 660.874 538.717 664.273C486.867 680.837 433.253 697.968 371.008 693.233C320.129 689.365 272.208 682.671 228.577 673.343C213.63 670.147 199.178 666.637 185.252 662.826L185.254 662.82Z" fill="white"/>
<path d="M149.792 641.702C129.796 636.227 111.466 630.26 94.5502 623.727C90.966 622.343 87.4115 620.976 83.8748 619.619C45.2226 604.79 7.7355 585.401 -34.1014 558.604C-70.9669 534.989 -107.815 507.81 -151.803 474.262C-245.459 402.833 -341.567 367.177 -463.422 358.653L-463.374 357.984C-419.592 361.048 -379.114 367.613 -340.894 378.075C-272.62 396.765 -211.51 427.883 -151.397 473.732C-72.1387 534.181 0.287854 586.832 84.1145 618.994C87.6512 620.35 91.2081 621.722 94.7924 623.106C174.357 653.831 276.844 667.826 366.606 677.463C426.359 683.878 477.767 670.06 527.479 656.697C538.104 653.839 549.094 650.886 559.874 648.222C561.229 647.884 562.589 647.558 563.946 647.227L566.161 646.688C593.981 639.897 627.075 632.651 661.593 630.398C698.218 628.013 732.237 631.443 765.588 640.901C796.677 649.714 829.192 662.225 860.633 674.324C907.585 692.391 956.134 711.07 1003.2 719.021C1021.28 722.104 1039.61 724.32 1059.25 725.803C1085.38 727.776 1110.54 728.461 1134.88 729.126C1158.79 729.777 1183.52 730.451 1209.02 732.349C1264.45 736.479 1323.99 753.411 1386 782.675C1443.14 809.905 1501.82 843.865 1555.7 880.889C1564.78 887.126 1579 895.819 1595.47 905.888C1639.49 932.787 1694.26 966.266 1703.34 984.241L1702.74 984.542C1693.75 966.738 1636.74 931.897 1595.12 906.457C1578.64 896.386 1564.41 887.688 1555.31 881.44C1501.46 844.437 1442.81 810.494 1385.71 783.281C1323.77 754.051 1264.31 737.141 1208.96 733.016C1183.48 731.118 1158.76 730.446 1134.85 729.793C1110.51 729.13 1085.34 728.443 1059.19 726.47C1039.53 724.985 1021.18 722.765 1003.09 719.681C955.949 711.718 907.367 693.024 860.387 674.948C828.958 662.855 796.458 650.35 765.398 641.544C764.544 641.303 763.687 641.064 762.835 640.83C688.993 620.618 622.726 633.562 566.313 647.335L564.095 647.873C562.738 648.204 561.381 648.531 560.026 648.869C549.253 651.535 538.267 654.485 527.646 657.34C477.872 670.72 426.404 684.554 366.527 678.124C307.536 671.791 263.538 665.697 223.875 658.372C196.839 653.378 172.259 647.853 149.786 641.7L149.792 641.702Z" fill="white"/>
<path d="M112.629 621.657C104.471 619.424 96.5048 617.056 88.7583 614.537C85.1186 613.352 81.5111 612.188 77.9318 611.034C38.2132 598.26 -1.19287 580.237 -42.5389 555.94C-76.9319 535.728 -113.916 510.58 -162.466 474.4C-225.133 427.694 -287.823 396.081 -356.933 377.165C-393.994 367.02 -432.887 360.526 -474.645 357.304L-474.59 356.593C-414.269 361.247 -360.321 372.741 -309.666 391.731C-258.94 410.747 -210.65 437.6 -162.043 473.827C-75.6648 538.203 -5.35239 583.497 78.1466 610.356C81.7299 611.508 85.3366 612.675 88.977 613.857C153.013 634.687 232.201 645.094 308.783 655.156C326.315 657.46 344.445 659.842 362.156 662.317C419.556 670.337 468.841 659.783 516.506 649.578C527.094 647.311 538.04 644.967 548.777 642.905C549.966 642.674 551.158 642.451 552.349 642.227C553.179 642.069 554.011 641.916 554.845 641.755C583.466 636.307 614.45 631.151 647.067 630.306C682.652 629.383 715.534 633.772 747.589 643.723C774.965 652.223 802.434 663.088 831.515 674.593C882.37 694.712 934.957 715.514 986.197 722.233C1004.44 724.655 1022.87 726.002 1042.53 726.351C1068.91 726.822 1094.17 725.727 1118.6 724.67C1142.19 723.651 1166.58 722.596 1191.83 722.958C1247.54 723.764 1307.7 738.848 1370.64 767.796C1427.43 794.185 1486.43 828.395 1541.25 866.732C1550.7 873.339 1564.75 882.185 1581.02 892.424C1624.35 919.696 1678.28 953.64 1688.61 972.413L1687.99 972.758C1677.74 954.148 1623.91 920.26 1580.65 893.031C1564.37 882.784 1550.31 873.937 1540.85 867.32C1486.06 829.007 1427.1 794.818 1370.34 768.449C1307.5 739.545 1247.43 724.48 1191.82 723.677C1166.59 723.312 1142.21 724.366 1118.64 725.388C1094.2 726.445 1068.93 727.542 1042.52 727.069C1022.84 726.717 1004.38 725.368 986.109 722.943C934.781 716.214 882.154 695.396 831.258 675.261C802.19 663.763 774.733 652.9 747.383 644.41C676.313 622.349 613.369 631.349 554.984 642.46C554.151 642.617 553.318 642.774 552.488 642.932C551.3 643.156 550.109 643.379 548.92 643.607C538.189 645.67 527.244 648.014 516.663 650.28C468.937 660.498 419.589 671.064 362.065 663.026C344.357 660.552 326.231 658.17 308.699 655.867C241.345 647.016 171.973 637.9 112.636 621.658L112.629 621.657Z" fill="white"/>
<path d="M66.5276 600.991C27.1836 590.223 -11.3122 574.588 -50.9807 553.283C-87.4236 533.711 -126.239 508.688 -173.131 474.536C-272.154 402.418 -368.603 365.847 -485.868 355.958L-485.804 355.205C-368.394 365.107 -271.824 401.723 -172.686 473.925C-78.1079 542.805 -8.28056 579.732 66.4965 600.196C68.3904 600.715 70.2768 601.221 72.179 601.718C75.8049 602.668 79.4686 603.629 83.1606 604.614C131.272 617.407 186.44 624.205 244.844 631.401C281.98 635.978 320.383 640.712 357.709 647.175C412.765 656.711 459.947 649.4 505.576 642.331C516.107 640.7 527.002 639.01 537.683 637.591C538.727 637.452 539.774 637.317 540.821 637.182C541.722 637.064 542.626 636.95 543.528 636.829C569.693 633.365 600.31 629.717 632.537 630.243C667.085 630.807 698.83 636.142 729.586 646.551C753.58 654.671 777.723 664.541 803.282 674.992C857.719 697.248 914.008 720.262 969.182 725.447C987.601 727.209 1006.13 727.686 1025.81 726.903C1052.32 725.851 1077.56 722.955 1101.98 720.154C1125.34 717.473 1149.51 714.701 1174.63 713.569C1230.61 711.047 1291.39 724.284 1355.28 752.912C1411.76 778.494 1471.07 812.958 1526.8 852.574C1536.54 859.5 1550.3 868.418 1566.24 878.745C1609.01 906.461 1662.24 940.958 1673.87 960.584L1673.22 960.967C1661.69 941.495 1608.53 907.053 1565.83 879.378C1549.88 869.046 1536.12 860.123 1526.36 853.188C1470.68 813.598 1411.41 779.161 1354.97 753.599C1291.19 725.019 1230.53 711.802 1174.67 714.32C1149.57 715.452 1125.42 718.22 1102.06 720.9C1077.63 723.702 1052.37 726.598 1025.84 727.653C1006.12 728.438 987.562 727.96 969.11 726.194C913.824 720.997 857.482 697.961 802.996 675.687C777.449 665.242 753.319 655.375 729.344 647.263C662.176 624.536 600.771 630.014 543.628 637.575C542.726 637.693 541.822 637.81 540.917 637.927C539.87 638.062 538.826 638.198 537.782 638.338C527.107 639.758 516.221 641.442 505.693 643.074C460.004 650.153 412.76 657.473 357.58 647.916C320.274 641.454 281.882 636.722 244.752 632.147C186.322 624.946 131.131 618.145 82.9683 605.34C79.2724 604.358 75.612 603.397 71.986 602.448C70.167 601.97 68.3431 601.485 66.5252 600.987L66.5276 600.991Z" fill="white"/>
<path d="M33.9744 586.223C2.5732 577.629 -28.2313 565.88 -59.4221 550.639C-97.8036 531.884 -137.326 507.747 -183.794 474.674C-285.706 402.141 -382.33 365.112 -497.091 354.612L-497.017 353.818C-382.108 364.332 -285.364 401.408 -183.33 474.026C-89.1952 541.026 -14.5664 576.633 66.2093 593.09C69.7013 593.8 73.469 594.57 77.3459 595.378C115.617 603.335 158.487 607.538 203.872 611.983C253.103 616.809 304.013 621.798 353.266 632.041C405.982 643.006 451.066 638.911 494.662 634.953C505.14 634.002 515.971 633.018 526.597 632.284C527.52 632.221 528.443 632.159 529.368 632.1C530.317 632.037 531.27 631.974 532.221 631.908C559.172 630.03 587.995 628.348 618.006 630.207C651.526 632.283 682.136 638.554 711.589 649.383C732.427 657.044 753.428 665.954 775.662 675.389C833.449 699.911 893.202 725.267 952.167 728.668C970.766 729.771 989.386 729.374 1009.09 727.462C1035.65 724.882 1060.81 720.177 1085.14 715.628C1108.36 711.288 1132.36 706.801 1157.44 704.193C1213.95 698.312 1275.34 709.702 1339.91 738.045C1395.66 762.514 1455.29 797.228 1512.34 838.429C1522.28 845.601 1536.26 854.929 1551.07 864.804C1593.43 893.057 1646.16 928.219 1659.13 948.768L1658.45 949.194C1645.57 928.789 1592.93 893.678 1550.63 865.467C1535.82 855.587 1521.82 846.257 1511.88 839.076C1454.86 797.906 1395.29 763.224 1339.59 738.777C1275.15 710.49 1213.89 699.123 1157.52 704.989C1132.47 707.594 1108.49 712.077 1085.29 716.414C1060.94 720.966 1035.75 725.673 1009.16 728.259C989.418 730.179 970.758 730.573 952.116 729.467C930.95 728.248 909.683 724.203 888.46 718.395C850.415 707.983 812.479 691.884 775.346 676.128C753.121 666.698 732.133 657.791 711.31 650.137C648.141 626.917 590.576 628.643 532.27 632.71C531.317 632.776 530.364 632.838 529.414 632.901C528.492 632.961 527.57 633.023 526.647 633.086C516.031 633.819 505.204 634.801 494.73 635.752C451.071 639.717 405.929 643.815 353.098 632.827C303.886 622.593 252.999 617.606 203.788 612.781C158.377 608.33 115.488 604.127 77.1747 596.16C73.3011 595.353 69.5325 594.586 66.0413 593.873C55.2577 591.675 44.5765 589.13 33.9672 586.225L33.9744 586.223Z" fill="white"/>
<path d="M2.89115 573.304C-20.9249 566.786 -44.3654 558.394 -67.8626 548.005C-107.313 530.562 -148.723 506.62 -194.457 474.815C-299.418 401.813 -396.217 364.328 -508.314 353.27L-508.232 352.434C-449.551 358.222 -395.539 371.167 -343.115 392.006C-294.325 411.399 -245.543 438.263 -193.977 474.127C-100.835 538.909 -24.8084 571.907 60.234 584.457L60.5693 584.506C64.176 585.037 67.8274 585.579 71.5222 586.137C103.067 590.905 137.766 593.121 174.506 595.465C232.063 599.137 291.581 602.935 348.824 616.908C399.185 629.2 442.154 628.298 483.712 627.425C494.148 627.205 504.938 626.979 515.518 626.981C516.342 626.98 517.166 626.982 517.99 626.985C518.965 626.988 519.943 626.992 520.919 626.989C544.445 626.945 573.727 626.889 603.471 630.197C635.968 633.813 665.449 641.015 693.595 652.216C711.42 659.31 729.385 667.252 748.41 675.665C809.392 702.626 872.45 730.504 935.154 731.889C953.94 732.334 972.654 731.068 992.372 728.022C1018.94 723.916 1043.98 717.402 1068.2 711.103C1091.3 705.095 1115.18 698.885 1140.25 694.809C1169.29 690.089 1200.05 690.301 1231.67 695.444C1261.44 700.285 1292.69 709.612 1324.56 723.164C1380.55 747.237 1440.49 782.198 1497.9 824.272C1507.89 831.595 1521.27 840.777 1535.44 850.496C1577.57 879.402 1630 915.373 1644.4 936.942L1643.7 937.409C1629.4 915.974 1577.04 880.054 1534.97 851.189C1520.79 841.464 1507.4 832.282 1497.4 824.95C1440.04 782.914 1380.16 747.983 1324.22 723.935C1258.54 696.005 1196.69 686.485 1140.38 695.636C1115.35 699.704 1091.48 705.911 1068.41 711.914C1044.17 718.218 1019.11 724.734 992.494 728.847C972.73 731.903 953.965 733.171 935.129 732.724C906.988 732.101 876.061 725.99 840.587 714.037C809.217 703.468 778.127 689.723 748.064 676.431C729.048 668.023 711.089 660.085 693.28 652.996C629.528 627.621 571.826 627.731 520.917 627.826C519.937 627.828 518.959 627.824 517.981 627.821C517.158 627.818 516.334 627.816 515.513 627.814C504.943 627.811 494.156 628.038 483.728 628.256C442.119 629.131 399.09 630.033 348.623 617.716C291.454 603.761 231.972 599.967 174.451 596.297C137.695 593.953 102.976 591.735 71.3949 586.962C67.7001 586.404 64.0511 585.867 60.4452 585.332L60.1099 585.283C40.6712 582.415 21.6626 578.44 2.88865 573.3L2.89115 573.304Z" fill="white"/>
<path d="M-26.2499 562.169C-43.0827 557.563 -59.711 551.983 -76.3028 545.385C-117.142 529.15 -159.276 506.113 -205.119 474.953C-314.764 400.431 -408.797 363.636 -519.54 351.92L-519.447 351.04C-461.306 357.189 -407.276 370.616 -354.262 392.084C-306.321 411.499 -257.375 438.367 -204.625 474.217C-112.014 537.163 -34.5924 567.548 54.2568 575.817L56.6155 576.037C59.6104 576.315 62.6379 576.596 65.7 576.889C92.3929 579.444 121.336 580.151 151.98 580.896C183.162 581.656 215.404 582.441 247.882 585.255C284.711 588.443 316.283 593.85 344.384 601.761C392.339 615.272 433.157 617.521 472.626 619.695C483.066 620.27 493.861 620.866 504.441 621.665C505.159 621.717 505.876 621.776 506.593 621.832C507.602 621.91 508.61 621.988 509.622 622.063L512.923 622.299C537.853 624.082 563.635 625.925 590.739 630.5C621.501 635.692 649.26 643.72 675.6 655.042C690.472 661.433 705.452 668.361 721.309 675.689C785.399 705.316 851.669 735.95 918.138 735.099C937.108 734.883 955.918 732.751 975.644 728.572C1002.2 722.95 1027.09 714.632 1051.17 706.589C1074.17 698.904 1097.96 690.957 1123.05 685.422C1152.3 678.972 1183.35 677.859 1215.35 682.118C1245.33 686.106 1276.9 694.909 1309.2 708.284C1338.02 720.352 1367.94 735.489 1398.12 753.28C1426.52 770.02 1455.23 789.145 1483.45 810.118C1493.31 817.449 1505.88 826.314 1519.19 835.703C1561.31 865.418 1613.73 902.395 1629.66 925.118L1628.94 925.626C1613.1 903.028 1560.74 866.1 1518.68 836.425C1505.37 827.035 1492.79 818.165 1482.92 810.829C1424.78 767.614 1364.59 732.439 1308.85 709.104C1242.2 681.503 1179.75 673.828 1123.24 686.292C1098.2 691.815 1074.43 699.756 1051.45 707.433C1027.35 715.485 1002.43 723.81 975.827 729.442C956.043 733.634 937.174 735.773 918.147 735.989C888.327 736.371 855.588 730.301 818.063 717.44C784.954 706.089 752.409 691.048 720.939 676.5C705.085 669.172 690.112 662.25 675.252 655.861C616.458 630.592 561.419 626.659 512.859 623.187L509.558 622.95C508.545 622.878 507.534 622.799 506.526 622.721C505.808 622.666 505.094 622.611 504.377 622.555C493.806 621.758 483.014 621.163 472.578 620.589C433.883 618.456 393.896 616.249 347.138 603.454C346.14 603.18 345.146 602.906 344.144 602.621C281.383 584.958 212.629 583.266 151.958 581.789C121.298 581.044 92.3379 580.336 65.6156 577.778C62.5567 577.486 59.529 577.205 56.5341 576.927L54.1747 576.71C26.5337 574.138 -0.0979992 569.334 -26.2545 562.175L-26.2499 562.169Z" fill="white"/>
<path d="M-53.2887 552.647C-63.8411 549.758 -74.3058 546.469 -84.7346 542.771C-126.829 527.841 -169.695 505.701 -215.782 475.091C-295.516 422.133 -365.871 387.996 -438.158 368.209C-468.412 359.926 -498.994 354.163 -530.763 350.574L-530.658 349.653C-473.055 356.158 -419 370.065 -365.4 392.167C-317.798 411.798 -270.094 437.902 -215.267 474.32C-122.863 535.694 -44.0429 563.467 48.2827 567.191C49.7426 567.25 51.2097 567.308 52.6872 567.365C55.0614 567.458 57.4588 567.553 59.8746 567.655C82.9437 568.614 107.676 568.162 133.861 567.684C199.095 566.495 273.034 565.154 339.944 586.628C385.38 601.214 423.931 606.55 461.217 611.713C471.768 613.175 482.678 614.685 493.367 616.367C494.003 616.468 494.643 616.569 495.282 616.671C496.295 616.834 497.308 616.994 498.326 617.148C501.636 617.653 504.971 618.152 508.329 618.654C553.088 625.362 603.819 632.968 657.601 657.878C669.523 663.399 681.493 669.208 694.171 675.355C758.206 706.419 830.789 741.629 901.115 738.321C920.271 737.448 939.176 734.442 958.913 729.136C985.435 722.003 1010.17 711.888 1034.08 702.106C1057.01 692.728 1080.71 683.032 1105.84 676.043C1135.28 667.855 1166.63 665.412 1199.01 668.782C1229.21 671.925 1261.11 680.209 1293.82 693.402C1322.73 705.183 1352.84 720.304 1383.32 738.337C1411.7 755.13 1440.53 774.52 1468.99 795.959C1478.45 803.084 1489.93 811.404 1502.08 820.211C1544.5 850.956 1597.29 889.218 1614.91 913.289L1614.17 913.835C1596.63 889.882 1543.9 851.668 1501.54 820.962C1489.38 812.151 1477.9 803.834 1468.43 796.7C1409.53 752.331 1349.03 716.907 1293.47 694.261C1225.85 666.991 1162.81 661.162 1106.09 676.933C1081.01 683.907 1057.33 693.591 1034.43 702.959C1010.49 712.752 985.73 722.877 959.148 730.024C939.346 735.349 920.375 738.364 901.151 739.241C869.613 740.725 835.022 734.692 795.4 720.799C760.529 708.573 726.586 692.106 693.757 676.183C681.086 670.037 669.116 664.228 657.203 658.712C603.543 633.857 552.882 626.264 508.182 619.566C504.821 619.06 501.487 618.561 498.176 618.06C497.158 617.905 496.142 617.742 495.126 617.581C494.489 617.48 493.85 617.375 493.213 617.277C482.531 615.597 471.624 614.088 461.08 612.627C429.688 608.281 397.389 603.809 360.838 593.807C353.931 591.916 346.879 589.831 339.646 587.509C272.882 566.071 199.026 567.421 133.863 568.606C107.665 569.084 82.9162 569.533 59.8201 568.574C57.4036 568.475 55.0062 568.381 52.6327 568.285C51.1552 568.228 49.685 568.169 48.225 568.11C12.9051 566.684 -20.5853 561.595 -53.3072 552.639L-53.2887 552.647Z" fill="white"/>
<path d="M-78.3059 544.533C-83.2783 543.173 -88.2233 541.721 -93.1623 540.17C-136.416 526.609 -180.014 505.365 -226.445 475.231C-312.973 419.07 -411.091 364.937 -541.99 349.231L-541.875 348.268C-484.808 355.116 -430.727 369.502 -376.547 392.249C-330.14 411.732 -282.276 437.842 -225.92 474.419C-175.051 507.433 -126.821 530.114 -77.7803 543.539C-38.8452 554.197 0.589635 559.021 42.2995 558.563C44.3976 558.539 46.5163 558.513 48.6516 558.487C50.4361 558.466 52.2349 558.441 54.0465 558.419C74.3526 558.185 95.9289 556.833 118.771 555.402C187.619 551.09 265.656 546.2 335.504 571.498C378.105 586.926 414.154 595.216 449.021 603.229C460.447 605.856 471.24 608.338 482.303 611.067C482.861 611.204 483.421 611.345 483.982 611.483C484.998 611.734 486.016 611.989 487.04 612.236C492.728 613.601 498.37 614.914 504.341 616.31C545.04 625.809 591.167 636.572 639.608 660.711C648.498 665.139 657.382 669.68 666.791 674.489C733.786 708.726 809.719 747.533 884.096 741.541C903.604 739.994 922.605 736.122 942.186 729.697C968.775 721.085 993.403 709.131 1017.22 697.567C1039.99 686.512 1063.53 675.08 1088.64 666.667C1118.27 656.739 1149.91 652.962 1182.67 655.444C1213.09 657.75 1245.32 665.516 1278.46 678.529C1307.46 690.033 1337.77 705.132 1368.53 723.405C1396.9 740.259 1425.84 759.91 1454.55 781.813C1463.19 788.405 1473.16 795.824 1483.71 803.679C1526.88 835.79 1580.59 875.754 1600.18 901.471L1599.4 902.059C1579.9 876.451 1526.25 836.532 1483.13 804.459C1472.57 796.603 1462.6 789.183 1453.95 782.586C1393.47 736.434 1334.3 701.727 1278.1 679.437C1209.51 652.504 1145.87 648.517 1088.95 667.594C1063.9 675.988 1040.38 687.405 1017.64 698.446C993.792 710.023 969.134 721.995 942.483 730.626C922.829 737.075 903.754 740.961 884.168 742.513C809.516 748.526 733.454 709.652 666.344 675.359C656.939 670.551 648.053 666.013 639.17 661.583C590.833 637.496 544.76 626.744 504.115 617.258C498.141 615.865 492.496 614.547 486.808 613.182C485.784 612.936 484.762 612.683 483.743 612.428C483.182 612.29 482.626 612.15 482.068 612.013C471.012 609.282 460.222 606.804 448.799 604.178C413.906 596.155 377.824 587.862 335.172 572.411C265.509 547.182 187.583 552.064 118.83 556.371C95.9742 557.802 74.3875 559.155 54.0544 559.39C52.2428 559.412 50.4448 559.433 48.6602 559.455C46.5242 559.483 44.4055 559.509 42.3075 559.533C-0.151119 560 -39.7734 555.083 -78.3098 544.535L-78.3059 544.533Z" fill="white"/>
<path d="M-101.502 537.597C-101.528 537.591 -101.553 537.585 -101.578 537.576C-145.93 525.426 -190.261 505.079 -237.104 475.37C-340.451 409.824 -433.76 363.06 -553.213 347.882L-553.085 346.879C-496.552 354.062 -442.445 368.926 -387.683 392.322C-342.091 411.799 -295.484 437.148 -236.564 474.517C-145.023 532.573 -60.863 555.832 36.32 549.932C39.0795 549.766 41.8759 549.585 44.706 549.404L48.2186 549.181C66.3924 548.027 85.562 545.956 105.857 543.761C177.691 535.993 259.107 527.189 331.072 556.363C369.773 572.055 402.527 582.881 434.201 593.351C446.926 597.558 458.942 601.53 471.244 605.776L472.648 606.26C473.683 606.62 474.719 606.976 475.759 607.328C484.097 610.133 492.482 612.831 501.359 615.692C537.682 627.391 578.849 640.646 621.619 663.548C627.317 666.598 632.973 669.657 638.958 672.896C708.983 710.77 788.352 753.699 867.079 744.765C886.747 742.558 905.845 737.816 925.461 730.266C951.99 720.16 976.424 706.425 1000.05 693.139C1022.76 680.368 1046.24 667.167 1071.45 657.294C1101.26 645.617 1133.18 640.502 1166.33 642.096C1196.98 643.569 1229.54 650.823 1263.1 663.653C1292.2 674.887 1322.7 689.967 1353.73 708.473C1382.09 725.384 1411.15 745.297 1440.09 767.658C1447.22 773.162 1455.03 779.112 1463.29 785.413C1507.91 819.439 1563.46 861.782 1585.44 889.647L1584.64 890.274C1562.74 862.511 1507.26 820.208 1462.67 786.219C1454.41 779.918 1446.6 773.967 1439.47 768.459C1378.27 721.182 1318.81 686.239 1262.73 664.596C1193.16 638.001 1128.92 635.86 1071.81 658.235C1046.68 668.079 1023.22 681.267 1000.54 694.018C976.883 707.32 952.417 721.074 925.819 731.205C906.123 738.784 886.943 743.548 867.188 745.765C831.929 749.767 793.327 743.692 749.182 727.199C710.579 712.778 673.921 692.952 638.474 673.779C632.489 670.543 626.837 667.484 621.138 664.435C578.449 641.578 537.326 628.336 501.047 616.651C492.167 613.789 483.778 611.09 475.434 608.283C474.391 607.931 473.352 607.571 472.313 607.213L470.913 606.73C458.617 602.485 446.602 598.514 433.883 594.308C402.193 583.831 369.42 573.001 330.688 557.298C258.96 528.219 177.675 537.009 105.962 544.764C85.6534 546.959 66.4727 549.034 48.2791 550.187L44.7664 550.411C41.9364 550.591 39.1366 550.771 36.3771 550.938C-12.7119 553.916 -57.8158 549.551 -101.508 537.592L-101.502 537.597Z" fill="white"/>
<path d="M-123.217 531.617C-164.17 520.408 -205.05 501.977 -247.766 475.508C-357.74 407.357 -449.076 362.007 -564.439 346.536L-564.299 345.491C-508.294 353.002 -454.165 368.345 -398.818 392.393C-342.986 416.651 -290.847 447.569 -247.209 474.612C-155.206 531.625 -69.6062 552.194 30.3402 541.305C33.8662 540.92 37.375 540.52 41.0919 540.094L42.3875 539.945C58.8944 538.058 76.2115 535.391 94.5438 532.564C168.914 521.104 253.207 508.113 326.64 541.228C352.661 552.962 375.543 563.009 397.669 572.726C419.272 582.213 439.677 591.172 460.193 600.482L461.404 601.03C462.428 601.496 463.452 601.964 464.486 602.418C475.846 607.448 487.48 612.282 499.794 617.398C532.833 631.125 566.994 645.317 603.634 666.373C605.88 667.665 608.141 668.966 610.414 670.274C679.977 710.313 766.552 760.144 850.063 747.975C869.895 745.106 889.087 739.494 908.739 730.821C935.209 719.228 959.441 703.721 982.873 688.726C1005.53 674.229 1028.95 659.242 1054.25 647.911C1084.23 634.483 1116.44 628.031 1149.98 628.734C1180.86 629.383 1213.76 636.123 1247.74 648.767C1303.82 669.815 1363.67 705.052 1425.65 753.499C1429.95 756.859 1434.45 760.362 1439.09 763.978C1483.99 798.955 1545.49 846.857 1570.71 877.817L1569.89 878.486C1544.74 847.62 1483.3 799.76 1438.44 764.813C1433.8 761.196 1429.3 757.694 1425 754.334C1363.11 705.949 1303.34 670.767 1247.37 649.756C1176.81 623.506 1111.98 623.212 1054.68 648.874C1029.45 660.174 1006.06 675.142 983.441 689.616C959.973 704.633 935.706 720.162 909.162 731.785C889.423 740.499 870.142 746.138 850.216 749.019C812.851 754.466 771.978 748.258 725.262 730.043C684.587 714.185 644.901 691.342 609.889 671.191C607.616 669.883 605.355 668.582 603.109 667.29C566.529 646.267 532.399 632.087 499.389 618.376C487.067 613.258 475.43 608.42 464.058 603.384C463.021 602.926 461.995 602.457 460.967 601.991L459.759 601.443C439.245 592.137 418.845 583.176 397.247 573.693C375.118 563.975 352.236 553.925 326.209 542.19C253.06 509.203 168.934 522.168 94.7068 533.607C76.3642 536.435 59.04 539.104 42.5092 540.992L41.2137 541.141C37.4936 541.566 33.9808 541.968 30.4549 542.354C-19.7978 547.829 -65.7371 545.421 -109.985 534.987C-114.397 533.946 -118.809 532.825 -123.217 531.617Z" fill="white"/>
<path d="M-143.689 526.427C-181.547 516.064 -219.313 499.334 -258.429 475.648C-355.661 416.775 -453.09 362.494 -575.665 345.189L-575.512 344.104C-546.183 348.244 -518.017 354.41 -489.403 362.949C-463.164 370.782 -437.178 380.435 -409.956 392.463C-357.092 415.817 -305.613 445.794 -257.86 474.712C-165.247 530.791 -78.2069 548.666 24.3559 532.68C28.4058 532.047 32.6051 531.364 36.5576 530.716C51.7417 528.226 67.5996 525.051 84.3887 521.688C123.066 513.946 163.062 505.939 203.737 504.29C250.27 502.405 289.021 509.54 322.205 526.103C372.418 551.162 411.419 573.553 449.137 595.208L450.05 595.732C451.101 596.335 452.151 596.94 453.207 597.534C468.239 605.973 484.003 614.051 500.689 622.601C527.86 636.524 555.956 650.92 585.639 669.223C652.551 710.476 744.188 766.972 833.034 751.209C853.033 747.682 872.321 741.2 892.001 731.4C918.41 718.33 942.44 701.065 965.677 684.37C988.271 668.134 1011.63 651.349 1037.04 638.553C1067.19 623.372 1099.68 615.578 1133.6 615.391C1164.73 615.22 1197.96 621.448 1232.37 633.902C1288.37 654.335 1348.54 689.817 1411.2 739.361C1453.98 773.19 1525.6 829.81 1555.96 866.009L1555.12 866.716C1524.83 830.605 1453.27 774.027 1410.52 740.225C1347.95 690.753 1287.89 655.331 1232 634.938C1160.45 609.037 1095.02 610.583 1037.54 639.537C1012.21 652.294 988.879 669.056 966.321 685.266C943.047 701.99 918.981 719.281 892.493 732.39C872.717 742.239 853.332 748.749 833.227 752.296C794.222 759.217 751.711 753.111 703.264 733.634C659.418 716.004 616.442 689.51 585.062 670.165C555.413 651.887 527.335 637.498 500.185 623.587C483.487 615.03 467.718 606.948 452.667 598.501C451.608 597.907 450.552 597.3 449.502 596.694L448.588 596.17C410.885 574.525 371.899 552.141 321.713 527.098C247.652 490.136 161.03 507.478 84.602 522.777C67.8027 526.141 51.9376 529.317 36.7328 531.809C32.7771 532.456 28.5771 533.142 24.5241 533.775C-26.8256 541.779 -73.5713 541.334 -118.386 532.416C-126.835 530.736 -135.267 528.744 -143.688 526.438L-143.689 526.427Z" fill="white"/>
<path d="M-163.082 521.897C-198.148 512.301 -233.115 497.069 -269.088 475.787C-355.869 424.449 -432.308 381.877 -519.42 358.033C-541.143 352.089 -563.511 347.309 -586.888 343.844L-586.722 342.714C-557.477 347.05 -529.296 353.455 -500.563 362.304C-474.503 370.329 -448.505 380.213 -421.089 392.527C-369.339 415.766 -319.387 444.706 -268.508 474.805C-175.154 530.034 -86.6748 545.223 18.3696 524.051C22.7064 523.177 27.0464 522.261 30.723 521.479C44.8608 518.472 59.5721 514.852 75.1462 511.017C112.897 501.729 155.684 491.197 197.289 488.407C244.948 485.208 284.356 492.589 317.773 510.971C359.364 533.851 392.319 557.335 424.192 580.049C428.739 583.291 433.441 586.641 438.082 589.928L438.722 590.383C439.789 591.137 440.855 591.894 441.93 592.64C461.749 606.388 483.205 619.468 505.918 633.318C525.795 645.437 546.345 657.972 567.649 672.057C642.281 721.401 729.176 772.533 816.01 754.424C836.176 750.235 855.561 742.888 875.272 731.961C901.618 717.423 925.443 698.409 948.48 680.02C971.011 662.037 994.31 643.442 1019.83 629.171C1050.13 612.236 1082.9 603.102 1117.22 602.019C1148.6 601.03 1182.17 606.747 1217 619.014C1272.94 638.851 1333.42 674.575 1396.74 725.198C1467.83 782.025 1516.43 825.421 1541.22 854.176L1540.35 854.921C1515.62 826.221 1467.06 782.873 1396.03 726.09C1332.81 675.546 1272.45 639.885 1216.62 620.089C1144.09 594.543 1078.07 597.931 1020.39 630.163C994.947 644.384 971.687 662.951 949.193 680.905C926.116 699.322 902.257 718.369 875.823 732.954C856.011 743.939 836.52 751.326 816.241 755.537C795.39 759.883 773.11 760.378 750.023 756.999C729.609 754.013 707.777 747.879 685.132 738.76C643.208 721.881 603.586 697.179 567.017 673C545.731 658.925 525.186 646.399 505.321 634.283C482.594 620.422 461.127 607.333 441.278 593.568C440.2 592.822 439.131 592.064 438.062 591.306L437.422 590.851C432.78 587.564 428.076 584.213 423.528 580.971C391.681 558.277 358.752 534.808 317.221 511.963C242.679 470.959 153.817 492.824 75.4172 512.118C59.8327 515.954 45.111 519.575 30.959 522.586C27.2823 523.368 22.9353 524.286 18.5946 525.162C-33.8076 535.723 -81.3607 537.244 -126.774 529.818C-138.918 527.832 -151.008 525.196 -163.084 521.89L-163.082 521.897Z" fill="white"/>
<path d="M-181.567 517.913C-214.108 509.006 -246.551 495.111 -279.744 475.926L-282.61 474.268C-387.7 413.527 -478.461 361.068 -598.114 342.494L-597.932 341.324C-543.168 349.824 -490.964 365.907 -433.639 391.939C-382.531 415.147 -333.707 443.365 -282.02 473.242L-279.154 474.9C-184.958 529.341 -95.0423 541.838 12.3894 515.424C15.9922 514.538 19.9632 513.527 24.8913 512.243C38.18 508.783 51.9732 504.762 66.5738 500.505C105.129 489.263 148.83 476.52 191.265 472.546C239.93 467.988 279.863 475.607 313.346 495.841C351.564 518.938 381.44 544.983 410.334 570.171C415.798 574.933 421.446 579.858 427.033 584.655L427.247 584.838C428.381 585.813 429.516 586.784 430.659 587.747C457.573 610.413 488.068 631.73 520.354 654.299C529.88 660.957 539.735 667.845 549.668 674.889C619.571 724.453 711.08 778.653 798.995 757.641C819.328 752.794 838.808 744.58 858.55 732.526C884.838 716.528 908.453 695.775 931.292 675.702C953.759 655.958 976.988 635.541 1002.64 619.796C1033.09 601.111 1066.13 590.633 1100.85 588.656C1132.49 586.853 1166.4 592.06 1201.65 604.137C1257.56 623.394 1318.34 659.362 1382.3 711.047C1443.97 760.877 1497.87 809.962 1526.49 842.354L1525.6 843.138C1497.03 810.793 1443.18 761.759 1381.56 711.968C1317.7 660.372 1257.04 624.467 1201.26 605.257C1127.73 580.069 1061.11 585.3 1003.26 620.808C977.695 636.499 954.501 656.881 932.071 676.592C909.196 696.697 885.539 717.485 859.165 733.537C839.317 745.658 819.724 753.92 799.267 758.794C778.178 763.832 755.682 764.847 732.401 761.804C711.7 759.1 689.687 753.089 666.973 743.941C621.883 725.78 580.229 698.014 548.98 675.857C539.05 668.817 529.198 661.929 519.672 655.27C487.366 632.687 456.851 611.355 429.894 588.657C428.747 587.693 427.61 586.714 426.473 585.739L426.259 585.556C420.67 580.755 415.019 575.829 409.556 571.064C380.701 545.911 350.864 519.899 312.735 496.856C238.077 451.735 147.138 478.248 66.9067 501.643C52.2958 505.902 38.4948 509.928 25.192 513.391C20.2567 514.677 16.2793 515.686 12.6725 516.575C-40.7524 529.709 -89.104 533.201 -135.147 527.243C-150.7 525.232 -166.147 522.132 -181.57 517.909L-181.567 517.913Z" fill="white"/>
<path d="M680.354 759.86C669.998 757.026 659.447 753.452 648.768 749.152C612.709 734.636 574.169 711.596 530.938 678.712C486.198 644.681 449.956 615.506 418.511 583.739C417.371 582.584 416.244 581.43 415.099 580.251C409.261 574.24 403.375 568.036 397.682 562.037C371.241 534.171 343.899 505.356 308.244 481.744C233.785 432.436 140.874 463.699 58.9028 491.281C45.0841 495.931 32.0309 500.323 19.4226 504.193C14.6551 505.658 10.5108 506.898 6.7483 507.984C-47.6023 523.693 -96.7394 529.129 -143.473 524.609C-192.735 519.844 -240.794 503.967 -290.402 476.071C-296.227 472.768 -302.019 469.479 -307.78 466.203C-404.149 411.419 -495.171 359.675 -609.338 341.155L-609.144 339.944C-556.921 348.418 -506.97 363.894 -451.941 388.646C-402.986 410.671 -356.449 437.125 -307.177 465.136C-301.416 468.411 -295.627 471.7 -289.802 475.003C-259.495 492.045 -229.579 504.669 -199.376 512.937C-134.522 530.69 -68.2854 528.393 6.40652 506.809C10.1627 505.723 14.2999 504.484 19.0596 503.023C31.6536 499.157 44.6964 494.767 58.5081 490.118C97.8286 476.887 142.392 461.891 185.575 456.701C235.164 450.742 275.507 458.599 308.917 480.723C344.689 504.412 372.08 533.278 398.566 561.196C404.257 567.193 410.14 573.393 415.976 579.398C417.121 580.576 418.245 581.727 419.383 582.878C450.778 614.596 486.981 643.739 531.681 677.737C594.412 725.45 688.606 785.98 781.971 760.87C802.473 755.365 822.048 746.28 841.821 733.1C868.048 715.652 891.459 693.166 914.095 671.423C936.494 649.908 959.655 627.664 985.443 610.433C1016.03 589.996 1049.34 578.174 1084.46 575.298C1116.36 572.685 1150.62 577.384 1186.28 589.263C1242.17 607.951 1303.26 644.164 1367.85 696.9C1421.41 740.625 1477.9 793.08 1511.75 830.536L1510.84 831.358C1477.02 793.944 1420.59 741.538 1367.08 697.85C1302.6 645.211 1241.64 609.067 1185.89 590.428C1111.37 565.605 1044.15 572.677 986.122 611.455C960.425 628.627 937.303 650.832 914.942 672.312C892.267 694.094 868.818 716.615 842.499 734.126C822.615 747.382 802.92 756.519 782.289 762.059C760.963 767.795 738.244 769.334 714.762 766.629C703.605 765.345 692.106 763.082 680.359 759.868L680.354 759.86Z" fill="white"/>
<path d="M660.523 764.573C614.553 751.992 565.217 724.282 512.893 681.561C470.558 647 435.961 613.388 407.127 578.811C406.057 577.524 404.996 576.23 403.935 574.935C398.093 567.786 392.227 560.372 386.558 553.202C362.335 522.577 337.29 490.913 303.748 466.622C229.761 413.048 130.77 450.732 51.2306 481.01C38.0815 486.015 25.6617 490.742 13.6487 494.983C8.93003 496.648 4.73335 498.089 0.819274 499.381C-54.5184 517.698 -104.455 525.113 -151.851 522.054C-173.541 520.651 -194.975 517.06 -216.355 511.206C-244.498 503.505 -272.557 491.889 -301.065 476.199C-312.326 469.976 -323.584 463.681 -334.469 457.598C-426.004 406.423 -512.466 358.092 -620.569 339.797L-620.359 338.547C-512.042 356.876 -425.487 405.262 -333.85 456.491C-322.966 462.577 -311.711 468.868 -300.453 475.09C-204.188 528.068 -111.394 535.191 0.420385 498.177C4.3281 496.883 8.51687 495.447 13.2253 493.783C25.2233 489.549 37.6359 484.824 50.7779 479.82C90.8409 464.568 136.248 447.282 180.139 440.847C230.601 433.448 271.276 441.542 304.49 465.59C338.178 489.982 363.278 521.718 387.552 552.409C393.219 559.575 399.082 566.985 404.919 574.127C405.978 575.42 407.039 576.712 408.104 577.993C436.885 612.505 471.425 646.06 513.696 680.573C608.026 757.585 692.559 785.682 764.945 764.088C785.618 757.925 805.288 747.975 825.089 733.667C851.259 714.773 874.458 690.57 896.894 667.163C919.22 643.868 942.309 619.782 968.235 601.057C998.951 578.874 1032.54 565.708 1068.06 561.93C1100.22 558.507 1134.83 562.693 1170.91 574.38C1200.76 584.07 1232.39 599.05 1264.91 618.909C1293.24 636.213 1323.01 657.691 1353.4 682.744C1400.82 721.855 1454.51 772.681 1497.01 818.71L1496.07 819.571C1453.61 773.583 1399.97 722.798 1352.59 683.724C1287.5 630.056 1226.25 593.676 1170.52 575.59C1095 551.134 1027.19 560.051 968.975 602.09C943.142 620.748 920.094 644.79 897.807 668.043C875.331 691.492 852.092 715.736 825.826 734.699C805.909 749.092 786.113 759.104 765.303 765.31C732.73 775.027 697.726 774.757 660.519 764.576L660.523 764.573Z" fill="white"/>
<path d="M640.692 769.286C631.318 766.719 621.824 763.51 612.214 759.658C591.78 751.463 570.749 740.289 549.701 726.454C531.355 714.391 512.901 700.247 494.845 684.412C457.778 651.907 424.438 614.72 395.746 573.887C388.981 564.26 382.288 554.151 375.815 544.376C353.727 511.013 330.883 476.517 299.247 451.509C266.646 425.739 226.045 417.498 175.12 426.312C130.695 434.001 84.5197 453.582 43.7803 470.861C26.5066 478.187 10.1942 485.104 -5.10963 490.796C-61.4062 511.731 -112.144 521.126 -160.216 519.518C-184.696 518.699 -208.81 515.042 -232.848 508.463C-259.09 501.282 -285.243 490.618 -311.727 476.35C-327.806 467.689 -343.756 458.879 -359.181 450.36C-446.504 402.129 -528.986 356.573 -631.797 338.461L-631.57 337.166C-528.542 355.319 -445.968 400.926 -358.546 449.21C-343.124 457.728 -327.177 466.537 -311.104 475.193C-213.886 527.56 -119.656 531.993 -5.56631 489.565C9.70833 483.883 26.0096 476.971 43.2683 469.651C84.074 452.347 130.321 432.732 174.896 425.016C226.21 416.136 267.152 424.462 300.063 450.48C331.865 475.616 354.766 510.203 376.913 543.65C383.38 553.418 390.068 563.518 396.823 573.132C425.456 613.882 458.727 650.989 495.715 683.425C547.329 728.69 648.725 799.777 747.921 767.317C803.116 749.257 842.049 705.374 879.702 662.935C901.954 637.854 924.965 611.92 951.038 591.691C973.25 574.457 997.118 562.043 1021.97 554.79C1045.19 548.017 1069.87 545.566 1095.35 547.503C1118.91 549.297 1143.77 554.896 1169.24 564.143C1192.51 572.591 1216.93 584.315 1241.8 598.991C1284.15 623.966 1327.93 657.198 1375.66 700.577C1415.36 736.661 1450.37 772.996 1482.28 806.884L1481.32 807.784C1408.73 730.695 1329.39 652.182 1241.14 600.119C1128.5 533.676 1031.17 531.189 951.845 592.726C925.87 612.879 902.901 638.766 880.685 663.804C861.831 685.056 842.335 707.03 820.993 725.542C797.018 746.339 773.251 760.41 748.33 768.564C714.919 779.496 678.823 779.721 640.695 769.287L640.692 769.286Z" fill="white"/>
</g>
<defs>
<clipPath id="clip0_17_16">
<rect width="1440" height="1024" fill="white"/>
</clipPath>
</defs>
</svg>
