<svg width="1440" height="1024" viewBox="0 0 1440 1024" fill="none" xmlns="http://www.w3.org/2000/svg">
<g clip-path="url(#clip0_17_16)">
<rect width="1440" height="1024" fill="#66D076"/>
<rect opacity="0.56" x="1331.4" y="152.234" width="50.3869" height="50.3869" transform="rotate(-104.245 1331.4 152.234)" fill="#D9D9D9"/>
<rect opacity="0.56" x="1359.54" y="158.895" width="35.0407" height="35.0407" transform="rotate(-104.245 1359.54 158.895)" fill="#D9D9D9"/>
<rect opacity="0.56" x="173.917" y="400.179" width="621.042" height="621.042" rx="122" transform="rotate(-135.891 173.917 400.179)" fill="#D9D9D9" fill-opacity="0.7"/>
<path d="M73.9356 843.974C61.1531 840.477 48.4288 836.045 35.7817 830.681C-4.94932 813.411 -45.2567 786.352 -84.0173 750.263C-120.829 715.986 -154.051 677.187 -186.177 639.664C-219.218 601.074 -253.383 561.169 -291.474 526.171C-388.484 437.033 -496.438 423.628 -598.644 422.416L-598.64 422.088C-532.287 422.873 -480.014 429.753 -434.133 443.744C-380.312 460.155 -333.572 487.038 -291.25 525.926C-253.146 560.937 -218.973 600.851 -185.926 639.445C-153.804 676.961 -120.591 715.754 -83.7901 750.019C0.00459875 828.042 87.8283 862.214 177.242 851.586C256.812 842.129 326.92 800.74 394.718 760.716C404.244 755.091 414.092 749.278 423.747 743.686C471.148 716.236 510.835 697.975 548.65 686.218C595.013 671.8 639.493 666.916 684.63 671.281C730.791 675.748 778.71 687.966 831.122 708.634C880.444 728.085 927.932 752.787 967.88 774.384C1052.34 820.047 1136.74 869.147 1218.36 916.629C1239.83 929.116 1262.02 942.032 1283.88 954.682C1331.66 982.341 1388.33 1014.96 1446.32 1047.12C1450.93 1049.68 1461.67 1054.78 1475.26 1061.23C1520.81 1082.87 1597.03 1119.09 1596.22 1131.82L1595.89 1131.8C1596.24 1126.4 1581.69 1115.7 1552.65 1100C1527.94 1086.63 1497.41 1072.12 1475.11 1061.53C1461.52 1055.07 1450.78 1049.96 1446.16 1047.4C1388.17 1015.24 1331.5 982.624 1283.71 954.964C1261.86 942.311 1239.66 929.398 1218.19 916.911C1136.57 869.429 1052.18 820.332 967.721 774.671C906.88 741.777 838.289 706.796 764.776 686.676C738.626 679.519 711.869 674.242 684.594 671.603C582.11 661.689 495.303 702.62 423.906 743.965C414.25 749.556 404.403 755.37 394.877 760.994C327.05 801.039 256.912 842.445 177.273 851.909C142.779 856.007 108.16 853.335 73.9338 843.967L73.9356 843.974Z" fill="white"/>
<path d="M65.2549 827.136C53.8788 824.023 42.542 820.249 31.258 815.815C-10.2194 799.518 -50.958 774.37 -89.832 741.071C-92.9657 738.387 -96.1977 735.572 -99.4386 732.709C-135.582 700.761 -168.866 664.495 -201.057 629.415C-232.904 594.714 -265.833 558.828 -302.143 526.31C-353.114 480.469 -407.375 454.455 -461.122 439.74C-512.244 425.747 -562.896 421.975 -609.868 421.074L-609.86 420.702C-544.04 421.962 -491.747 429.314 -445.293 443.833C-391.665 460.593 -344.761 487.48 -301.895 526.031C-265.571 558.561 -232.636 594.452 -200.784 629.161C-168.6 664.229 -135.323 700.494 -99.1931 732.428C-95.9521 735.292 -92.7202 738.106 -89.589 740.787C-6.85277 811.662 83.8707 844.741 172.777 836.45C249.732 829.272 317.257 791.544 382.559 755.056C392.422 749.546 402.624 743.846 412.627 738.384C415.281 736.936 417.917 735.51 420.468 734.146C465.023 710.268 502.473 694.542 538.322 684.649C582.154 672.556 624.121 669.108 666.62 674.111C703.234 678.424 741.824 687.803 784.592 702.792C824.216 716.678 862.153 733.451 897.243 749.505C913.141 756.786 929.775 764.631 951.184 774.942C1000.29 798.636 1050.36 823.536 1104.27 851.069C1153.89 876.411 1207.62 905.438 1268.52 939.81C1331.19 975.244 1383.1 1004.84 1431.87 1032.97C1437.13 1036 1448.75 1041.71 1463.45 1048.93C1485.31 1059.68 1515.25 1074.39 1539.07 1087.72C1567.4 1103.57 1581.27 1114.13 1581.49 1120.01L1581.12 1120.02C1580.64 1106.94 1507.17 1070.84 1463.28 1049.27C1448.57 1042.04 1436.95 1036.33 1431.68 1033.29C1382.91 1005.16 1331.01 975.561 1268.34 940.132C1207.44 905.761 1153.71 876.737 1104.1 851.396C1050.19 823.864 1000.12 798.964 951.022 775.272C929.617 764.959 912.982 757.117 897.087 749.837C828.431 718.421 748.339 684.101 666.574 674.474C569.778 663.075 487.934 698.407 420.64 734.468C418.093 735.83 415.458 737.255 412.803 738.704C402.801 744.162 392.602 749.862 382.739 755.373C317.403 791.88 249.842 829.63 172.811 836.814C136.989 840.156 100.942 836.9 65.2525 827.132L65.2549 827.136Z" fill="white"/>
<path d="M55.5198 810.112C-6.91504 793.023 -58.5197 760.983 -95.6389 731.874C-98.7677 729.42 -102.053 726.812 -105.4 724.119C-145.34 691.997 -180.524 656.187 -217.775 618.271C-247.84 587.672 -278.929 556.027 -312.811 526.443C-393.733 455.22 -485.928 423.304 -621.091 419.728L-621.081 419.314C-555.8 421.042 -503.486 428.863 -456.448 443.919C-403.036 461.02 -355.965 487.911 -312.539 526.132C-278.646 555.728 -247.551 587.375 -217.481 617.981C-180.239 655.885 -145.064 691.69 -105.142 723.798C-101.798 726.489 -98.5127 729.097 -95.3864 731.548C-37.8122 776.698 54.6753 828.921 168.319 821.306C242.706 816.322 307.736 782.171 370.625 749.145C380.758 743.823 391.235 738.321 401.512 733.073C404.062 731.773 406.625 730.475 409.13 729.222C452.741 707.325 489.17 693.079 523.771 684.386C566.576 673.63 607.413 671.194 648.611 676.937C722.606 687.249 794.51 717.119 864.05 746.007C869.465 748.259 874.863 750.499 880.242 752.722C898.341 760.218 915.515 767.469 934.487 775.493C996.898 801.986 1042.54 821.776 1087.1 841.682C1139.1 864.903 1194.97 892.915 1253.16 924.934C1315.17 959.167 1368.89 989.874 1417.41 1018.81C1423.31 1022.33 1435.6 1028.57 1451.16 1036.47C1496.5 1059.49 1565.01 1094.29 1566.76 1108.18L1566.35 1108.24C1565.6 1102.31 1551.63 1091.44 1524.82 1075.96C1501.76 1062.63 1473.6 1048.33 1450.97 1036.84C1435.4 1028.94 1423.11 1022.69 1417.2 1019.17C1368.69 990.23 1314.96 959.524 1252.96 925.295C1194.78 893.278 1138.92 865.272 1086.93 842.057C1042.37 822.156 996.732 802.362 934.323 775.873C915.354 767.85 898.178 760.598 880.081 753.103C874.703 750.88 869.306 748.636 863.889 746.388C794.374 717.508 722.494 687.651 648.551 677.347C555.313 664.353 475.292 696.469 409.311 729.596C406.805 730.849 404.247 732.144 401.697 733.445C391.423 738.69 380.947 744.193 370.814 749.514C307.887 782.559 242.815 816.731 168.343 821.722C127.846 824.434 90.0212 819.556 55.5127 810.113L55.5198 810.112Z" fill="white"/>
<path d="M43.8596 792.619C36.5979 790.63 29.3556 788.438 22.1297 786.04C-21.036 771.708 -62.6163 750.392 -101.449 722.68C-104.587 720.442 -107.826 718.104 -111.363 715.533C-156.411 682.753 -196.155 644.913 -238.235 604.855C-265.355 579.038 -293.397 552.341 -323.477 526.58C-406.782 455.235 -499.143 422.877 -632.311 418.383L-632.294 417.926C-567.705 420.106 -515.4 428.424 -467.683 444.105C-414.622 461.539 -367.354 488.405 -323.179 526.234C-293.092 552.003 -265.043 578.702 -237.918 604.524C-195.849 644.572 -156.112 682.401 -111.09 715.164C-107.557 717.734 -104.315 720.073 -101.18 722.31C-43.9969 763.116 48.4056 810.787 163.865 806.166C235.73 803.29 298.343 772.65 358.896 743.018C369.231 737.961 379.918 732.729 390.403 727.767C392.899 726.585 395.384 725.421 397.799 724.302C440.461 704.413 475.869 691.655 509.228 684.149C551.003 674.753 590.705 673.317 630.605 679.764C692.561 689.775 754.115 713.748 813.645 736.935C829.982 743.296 846.87 749.876 863.24 755.942C879.454 761.966 898.617 769.065 917.788 776.051C929.731 780.426 941.697 784.791 953.268 789.015C992.999 803.511 1030.53 817.203 1069.93 832.298C1123.11 852.67 1179.59 878.836 1237.8 910.066C1299.18 943.145 1353.2 974.088 1402.96 1004.67C1409.47 1008.66 1422.91 1015.71 1438.48 1023.87C1482.5 1046.96 1549.04 1081.85 1552.02 1096.37L1551.58 1096.46C1548.63 1082.16 1482.21 1047.33 1438.26 1024.28C1422.69 1016.11 1409.24 1009.06 1402.72 1005.05C1352.96 974.484 1298.95 943.544 1237.58 910.469C1179.39 879.25 1122.92 853.095 1069.76 832.727C1030.36 817.633 992.837 803.941 953.106 789.445C941.535 785.225 929.569 780.857 917.626 776.481C898.455 769.495 879.292 762.397 863.078 756.373C846.705 750.307 829.813 743.728 813.477 737.364C753.969 714.186 692.436 690.221 630.529 680.217C540.818 665.724 462.634 694.581 397.986 724.722C395.572 725.841 393.086 727.005 390.594 728.187C380.112 733.15 369.428 738.379 359.093 743.436C298.499 773.089 235.844 803.75 163.881 806.63C123.933 808.23 83.6571 803.524 43.8575 792.629L43.8596 792.619Z" fill="white"/>
<path d="M29.8795 774.689C25.7532 773.559 21.6384 772.377 17.5271 771.136C-26.6345 757.794 -68.6148 738.399 -107.255 713.49C-110.371 711.483 -113.661 709.341 -117.32 706.951C-168.352 673.58 -213.442 633.235 -261.179 590.525C-284.516 569.642 -308.647 548.051 -334.146 526.72C-419.583 455.233 -512.112 422.433 -643.534 417.041L-643.515 416.541C-612.476 417.813 -584.523 420.536 -558.052 424.86C-529.744 429.483 -503.84 435.818 -478.858 444.22C-426.094 461.967 -378.657 488.828 -333.827 526.338C-308.323 547.677 -284.19 569.272 -260.85 590.156C-213.127 632.856 -168.054 673.187 -117.051 706.538C-113.392 708.928 -110.101 711.066 -106.989 713.076C-27.2724 764.472 67.3321 792.159 159.402 791.031C228.785 790.18 289.048 762.992 347.331 736.696C357.814 731.966 368.652 727.077 379.286 722.465C381.701 721.417 384.114 720.381 386.462 719.388C428.748 701.287 462.126 690.355 494.684 683.942C535.424 675.919 573.994 675.479 612.597 682.597C665.523 692.358 718.986 712.474 770.687 731.925C795.608 741.302 821.38 750.997 846.234 759.162C864.862 765.301 883.315 771.168 901.083 776.603C921.51 782.906 941.718 788.97 961.263 794.834C990.976 803.75 1021.7 812.968 1052.75 822.909C1106.63 840.164 1163.73 864.481 1222.44 895.19C1282.34 926.701 1338.21 958.771 1388.51 990.511C1395.6 994.984 1409.43 1002.47 1425.45 1011.14C1470.88 1035.72 1533.08 1069.39 1537.29 1084.54L1536.81 1084.68C1532.66 1069.73 1468 1034.73 1425.22 1011.58C1409.19 1002.91 1395.35 995.414 1388.24 990.931C1337.95 959.197 1282.09 927.133 1222.21 895.628C1163.52 864.936 1106.46 840.628 1052.6 823.382C1021.55 813.442 990.832 804.222 961.121 795.309C941.577 789.446 921.368 783.382 900.938 777.078C883.167 771.642 864.71 765.774 846.08 759.635C821.215 751.468 795.439 741.768 770.514 732.39C718.832 712.944 665.393 692.839 612.51 683.085C526.534 667.228 453.152 691.381 386.661 719.844C384.316 720.837 381.904 721.873 379.488 722.922C368.858 727.531 358.023 732.423 347.541 737.151C289.212 763.467 228.901 790.678 159.414 791.528C116.147 792.056 72.6329 786.398 29.8781 774.696L29.8795 774.689Z" fill="white"/>
<path d="M12.1461 756C-32.3914 743.808 -74.8182 726.391 -113.056 704.298C-116.041 702.572 -119.287 700.69 -123.273 698.367C-181.712 664.31 -233.454 620.524 -288.234 574.166C-306.438 558.76 -325.263 542.83 -344.808 526.854C-431.298 456.151 -526.888 421.867 -654.754 415.693L-654.728 415.15C-592.167 418.171 -538.293 427.713 -490.025 444.327C-437.591 462.373 -389.978 489.229 -344.467 526.434C-324.92 542.414 -306.094 558.344 -287.887 573.753C-233.127 620.094 -181.403 663.866 -123.002 697.9C-119.016 700.224 -115.77 702.106 -112.785 703.831C-35.0359 748.748 60.0492 774.337 154.955 775.886C221.888 776.978 279.866 753.189 335.934 730.184C346.51 725.844 357.449 721.356 368.181 717.153C370.453 716.264 372.728 715.389 374.999 714.513L375.136 714.46C440.548 689.274 512.407 668.324 594.596 685.418C640.45 694.956 687.35 712.365 732.702 729.2C764.565 741.028 797.511 753.257 829.234 762.373C847.699 767.701 865.739 772.535 884.38 777.146C908.089 783.089 931.346 788.515 953.839 793.764C980.336 799.944 1007.73 806.335 1035.57 813.514C1089.96 827.542 1147.66 850.014 1207.08 880.304C1266.41 910.76 1322.58 943.074 1374.06 976.347C1381.7 981.288 1395.8 989.16 1412.13 998.274C1456.45 1023.01 1517.14 1056.89 1522.56 1072.71L1522.05 1072.89C1516.69 1057.27 1456.11 1023.45 1411.87 998.749C1395.53 989.63 1381.42 981.753 1373.77 976.805C1322.3 943.542 1266.14 911.238 1206.84 880.79C1147.45 850.514 1089.79 828.051 1035.44 814.039C1007.61 806.858 980.21 800.47 953.716 794.291C931.222 789.045 907.961 783.618 884.25 777.675C865.599 773.058 847.557 768.223 829.085 762.894C797.343 753.774 764.388 741.54 732.515 729.709C687.182 712.882 640.304 695.481 594.488 685.949C512.435 668.882 440.668 689.809 375.334 714.965L375.197 715.018C372.925 715.894 370.65 716.77 368.382 717.66C357.654 721.86 346.718 726.346 336.143 730.685C280.023 753.713 221.996 777.524 154.95 776.43C106.627 775.639 58.2573 768.624 12.1486 756.004L12.1461 756Z" fill="white"/>
<path d="M-10.6148 736.416C-49.9749 725.644 -86.3074 711.783 -118.858 695.109C-122.335 693.329 -125.79 691.553 -129.229 689.785C-160.108 673.912 -190.797 654.643 -225.804 629.148C-257.034 606.402 -287.86 581.501 -320.494 555.139C-331.833 545.978 -343.556 536.509 -355.473 526.991C-444.248 456.084 -540.009 421.341 -665.977 414.347L-665.945 413.762C-603.948 417.206 -550.058 427.24 -501.192 444.434C-449.12 462.757 -401.335 489.613 -355.111 526.536C-343.194 536.056 -331.468 545.526 -320.128 554.683C-253.788 608.271 -196.495 654.551 -128.96 689.265C-125.52 691.033 -122.065 692.808 -118.591 694.588C-44.1623 732.716 51.4065 756.209 150.502 760.743C215.016 763.693 270.761 743.262 324.67 723.503C335.3 719.607 346.288 715.58 357.074 711.84C358.944 711.193 360.815 710.552 362.686 709.915L363.806 709.533C391.158 700.2 427.449 688.823 465.642 683.639C504.339 678.384 540.63 679.889 576.586 688.244C616.691 697.564 658.094 712.959 698.139 727.85C735.786 741.848 774.714 756.323 812.219 765.59C830.596 770.154 848.729 774.115 867.665 777.7C892.893 782.568 917.48 786.632 941.253 790.56C966.215 794.685 992.027 798.953 1018.39 804.126C1073.17 814.874 1131.48 835.5 1191.72 865.429C1250.53 894.891 1307.01 927.447 1359.6 962.194C1367.76 967.591 1382.01 975.791 1398.51 985.288C1441.84 1010.23 1501.18 1044.38 1507.82 1060.89L1507.27 1061.11C1500.72 1044.79 1441.48 1010.69 1398.22 985.794C1381.71 976.292 1367.46 968.086 1359.28 962.682C1306.71 927.946 1250.24 895.402 1191.46 865.952C1131.27 836.047 1073.01 815.436 1018.27 804.699C991.923 799.528 966.115 795.261 941.158 791.138C917.379 787.208 892.793 783.141 867.555 778.274C848.61 774.687 830.463 770.723 812.077 766.156C774.539 756.882 735.592 742.403 697.93 728.398C657.904 713.514 616.516 698.123 576.45 688.816C497.963 670.578 427.953 688.265 363.988 710.09L362.869 710.471C360.998 711.108 359.127 711.746 357.26 712.394C346.482 716.132 335.494 720.159 324.868 724.053C270.903 743.833 215.103 764.285 150.47 761.328C101.621 759.092 53.7715 752.35 8.24022 741.288C1.87998 739.743 -4.41123 738.117 -10.622 736.418L-10.6148 736.416Z" fill="white"/>
<path d="M-39.7463 715.82C-70.8177 707.314 -99.2495 697.306 -124.652 685.915L-125.842 685.382C-128.969 683.981 -132.08 682.587 -135.175 681.199C-213.998 645.91 -281.332 593.338 -359.299 532.463L-366.138 527.125C-457.3 455.974 -553.234 420.778 -677.199 412.998L-677.161 412.371C-553.063 420.158 -457.021 455.399 -365.753 526.631L-358.914 531.968C-280.981 592.815 -213.676 645.367 -134.92 680.625C-131.825 682.012 -128.714 683.406 -125.587 684.807L-124.397 685.341C-54.6643 716.607 38.8554 737.441 146.055 745.598C208.177 750.322 261.733 733.214 313.525 716.668C324.169 713.269 335.173 709.751 345.973 706.526C347.554 706.051 349.14 705.588 350.723 705.121L352.482 704.606C380.903 696.239 414.848 687.191 451.12 683.501C488.78 679.668 523.934 682.146 558.588 691.067C593.858 700.151 630.54 713.967 666.015 727.327C708.615 743.374 752.666 759.967 795.216 768.8C813.634 772.65 831.865 775.738 850.959 778.246C876.958 781.762 902.135 784.19 926.483 786.537C950.627 788.865 975.591 791.271 1001.2 794.733C1056.33 802.178 1115.26 820.958 1176.36 850.551C1234.71 879.068 1291.5 911.868 1345.15 948.04C1353.8 953.869 1368.09 962.349 1384.63 972.163C1427.09 997.348 1485.23 1031.84 1493.08 1049.06L1492.51 1049.32C1484.75 1032.28 1426.7 997.848 1384.32 972.706C1367.76 962.884 1353.46 954.402 1344.8 948.562C1291.18 912.406 1234.41 879.621 1176.09 851.118C1115.05 821.556 1056.18 802.796 1001.12 795.36C975.518 791.904 950.561 789.496 926.424 787.17C902.069 784.821 876.886 782.392 850.876 778.876C831.769 776.366 813.518 773.277 795.087 769.423C752.49 760.579 708.417 743.978 665.791 727.925C630.333 714.569 593.67 700.754 558.431 691.683C479.777 671.433 410.975 688.05 352.66 705.215L350.9 705.733C349.318 706.197 347.735 706.664 346.154 707.136C335.361 710.359 324.358 713.874 313.717 717.273C261.867 733.837 208.252 750.968 146.008 746.233C95.129 742.365 47.2078 735.671 3.57634 726.343C-11.3707 723.147 -25.8222 719.637 -39.7478 715.826L-39.7463 715.82Z" fill="white"/>
<path d="M-75.2078 694.702C-95.2041 689.227 -113.534 683.26 -130.45 676.727C-134.034 675.343 -137.589 673.976 -141.125 672.619C-179.778 657.79 -217.265 638.401 -259.102 611.604C-295.967 587.989 -332.815 560.81 -376.804 527.262C-470.459 455.833 -566.567 420.177 -688.422 411.653L-688.374 410.984C-644.593 414.048 -604.114 420.613 -565.895 431.075C-497.62 449.765 -436.51 480.883 -376.397 526.732C-297.139 587.181 -224.712 639.832 -140.886 671.994C-137.349 673.35 -133.792 674.722 -130.208 676.106C-50.643 706.831 51.8439 720.826 141.606 730.463C201.359 736.878 252.766 723.06 302.479 709.697C313.104 706.839 324.094 703.886 334.874 701.222C336.229 700.884 337.588 700.558 338.945 700.227L341.16 699.688C368.98 692.897 402.075 685.651 436.593 683.398C473.217 681.013 507.236 684.443 540.587 693.901C571.676 702.714 604.191 715.225 635.633 727.324C682.585 745.391 731.134 764.07 778.204 772.021C796.278 775.104 814.61 777.32 834.246 778.803C860.379 780.776 885.542 781.461 909.876 782.126C933.792 782.777 958.521 783.451 984.017 785.349C1039.45 789.479 1098.99 806.411 1161 835.675C1218.13 862.905 1276.82 896.865 1330.7 933.889C1339.78 940.126 1354 948.819 1370.47 958.888C1414.48 985.787 1469.26 1019.27 1478.34 1037.24L1477.74 1037.54C1468.75 1019.74 1411.74 984.897 1370.12 959.457C1353.64 949.386 1339.41 940.688 1330.31 934.44C1276.46 897.437 1217.81 863.494 1160.71 836.281C1098.77 807.051 1039.31 790.141 983.963 786.016C958.483 784.118 933.761 783.446 909.852 782.793C885.508 782.13 860.338 781.443 834.189 779.47C814.533 777.985 796.182 775.765 778.087 772.681C730.949 764.718 682.367 746.024 635.387 727.948C603.957 715.855 571.458 703.35 540.397 694.544C539.544 694.303 538.686 694.064 537.835 693.83C463.993 673.618 397.726 686.562 341.313 700.335L339.094 700.873C337.737 701.204 336.381 701.531 335.026 701.869C324.253 704.535 313.267 707.485 302.645 710.34C252.872 723.72 201.404 737.554 141.526 731.124C82.5353 724.791 38.5381 718.697 -1.12503 711.372C-28.161 706.378 -52.7413 700.853 -75.2142 694.7L-75.2078 694.702Z" fill="white"/>
<path d="M-112.371 674.657C-120.529 672.424 -128.495 670.056 -136.242 667.537C-139.882 666.352 -143.489 665.188 -147.068 664.034C-186.787 651.26 -226.193 633.237 -267.539 608.94C-301.932 588.728 -338.916 563.58 -387.466 527.4C-450.133 480.694 -512.823 449.081 -581.934 430.165C-618.994 420.02 -657.888 413.526 -699.645 410.304L-699.591 409.593C-639.269 414.247 -585.321 425.741 -534.666 444.731C-483.94 463.747 -435.65 490.6 -387.043 526.827C-300.665 591.203 -230.353 636.497 -146.854 663.356C-143.27 664.508 -139.664 665.675 -136.023 666.857C-71.9872 687.687 7.20108 698.094 83.783 708.156C101.315 710.46 119.444 712.842 137.156 715.317C194.555 723.337 243.841 712.783 291.506 702.578C302.094 700.311 313.04 697.967 323.777 695.905C324.966 695.674 326.158 695.451 327.349 695.227C328.179 695.069 329.011 694.916 329.845 694.755C358.466 689.307 389.45 684.151 422.067 683.306C457.652 682.383 490.534 686.772 522.589 696.723C549.965 705.223 577.434 716.088 606.515 727.593C657.37 747.712 709.957 768.514 761.196 775.233C779.442 777.655 797.871 779.002 817.533 779.351C843.912 779.822 869.174 778.727 893.604 777.67C917.187 776.651 941.575 775.596 966.829 775.958C1022.54 776.764 1082.7 791.848 1145.64 820.796C1202.43 847.185 1261.43 881.395 1316.25 919.732C1325.7 926.339 1339.75 935.185 1356.02 945.424C1399.35 972.696 1453.28 1006.64 1463.61 1025.41L1462.99 1025.76C1452.74 1007.15 1398.91 973.26 1355.65 946.031C1339.37 935.784 1325.31 926.937 1315.85 920.32C1261.06 882.007 1202.1 847.818 1145.34 821.449C1082.5 792.545 1022.43 777.48 966.824 776.677C941.591 776.312 917.212 777.366 893.639 778.388C869.199 779.445 843.927 780.542 817.524 780.069C797.836 779.717 779.38 778.368 761.109 775.943C709.781 769.214 657.153 748.396 606.258 728.261C577.19 716.763 549.733 705.9 522.382 697.41C451.312 675.349 388.368 684.349 329.984 695.46C329.151 695.617 328.318 695.774 327.488 695.932C326.3 696.156 325.109 696.379 323.92 696.607C313.189 698.67 302.244 701.014 291.662 703.28C243.937 713.498 194.588 724.064 137.065 716.026C119.357 713.552 101.231 711.17 83.6986 708.867C16.3451 700.016 -53.0274 690.9 -112.365 674.658L-112.371 674.657Z" fill="white"/>
<path d="M-158.473 653.991C-197.817 643.223 -236.312 627.588 -275.981 606.283C-312.424 586.711 -351.24 561.688 -398.132 527.536C-497.154 455.418 -593.603 418.847 -710.868 408.958L-710.804 408.205C-593.394 418.107 -496.824 454.723 -397.686 526.925C-303.108 595.805 -233.281 632.732 -158.504 653.196C-156.61 653.715 -154.723 654.221 -152.821 654.718C-149.195 655.668 -145.532 656.629 -141.84 657.614C-93.7282 670.407 -38.5606 677.205 19.844 684.401C56.9801 688.978 95.3825 693.712 132.708 700.175C187.765 709.711 234.946 702.4 280.576 695.331C291.107 693.7 302.001 692.01 312.683 690.591C313.727 690.452 314.774 690.317 315.82 690.182C316.722 690.064 317.626 689.95 318.528 689.829C344.693 686.365 375.31 682.717 407.537 683.243C442.084 683.807 473.83 689.142 504.586 699.551C528.579 707.671 552.723 717.541 578.282 727.992C632.718 750.248 689.008 773.262 744.182 778.447C762.601 780.209 781.127 780.686 800.811 779.903C827.315 778.851 852.56 775.955 876.976 773.154C900.341 770.473 924.505 767.701 949.634 766.569C1005.61 764.047 1066.39 777.284 1130.28 805.912C1186.76 831.494 1246.07 865.958 1301.8 905.574C1311.54 912.5 1325.3 921.418 1341.24 931.745C1384.01 959.461 1437.24 993.958 1448.87 1013.58L1448.22 1013.97C1436.69 994.495 1383.53 960.053 1340.83 932.378C1324.88 922.046 1311.12 913.123 1301.36 906.188C1245.68 866.598 1186.41 832.161 1129.97 806.599C1066.19 778.019 1005.53 764.802 949.669 767.32C924.566 768.452 900.417 771.22 877.062 773.9C852.632 776.702 827.374 779.598 800.839 780.653C781.117 781.438 762.561 780.96 744.11 779.194C688.823 773.997 632.482 750.961 577.996 728.687C552.449 718.242 528.318 708.375 504.343 700.263C437.176 677.536 375.77 683.014 318.628 690.575C317.726 690.693 316.821 690.81 315.917 690.927C314.87 691.062 313.826 691.198 312.782 691.338C302.107 692.757 291.221 694.442 280.693 696.074C235.004 703.153 187.759 710.473 132.58 700.916C95.2742 694.454 56.8814 689.722 19.7517 685.147C-38.6785 677.946 -93.8693 671.145 -142.032 658.34C-145.728 657.358 -149.388 656.397 -153.014 655.448C-154.833 654.97 -156.657 654.485 -158.475 653.987L-158.473 653.991Z" fill="white"/>
<path d="M-191.026 639.223C-222.427 630.629 -253.231 618.88 -284.422 603.639C-322.804 584.884 -362.326 560.747 -408.794 527.674C-510.706 455.141 -607.33 418.112 -722.091 407.612L-722.017 406.818C-607.108 417.332 -510.364 454.408 -408.33 527.026C-314.195 594.026 -239.566 629.633 -158.791 646.09C-155.299 646.8 -151.531 647.57 -147.654 648.378C-109.383 656.335 -66.513 660.538 -21.1281 664.983C28.1031 669.809 79.0129 674.798 128.266 685.041C180.982 696.006 226.066 691.911 269.662 687.953C280.14 687.002 290.971 686.018 301.597 685.284C302.52 685.221 303.443 685.159 304.368 685.1C305.317 685.037 306.27 684.974 307.221 684.908C334.172 683.03 362.996 681.348 393.006 683.207C426.526 685.283 457.136 691.554 486.589 702.383C507.427 710.044 528.428 718.954 550.662 728.389C608.449 752.911 668.202 778.267 727.167 781.668C745.766 782.771 764.386 782.374 784.088 780.462C810.647 777.882 835.809 773.177 860.145 768.628C883.36 764.288 907.362 759.801 932.437 757.193C988.949 751.312 1050.34 762.702 1114.91 791.045C1170.66 815.514 1230.29 850.228 1287.34 891.429C1297.28 898.601 1311.26 907.929 1326.07 917.804C1368.43 946.057 1421.16 981.219 1434.13 1001.77L1433.45 1002.19C1420.57 981.789 1367.93 946.678 1325.63 918.467C1310.82 908.587 1296.82 899.257 1286.88 892.076C1229.86 850.906 1170.29 816.224 1114.59 791.777C1050.15 763.49 988.892 752.123 932.518 757.989C907.474 760.594 883.486 765.077 860.289 769.414C835.936 773.966 810.753 778.673 784.163 781.259C764.418 783.179 745.758 783.573 727.116 782.467C705.95 781.248 684.683 777.203 663.46 771.395C625.415 760.983 587.479 744.884 550.346 729.128C528.121 719.698 507.133 710.791 486.31 703.137C423.141 679.917 365.576 681.643 307.27 685.71C306.317 685.776 305.364 685.838 304.414 685.901C303.492 685.961 302.57 686.023 301.647 686.086C291.031 686.819 280.204 687.801 269.73 688.752C226.071 692.717 180.929 696.815 128.098 685.827C78.8858 675.593 27.999 670.606 -21.2122 665.781C-66.6228 661.33 -109.512 657.127 -147.825 649.16C-151.699 648.353 -155.467 647.586 -158.959 646.873C-169.742 644.675 -180.424 642.13 -191.033 639.225L-191.026 639.223Z" fill="white"/>
<path d="M-222.109 626.304C-245.925 619.786 -269.366 611.394 -292.863 601.005C-332.313 583.562 -373.723 559.62 -419.457 527.815C-524.418 454.813 -621.217 417.328 -733.315 406.27L-733.232 405.434C-674.551 411.222 -620.54 424.167 -568.116 445.006C-519.326 464.399 -470.543 491.263 -418.977 527.127C-325.835 591.909 -249.809 624.907 -164.766 637.457L-164.431 637.506C-160.824 638.037 -157.173 638.579 -153.478 639.137C-121.933 643.905 -87.2337 646.121 -50.4945 648.465C7.06326 652.137 66.5806 655.935 123.823 669.908C174.185 682.2 217.153 681.298 258.712 680.425C269.147 680.205 279.938 679.979 290.518 679.981C291.342 679.98 292.166 679.982 292.989 679.985C293.964 679.988 294.942 679.992 295.919 679.989C319.445 679.945 348.727 679.889 378.471 683.197C410.968 686.813 440.448 694.015 468.595 705.216C486.42 712.31 504.384 720.252 523.41 728.665C584.392 755.626 647.45 783.504 710.154 784.889C728.94 785.334 747.654 784.068 767.372 781.022C793.938 776.916 818.983 770.402 843.199 764.103C866.299 758.095 890.182 751.885 915.248 747.809C944.292 743.089 975.05 743.301 1006.67 748.444C1036.44 753.285 1067.69 762.612 1099.56 776.164C1155.55 800.237 1215.49 835.198 1272.9 877.272C1282.89 884.595 1296.27 893.777 1310.44 903.496C1352.57 932.402 1405 968.373 1419.4 989.942L1418.7 990.409C1404.4 968.974 1352.04 933.054 1309.97 904.189C1295.79 894.464 1282.4 885.282 1272.4 877.95C1215.04 835.914 1155.16 800.983 1099.22 776.936C1033.54 749.005 971.686 739.485 915.379 748.636C890.349 752.704 866.484 758.911 843.405 764.914C819.168 771.218 794.105 777.735 767.494 781.847C747.73 784.903 728.965 786.171 710.129 785.724C681.988 785.101 651.061 778.99 615.586 767.037C584.217 756.468 553.127 742.723 523.064 729.431C504.047 721.023 486.089 713.085 468.28 705.996C404.528 680.621 346.826 680.731 295.917 680.826C294.937 680.828 293.959 680.824 292.981 680.821C292.157 680.818 291.334 680.816 290.513 680.814C279.943 680.811 269.156 681.038 258.728 681.256C217.118 682.131 174.09 683.033 123.623 670.716C66.4533 656.761 6.97193 652.967 -50.5492 649.297C-87.3052 646.953 -122.024 644.735 -153.605 639.962C-157.3 639.404 -160.949 638.867 -164.555 638.332L-164.89 638.283C-184.329 635.415 -203.338 631.44 -222.112 626.3L-222.109 626.304Z" fill="white"/>
<path d="M-251.25 615.169C-268.083 610.563 -284.711 604.983 -301.303 598.385C-342.142 582.15 -384.276 559.113 -430.119 527.953C-539.764 453.431 -633.797 416.636 -744.54 404.92L-744.447 404.04C-686.306 410.189 -632.276 423.616 -579.262 445.084C-531.322 464.499 -482.375 491.367 -429.626 527.217C-337.014 590.163 -259.593 620.548 -170.743 628.817L-168.385 629.037C-165.39 629.315 -162.362 629.596 -159.3 629.889C-132.607 632.444 -103.664 633.151 -73.0205 633.896C-41.8386 634.656 -9.59611 635.441 22.8813 638.255C59.711 641.443 91.2823 646.85 119.384 654.761C167.339 668.272 208.157 670.521 247.626 672.695C258.066 673.27 268.86 673.866 279.441 674.665C280.159 674.717 280.876 674.776 281.593 674.832C282.602 674.91 283.61 674.988 284.622 675.063L287.923 675.299C312.853 677.082 338.635 678.925 365.739 683.5C396.501 688.692 424.26 696.72 450.599 708.042C465.472 714.433 480.451 721.361 496.308 728.689C560.399 758.316 626.669 788.95 693.138 788.099C712.107 787.883 730.918 785.751 750.644 781.572C777.195 775.95 802.093 767.632 826.167 759.589C849.171 751.904 872.961 743.957 898.049 738.422C927.295 731.972 958.348 730.859 990.349 735.118C1020.33 739.106 1051.9 747.909 1084.2 761.284C1113.02 773.352 1142.94 788.489 1173.12 806.28C1201.52 823.02 1230.23 842.145 1258.45 863.119C1268.31 870.449 1280.88 879.314 1294.19 888.703C1336.31 918.418 1388.73 955.395 1404.66 978.118L1403.94 978.626C1388.1 956.028 1335.74 919.1 1293.68 889.425C1280.37 880.035 1267.79 871.165 1257.92 863.829C1199.78 820.614 1139.59 785.439 1083.85 762.104C1017.2 734.503 954.754 726.828 898.238 739.292C873.196 744.815 849.428 752.756 826.446 760.433C802.349 768.485 777.43 776.81 750.827 782.442C731.043 786.634 712.174 788.773 693.147 788.989C663.327 789.371 630.588 783.301 593.062 770.44C559.954 759.089 527.409 744.048 495.939 729.5C480.085 722.172 465.111 715.25 450.252 708.861C391.458 683.592 336.419 679.659 287.859 676.186L284.558 675.95C283.545 675.878 282.534 675.799 281.525 675.721C280.808 675.666 280.094 675.611 279.376 675.555C268.806 674.758 258.014 674.163 247.577 673.589C208.883 671.456 168.896 669.249 122.137 656.454C121.14 656.18 120.146 655.906 119.144 655.621C56.3828 637.958 -12.3711 636.266 -73.0422 634.789C-103.703 634.044 -132.662 633.336 -159.385 630.778C-162.444 630.486 -165.471 630.205 -168.466 629.927L-170.826 629.71C-198.467 627.138 -225.098 622.334 -251.255 615.175L-251.25 615.169Z" fill="white"/>
<path d="M-278.289 605.647C-288.841 602.758 -299.306 599.469 -309.735 595.771C-351.829 580.841 -394.695 558.701 -440.782 528.091C-520.516 475.133 -590.871 440.996 -663.158 421.209C-693.412 412.926 -723.994 407.163 -755.763 403.574L-755.658 402.653C-698.055 409.158 -644 423.065 -590.4 445.167C-542.798 464.798 -495.094 490.902 -440.267 527.32C-347.863 588.694 -269.043 616.467 -176.717 620.191C-175.257 620.25 -173.79 620.308 -172.313 620.365C-169.939 620.458 -167.541 620.553 -165.125 620.655C-142.056 621.614 -117.324 621.162 -91.1388 620.684C-25.9048 619.495 48.0335 618.154 114.944 639.628C160.38 654.214 198.931 659.55 236.217 664.713C246.768 666.175 257.678 667.685 268.367 669.367C269.003 669.468 269.643 669.57 270.282 669.671C271.295 669.834 272.308 669.994 273.326 670.148C276.636 670.653 279.971 671.152 283.329 671.654C328.088 678.362 378.819 685.968 432.601 710.878C444.523 716.399 456.493 722.208 469.171 728.355C533.206 759.419 605.789 794.629 676.115 791.321C695.271 790.448 714.175 787.442 733.913 782.136C760.435 775.003 785.165 764.888 809.08 755.106C832.005 745.728 855.709 736.032 880.842 729.043C910.285 720.855 941.63 718.412 974.008 721.782C1004.21 724.925 1036.11 733.209 1068.82 746.402C1097.73 758.183 1127.84 773.304 1158.32 791.337C1186.7 808.13 1215.53 827.52 1243.99 848.959C1253.45 856.084 1264.93 864.404 1277.08 873.211C1319.5 903.956 1372.29 942.217 1389.91 966.289L1389.17 966.835C1371.63 942.882 1318.9 904.668 1276.54 873.962C1264.38 865.151 1252.9 856.834 1243.43 849.7C1184.53 805.331 1124.03 769.907 1068.47 747.261C1000.85 719.991 937.81 714.162 881.086 729.933C856.007 736.907 832.327 746.591 809.428 755.959C785.487 765.752 760.73 775.877 734.148 783.024C714.346 788.349 695.375 791.364 676.151 792.241C644.613 793.725 610.022 787.692 570.4 773.799C535.529 761.573 501.586 745.106 468.757 729.183C456.086 723.037 444.116 717.228 432.203 711.712C378.543 686.857 327.882 679.264 283.182 672.566C279.821 672.06 276.487 671.561 273.176 671.06C272.158 670.905 271.142 670.742 270.126 670.581C269.489 670.48 268.85 670.375 268.213 670.277C257.531 668.597 246.624 667.088 236.08 665.627C204.688 661.281 172.389 656.809 135.838 646.807C128.931 644.916 121.879 642.831 114.646 640.509C47.882 619.071 -25.9743 620.421 -91.1368 621.606C-117.335 622.084 -142.084 622.533 -165.18 621.574C-167.596 621.475 -169.994 621.381 -172.367 621.285C-173.845 621.228 -175.315 621.169 -176.775 621.11C-212.095 619.684 -245.585 614.595 -278.307 605.639L-278.289 605.647Z" fill="white"/>
<path d="M-303.306 597.533C-308.279 596.173 -313.224 594.721 -318.163 593.17C-361.416 579.609 -405.014 558.365 -451.445 528.231C-537.973 472.07 -636.091 417.937 -766.99 402.231L-766.876 401.268C-709.808 408.116 -655.728 422.502 -601.547 445.249C-555.14 464.732 -507.276 490.842 -450.92 527.419C-400.052 560.433 -351.821 583.114 -302.781 596.539C-263.845 607.197 -224.411 612.021 -182.701 611.563C-180.603 611.539 -178.484 611.513 -176.349 611.487C-174.564 611.466 -172.765 611.441 -170.954 611.419C-150.648 611.185 -129.071 609.833 -106.229 608.402C-37.3808 604.09 40.6553 599.2 110.504 624.498C153.104 639.926 189.154 648.216 224.021 656.229C235.447 658.856 246.24 661.338 257.303 664.067C257.861 664.204 258.421 664.345 258.981 664.483C259.997 664.734 261.016 664.989 262.04 665.236C267.728 666.601 273.37 667.914 279.34 669.31C320.04 678.809 366.167 689.572 414.607 713.711C423.498 718.139 432.382 722.68 441.791 727.489C508.786 761.726 584.719 800.533 659.096 794.541C678.604 792.994 697.605 789.122 717.186 782.697C743.775 774.085 768.403 762.131 792.219 750.567C814.99 739.512 838.533 728.08 863.644 719.667C893.274 709.739 924.91 705.962 957.671 708.444C988.095 710.75 1020.32 718.516 1053.46 731.529C1082.46 743.033 1112.77 758.132 1143.53 776.405C1171.9 793.259 1200.84 812.91 1229.55 834.813C1238.19 841.405 1248.16 848.824 1258.71 856.679C1301.88 888.79 1355.59 928.754 1375.18 954.471L1374.4 955.059C1354.9 929.451 1301.25 889.532 1258.13 857.459C1247.57 849.603 1237.6 842.183 1228.95 835.586C1168.47 789.434 1109.3 754.727 1053.1 732.437C984.511 705.504 920.868 701.517 863.948 720.594C838.899 728.988 815.382 740.405 792.638 751.446C768.792 763.023 744.134 774.995 717.483 783.626C697.829 790.075 678.754 793.961 659.167 795.513C584.516 801.526 508.454 762.652 441.344 728.359C431.938 723.551 423.053 719.013 414.17 714.583C365.833 690.496 319.76 679.744 279.115 670.258C273.14 668.865 267.496 667.547 261.808 666.182C260.784 665.936 259.761 665.683 258.743 665.428C258.182 665.29 257.625 665.15 257.068 665.013C246.012 662.282 235.221 659.804 223.798 657.178C188.906 649.155 152.824 640.862 110.172 625.411C40.509 600.182 -37.4174 605.064 -106.17 609.371C-129.026 610.802 -150.613 612.155 -170.946 612.39C-172.757 612.412 -174.555 612.433 -176.34 612.455C-178.476 612.483 -180.595 612.509 -182.693 612.533C-225.151 613 -264.774 608.083 -303.31 597.535L-303.306 597.533Z" fill="white"/>
<path d="M-326.503 590.597C-326.528 590.591 -326.554 590.585 -326.579 590.576C-370.931 578.426 -415.261 558.079 -462.104 528.37C-565.451 462.824 -658.76 416.06 -778.213 400.882L-778.085 399.879C-721.552 407.062 -667.446 421.926 -612.683 445.322C-567.092 464.799 -520.484 490.148 -461.564 527.517C-370.023 585.573 -285.863 608.832 -188.68 602.932C-185.921 602.766 -183.124 602.585 -180.294 602.404L-176.782 602.181C-158.608 601.027 -139.438 598.956 -119.144 596.761C-47.3091 588.993 34.1071 580.189 106.072 609.363C144.773 625.055 177.527 635.881 209.201 646.351C221.926 650.558 233.941 654.53 246.244 658.776L247.648 659.26C248.683 659.62 249.718 659.977 250.759 660.328C259.096 663.133 267.482 665.831 276.359 668.692C312.682 680.391 353.849 693.646 396.619 716.548C402.317 719.598 407.973 722.657 413.958 725.896C483.983 763.77 563.352 806.699 642.079 797.765C661.747 795.558 680.845 790.816 700.461 783.266C726.989 773.16 751.423 759.425 775.049 746.139C797.763 733.368 821.245 720.167 846.445 710.294C876.255 698.617 908.178 693.502 941.326 695.096C971.976 696.569 1004.54 703.823 1038.1 716.653C1067.2 727.887 1097.7 742.967 1128.73 761.473C1157.09 778.384 1186.15 798.297 1215.09 820.658C1222.22 826.162 1230.03 832.112 1238.29 838.413C1282.91 872.439 1338.46 914.782 1360.44 942.647L1359.64 943.274C1337.74 915.511 1282.26 873.208 1237.67 839.219C1229.41 832.918 1221.6 826.967 1214.47 821.459C1153.27 774.182 1093.81 739.239 1037.73 717.596C968.159 691.001 903.922 688.86 846.81 711.235C821.676 721.079 798.221 734.267 775.542 747.018C751.882 760.32 727.417 774.074 700.819 784.205C681.123 791.784 661.943 796.548 642.188 798.765C606.929 802.767 568.327 796.692 524.182 780.199C485.578 765.778 448.921 745.952 413.474 726.779C407.489 723.543 401.836 720.484 396.138 717.435C353.448 694.578 312.325 681.336 276.046 669.651C267.166 666.789 258.778 664.09 250.434 661.283C249.39 660.931 248.352 660.571 247.313 660.213L245.913 659.73C233.616 655.485 221.601 651.514 208.883 647.308C177.193 636.831 144.42 626.001 105.687 610.298C33.9603 581.219 -47.3249 590.009 -119.039 597.764C-139.347 599.959 -158.528 602.034 -176.721 603.187L-180.234 603.411C-183.064 603.591 -185.864 603.771 -188.623 603.938C-237.712 606.916 -282.816 602.551 -326.508 590.592L-326.503 590.597Z" fill="white"/>
<path d="M-348.217 584.617C-389.17 573.408 -430.051 554.977 -472.766 528.508C-582.74 460.357 -674.077 415.007 -789.439 399.536L-789.299 398.491C-733.294 406.002 -679.165 421.345 -623.818 445.393C-567.987 469.651 -515.847 500.569 -472.209 527.612C-380.206 584.625 -294.606 605.194 -194.66 594.305C-191.134 593.92 -187.625 593.52 -183.908 593.094L-182.613 592.945C-166.106 591.058 -148.789 588.391 -130.456 585.564C-56.0863 574.104 28.2067 561.113 101.64 594.228C127.66 605.962 150.543 616.009 172.669 625.726C194.272 635.213 214.676 644.172 235.193 653.482L236.404 654.03C237.428 654.496 238.452 654.964 239.486 655.418C250.846 660.448 262.48 665.282 274.793 670.398C307.832 684.125 341.994 698.317 378.634 719.373C380.88 720.665 383.141 721.966 385.413 723.274C454.977 763.313 541.552 813.144 625.063 800.975C644.895 798.106 664.087 792.494 683.739 783.821C710.209 772.228 734.44 756.721 757.873 741.726C780.526 727.229 803.949 712.242 829.249 700.911C859.232 687.483 891.439 681.031 924.975 681.734C955.863 682.383 988.756 689.123 1022.74 701.767C1078.82 722.815 1138.67 758.052 1200.65 806.499C1204.95 809.859 1209.45 813.362 1214.09 816.978C1258.99 851.955 1320.49 899.857 1345.71 930.817L1344.89 931.486C1319.74 900.62 1258.3 852.76 1213.44 817.813C1208.8 814.196 1204.3 810.694 1200 807.334C1138.11 758.949 1078.34 723.767 1022.37 702.756C951.811 676.506 886.981 676.212 829.68 701.874C804.454 713.174 781.061 728.142 758.441 742.616C734.973 757.633 710.706 773.162 684.162 784.785C664.423 793.499 645.142 799.138 625.216 802.019C587.851 807.466 546.978 801.258 500.262 783.043C459.586 767.185 419.901 744.342 384.889 724.191C382.616 722.883 380.355 721.582 378.109 720.29C341.529 699.267 307.398 685.087 274.389 671.376C262.066 666.258 250.43 661.42 239.058 656.384C238.021 655.926 236.994 655.457 235.967 654.991L234.759 654.443C214.245 645.137 193.844 636.176 172.247 626.693C150.117 616.975 127.236 606.925 101.209 595.19C28.0596 562.203 -56.0661 575.168 -130.293 586.607C-148.636 589.435 -165.96 592.104 -182.491 593.992L-183.787 594.141C-187.507 594.566 -191.019 594.968 -194.545 595.354C-244.798 600.829 -290.737 598.421 -334.985 587.987C-339.398 586.946 -343.809 585.825 -348.217 584.617Z" fill="white"/>
<path d="M-368.689 579.427C-406.547 569.064 -444.313 552.334 -483.429 528.648C-580.661 469.775 -678.09 415.494 -800.665 398.189L-800.512 397.104C-771.183 401.244 -743.017 407.41 -714.403 415.949C-688.164 423.782 -662.178 433.435 -634.956 445.463C-582.092 468.817 -530.613 498.794 -482.86 527.712C-390.247 583.791 -303.207 601.666 -200.644 585.68C-196.594 585.047 -192.395 584.364 -188.442 583.716C-173.258 581.226 -157.4 578.051 -140.611 574.688C-101.934 566.946 -61.9381 558.939 -21.2626 557.29C25.2697 555.405 64.0209 562.54 97.2054 579.103C147.418 604.162 186.419 626.553 224.137 648.208L225.05 648.732C226.101 649.335 227.151 649.94 228.207 650.534C243.239 658.973 259.003 667.051 275.689 675.601C302.86 689.524 330.956 703.92 360.639 722.223C427.551 763.476 519.188 819.972 608.034 804.209C628.033 800.682 647.321 794.2 667.001 784.4C693.41 771.33 717.44 754.065 740.677 737.37C763.271 721.134 786.633 704.349 812.041 691.553C842.187 676.372 874.676 668.578 908.603 668.391C939.731 668.22 972.962 674.448 1007.37 686.902C1063.37 707.335 1123.54 742.817 1186.2 792.361C1228.98 826.19 1300.6 882.81 1330.96 919.009L1330.12 919.716C1299.83 883.605 1228.27 827.027 1185.52 793.225C1122.95 743.753 1062.89 708.331 1007 687.938C935.449 662.037 870.022 663.583 812.537 692.537C787.205 705.294 763.879 722.056 741.321 738.266C718.047 754.99 693.981 772.281 667.493 785.39C647.718 795.239 628.332 801.749 608.227 805.296C569.222 812.217 526.711 806.111 478.264 786.634C434.418 769.004 391.443 742.51 360.062 723.165C330.413 704.887 302.335 690.498 275.185 676.587C258.487 668.03 242.718 659.948 227.667 651.501C226.608 650.907 225.552 650.3 224.502 649.694L223.588 649.17C185.885 627.525 146.899 605.141 96.7133 580.098C22.6516 543.136 -63.9704 560.478 -140.398 575.777C-157.197 579.141 -173.062 582.317 -188.267 584.809C-192.223 585.456 -196.423 586.142 -200.476 586.774C-251.826 594.779 -298.571 594.334 -343.386 585.416C-351.835 583.736 -360.267 581.744 -368.688 579.438L-368.689 579.427Z" fill="white"/>
<path d="M-388.082 574.897C-423.148 565.301 -458.115 550.069 -494.088 528.787C-580.869 477.449 -657.308 434.877 -744.42 411.033C-766.143 405.089 -788.511 400.309 -811.888 396.844L-811.722 395.714C-782.477 400.05 -754.296 406.455 -725.563 415.304C-699.503 423.329 -673.505 433.213 -646.089 445.527C-594.339 468.766 -544.387 497.706 -493.508 527.805C-400.154 583.034 -311.675 598.223 -206.63 577.051C-202.294 576.177 -197.954 575.261 -194.277 574.479C-180.139 571.472 -165.428 567.852 -149.854 564.017C-112.103 554.729 -69.3159 544.197 -27.7113 541.407C19.9477 538.208 59.3559 545.589 92.7725 563.971C134.364 586.851 167.319 610.335 199.192 633.049C203.739 636.291 208.441 639.641 213.082 642.928L213.722 643.383C214.789 644.137 215.854 644.894 216.93 645.64C236.749 659.388 258.205 672.468 280.918 686.318C300.795 698.437 321.345 710.972 342.649 725.057C417.281 774.401 504.176 825.533 591.01 807.424C611.176 803.235 630.561 795.888 650.272 784.961C676.618 770.423 700.443 751.409 723.48 733.02C746.011 715.037 769.31 696.442 794.835 682.171C825.134 665.236 857.901 656.102 892.224 655.019C923.601 654.03 957.171 659.747 991.999 672.014C1047.94 691.851 1108.42 727.575 1171.74 778.198C1242.83 835.025 1291.43 878.421 1316.22 907.176L1315.35 907.921C1290.62 879.221 1242.06 835.873 1171.03 779.09C1107.81 728.546 1047.45 692.885 991.623 673.089C919.086 647.543 853.065 650.931 795.393 683.163C769.947 697.384 746.687 715.951 724.193 733.905C701.116 752.322 677.257 771.369 650.823 785.954C631.011 796.939 611.52 804.326 591.241 808.537C570.39 812.883 548.11 813.378 525.023 809.999C504.608 807.013 482.777 800.879 460.132 791.76C418.208 774.881 378.586 750.179 342.017 726C320.731 711.925 300.186 699.399 280.321 687.283C257.594 673.422 236.127 660.333 216.278 646.568C215.199 645.822 214.13 645.064 213.062 644.306L212.422 643.851C207.78 640.564 203.075 637.213 198.528 633.971C166.681 611.277 133.752 587.808 92.2206 564.963C17.679 523.959 -71.1832 545.824 -149.583 565.118C-165.167 568.954 -179.889 572.575 -194.041 575.586C-197.718 576.368 -202.065 577.286 -206.406 578.162C-258.808 588.723 -306.361 590.244 -351.774 582.818C-363.918 580.832 -376.008 578.196 -388.084 574.89L-388.082 574.897Z" fill="white"/>
<path d="M-406.568 570.913C-439.109 562.006 -471.551 548.111 -504.745 528.926L-507.61 527.268C-612.7 466.527 -703.462 414.068 -823.114 395.494L-822.932 394.324C-768.168 402.824 -715.964 418.907 -658.639 444.939C-607.531 468.147 -558.707 496.365 -507.02 526.242L-504.154 527.9C-409.958 582.341 -320.043 594.838 -212.611 568.424C-209.008 567.538 -205.037 566.527 -200.109 565.243C-186.82 561.783 -173.027 557.762 -158.426 553.505C-119.871 542.263 -76.1705 529.52 -33.7349 525.546C14.9298 520.988 54.8626 528.607 88.3456 548.841C126.563 571.938 156.44 597.983 185.334 623.171C190.798 627.933 196.446 632.858 202.032 637.655L202.246 637.838C203.38 638.813 204.515 639.784 205.659 640.747C232.573 663.413 263.068 684.73 295.354 707.299C304.88 713.957 314.735 720.845 324.668 727.889C394.571 777.453 486.08 831.653 573.994 810.641C594.327 805.794 613.808 797.58 633.55 785.526C659.838 769.528 683.453 748.775 706.291 728.702C728.758 708.958 751.988 688.541 777.643 672.796C808.088 654.111 841.13 643.633 875.852 641.656C907.486 639.853 941.4 645.06 976.648 657.137C1032.56 676.394 1093.34 712.362 1157.3 764.047C1218.97 813.877 1272.87 862.962 1301.49 895.354L1300.6 896.138C1272.03 863.793 1218.18 814.759 1156.56 764.968C1092.7 713.372 1032.04 677.467 976.262 658.257C902.731 633.069 836.113 638.3 778.261 673.808C752.695 689.499 729.501 709.881 707.071 729.592C684.195 749.697 660.539 770.485 634.164 786.537C614.316 798.658 594.724 806.92 574.267 811.793C553.178 816.832 530.682 817.847 507.401 814.804C486.7 812.1 464.686 806.089 441.973 796.941C396.883 778.78 355.229 751.014 323.98 728.857C314.049 721.817 304.198 714.929 294.672 708.27C262.366 685.687 231.851 664.355 204.893 641.657C203.747 640.693 202.61 639.714 201.473 638.739L201.259 638.556C195.67 633.755 190.018 628.829 184.556 624.064C155.701 598.911 125.864 572.899 87.7346 549.856C13.0768 504.735 -77.8624 531.248 -158.093 554.643C-172.704 558.902 -186.505 562.928 -199.808 566.391C-204.744 567.677 -208.721 568.686 -212.328 569.575C-265.753 582.709 -314.104 586.201 -360.148 580.243C-375.7 578.232 -391.147 575.132 -406.57 570.909L-406.568 570.913Z" fill="white"/>
<path d="M455.354 812.86C444.998 810.026 434.447 806.452 423.768 802.152C387.709 787.636 349.169 764.596 305.938 731.712C261.198 697.681 224.955 668.506 193.511 636.739C192.371 635.584 191.244 634.43 190.099 633.251C184.261 627.24 178.375 621.036 172.682 615.037C146.241 587.171 118.898 558.356 83.2434 534.744C8.78465 485.436 -84.1265 516.699 -166.097 544.281C-179.916 548.931 -192.969 553.323 -205.578 557.193C-210.345 558.658 -214.489 559.898 -218.252 560.984C-272.602 576.693 -321.74 582.129 -368.473 577.609C-417.735 572.844 -465.794 556.967 -515.402 529.071C-521.227 525.768 -527.019 522.479 -532.78 519.203C-629.149 464.419 -720.171 412.675 -834.338 394.155L-834.144 392.944C-781.921 401.418 -731.97 416.894 -676.941 441.646C-627.986 463.671 -581.449 490.125 -532.177 518.136C-526.416 521.411 -520.628 524.7 -514.802 528.003C-484.495 545.045 -454.579 557.669 -424.376 565.937C-359.522 583.69 -293.286 581.393 -218.594 559.809C-214.837 558.723 -210.7 557.484 -205.941 556.023C-193.347 552.157 -180.304 547.767 -166.492 543.118C-127.172 529.887 -82.6084 514.891 -39.425 509.701C10.164 503.742 50.507 511.599 83.9164 533.723C119.688 557.412 147.079 586.278 173.566 614.196C179.256 620.193 185.14 626.393 190.976 632.398C192.121 633.576 193.245 634.727 194.383 635.878C225.778 667.596 261.981 696.739 306.681 730.737C369.412 778.45 463.605 838.98 556.97 813.87C577.473 808.365 597.048 799.28 616.821 786.1C643.048 768.652 666.459 746.166 689.095 724.423C711.494 702.908 734.655 680.664 760.443 663.433C791.027 642.996 824.342 631.174 859.463 628.298C891.361 625.685 925.62 630.384 961.284 642.263C1017.17 660.951 1078.26 697.164 1142.85 749.9C1196.41 793.625 1252.9 846.08 1286.75 883.536L1285.84 884.358C1252.02 846.944 1195.59 794.538 1142.08 750.85C1077.6 698.211 1016.64 662.067 960.89 643.428C886.372 618.605 819.153 625.677 761.122 664.455C735.425 681.627 712.303 703.832 689.942 725.312C667.267 747.094 643.818 769.615 617.499 787.126C597.615 800.382 577.92 809.519 557.289 815.059C535.963 820.795 513.244 822.334 489.761 819.629C478.605 818.345 467.106 816.082 455.359 812.868L455.354 812.86Z" fill="white"/>
<path d="M435.523 817.573C389.553 804.992 340.216 777.282 287.893 734.561C245.558 700 210.961 666.388 182.127 631.811C181.057 630.524 179.996 629.23 178.935 627.935C173.093 620.786 167.227 613.372 161.558 606.202C137.335 575.577 112.29 543.913 78.7474 519.622C4.76132 466.048 -94.2299 503.732 -173.77 534.01C-186.919 539.015 -199.338 543.742 -211.351 547.983C-216.07 549.648 -220.267 551.089 -224.181 552.381C-279.518 570.698 -329.455 578.113 -376.851 575.054C-398.541 573.651 -419.975 570.06 -441.355 564.206C-469.498 556.505 -497.557 544.89 -526.065 529.199C-537.326 522.976 -548.584 516.681 -559.469 510.598C-651.004 459.423 -737.467 411.092 -845.569 392.797L-845.359 391.547C-737.042 409.876 -650.488 458.262 -558.85 509.491C-547.966 515.577 -536.711 521.868 -525.453 528.09C-429.188 581.068 -336.394 588.191 -224.58 551.177C-220.672 549.883 -216.483 548.447 -211.775 546.783C-199.777 542.549 -187.364 537.824 -174.222 532.82C-134.159 517.568 -88.7518 500.282 -44.8613 493.847C5.60039 486.448 46.2762 494.542 79.4903 518.59C113.178 542.982 138.278 574.718 162.552 605.409C168.219 612.575 174.082 619.985 179.919 627.127C180.977 628.42 182.039 629.712 183.104 630.993C211.885 665.505 246.425 699.06 288.696 733.573C383.026 810.585 467.559 838.682 539.945 817.088C560.618 810.925 580.288 800.975 600.089 786.667C626.258 767.773 649.457 743.57 671.894 720.163C694.22 696.868 717.309 672.782 743.234 654.057C773.951 631.874 807.537 618.708 843.055 614.93C875.223 611.507 909.83 615.693 945.907 627.38C975.764 637.07 1007.39 652.05 1039.91 671.909C1068.24 689.213 1098.01 710.691 1128.4 735.744C1175.82 774.855 1229.51 825.681 1272 871.71L1271.07 872.571C1228.61 826.583 1174.97 775.798 1127.59 736.724C1062.5 683.056 1001.25 646.676 945.517 628.59C869.996 604.134 802.19 613.051 743.975 655.09C718.142 673.748 695.093 697.79 672.807 721.043C650.331 744.492 627.092 768.736 600.826 787.699C580.909 802.092 561.113 812.104 540.303 818.31C507.73 828.027 472.726 827.757 435.519 817.576L435.523 817.573Z" fill="white"/>
<path d="M415.692 822.286C406.317 819.719 396.824 816.51 387.214 812.658C366.78 804.463 345.749 793.289 324.701 779.454C306.355 767.391 287.901 753.247 269.845 737.412C232.778 704.907 199.438 667.72 170.746 626.887C163.981 617.26 157.288 607.151 150.815 597.376C128.727 564.013 105.883 529.517 74.2466 504.509C41.6462 478.739 1.04437 470.498 -49.8806 479.312C-94.3055 487.001 -140.48 506.582 -181.22 523.861C-198.494 531.187 -214.806 538.104 -230.11 543.796C-286.406 564.731 -337.144 574.126 -385.216 572.518C-409.697 571.699 -433.811 568.042 -457.848 561.463C-484.09 554.281 -510.244 543.618 -536.727 529.35C-552.806 520.689 -568.756 511.879 -584.181 503.36C-671.504 455.129 -753.986 409.573 -856.797 391.461L-856.57 390.166C-753.542 408.319 -670.968 453.926 -583.546 502.21C-568.124 510.728 -552.177 519.537 -536.104 528.193C-438.886 580.56 -344.656 584.993 -230.566 542.565C-215.292 536.883 -198.991 529.971 -181.732 522.651C-140.926 505.347 -94.6795 485.732 -50.1039 478.016C1.20957 469.136 42.1522 477.462 75.0628 503.48C106.865 528.616 129.765 563.203 151.912 596.65C158.38 606.418 165.068 616.518 171.823 626.132C200.456 666.882 233.727 703.989 270.715 736.425C322.329 781.69 423.725 852.777 522.921 820.317C578.116 802.257 617.049 758.374 654.702 715.935C676.954 690.854 699.965 664.92 726.038 644.691C748.25 627.457 772.118 615.043 796.975 607.79C820.185 601.017 844.871 598.566 870.348 600.503C893.907 602.297 918.767 607.896 944.239 617.143C967.512 625.591 991.927 637.315 1016.8 651.991C1059.15 676.966 1102.93 710.198 1150.66 753.577C1190.36 789.661 1225.36 825.996 1257.28 859.884L1256.32 860.784C1183.73 783.695 1104.39 705.182 1016.14 653.119C903.5 586.676 806.17 584.189 726.845 645.726C700.87 665.879 677.9 691.766 655.685 716.804C636.831 738.056 617.335 760.03 595.993 778.542C572.018 799.339 548.25 813.41 523.33 821.564C489.919 832.496 453.823 832.721 415.695 822.287L415.692 822.286Z" fill="white"/>
</g>
<defs>
<clipPath id="clip0_17_16">
<rect width="1440" height="1024" fill="white"/>
</clipPath>
</defs>
</svg>
