<svg width="1440" height="1024" viewBox="0 0 1440 1024" fill="none" xmlns="http://www.w3.org/2000/svg">
<g clip-path="url(#clip0_17_16)">
<rect width="1440" height="1024" fill="#66D076"/>
<path d="M324.936 486.974C312.153 483.477 299.429 479.045 286.782 473.681C246.051 456.411 205.743 429.352 166.983 393.263C130.171 358.986 96.949 320.187 64.8226 282.664C31.7815 244.074 -2.3834 204.169 -40.4739 169.171C-137.484 80.033 -245.438 66.6276 -347.644 65.4165L-347.64 65.0877C-281.287 65.8727 -229.014 72.7529 -183.133 86.7443C-129.312 103.155 -82.5724 130.038 -40.2499 168.926C-2.14563 203.937 32.0275 243.851 65.0743 282.445C97.1957 319.961 130.409 358.754 167.21 393.019C251.005 471.042 338.828 505.214 428.242 494.586C507.812 485.129 577.92 443.74 645.719 403.716C655.244 398.091 665.092 392.278 674.747 386.686C722.148 359.236 761.835 340.975 799.65 329.218C846.013 314.8 890.493 309.916 935.63 314.281C981.791 318.748 1029.71 330.966 1082.12 351.634C1131.44 371.085 1178.93 395.787 1218.88 417.384C1303.34 463.047 1387.74 512.147 1469.36 559.629C1490.83 572.116 1513.02 585.032 1534.88 597.682C1582.66 625.341 1639.33 657.955 1697.32 690.116C1701.93 692.676 1712.67 697.776 1726.26 704.233C1771.81 725.873 1848.03 762.093 1847.22 774.823L1846.89 774.802C1847.24 769.404 1832.69 758.703 1803.65 743C1778.94 729.633 1748.41 715.124 1726.11 704.53C1712.52 698.069 1701.78 692.964 1697.16 690.402C1639.17 658.238 1582.5 625.624 1534.71 597.964C1512.86 585.311 1490.66 572.398 1469.19 559.911C1387.57 512.429 1303.18 463.332 1218.72 417.671C1157.88 384.777 1089.29 349.796 1015.78 329.676C989.626 322.519 962.869 317.242 935.594 314.603C833.11 304.689 746.303 345.62 674.906 386.965C665.25 392.556 655.403 398.37 645.877 403.994C578.05 444.039 507.912 485.445 428.273 494.909C393.779 499.007 359.16 496.335 324.934 486.967L324.936 486.974Z" fill="white"/>
<path d="M316.255 470.136C304.879 467.023 293.542 463.249 282.258 458.815C240.781 442.518 200.042 417.37 161.168 384.071C158.035 381.387 154.803 378.572 151.562 375.709C115.418 343.761 82.1344 307.495 49.9431 272.415C18.0964 237.714 -14.833 201.828 -51.143 169.31C-102.114 123.469 -156.375 97.4547 -210.122 82.7402C-261.244 68.7473 -311.895 64.9745 -358.867 64.0742L-358.86 63.7022C-293.039 64.9616 -240.746 72.3143 -194.292 86.833C-140.664 103.593 -93.7611 130.48 -50.8943 169.031C-14.5705 201.561 18.3646 237.452 50.2162 272.161C82.4001 307.229 115.677 343.494 151.807 375.428C155.048 378.292 158.28 381.106 161.411 383.787C244.147 454.662 334.871 487.741 423.777 479.45C500.732 472.272 568.258 434.544 633.56 398.056C643.422 392.546 653.624 386.846 663.627 381.384C666.281 379.936 668.917 378.51 671.468 377.146C716.024 353.268 753.473 337.542 789.322 327.649C833.155 315.556 875.121 312.108 917.62 317.111C954.234 321.424 992.825 330.803 1035.59 345.792C1075.22 359.678 1113.15 376.451 1148.24 392.505C1164.14 399.786 1180.78 407.631 1202.18 417.942C1251.29 441.636 1301.36 466.536 1355.27 494.069C1404.89 519.411 1458.62 548.438 1519.52 582.81C1582.19 618.244 1634.1 647.843 1682.87 675.965C1688.13 679.004 1699.75 684.711 1714.45 691.934C1736.31 702.678 1766.25 717.393 1790.07 730.718C1818.4 746.566 1832.27 757.128 1832.49 763.007L1832.12 763.02C1831.64 749.942 1758.17 713.839 1714.28 692.266C1699.57 685.038 1687.95 679.33 1682.68 676.285C1633.91 648.164 1582.01 618.561 1519.34 583.132C1458.44 548.761 1404.72 519.737 1355.1 494.396C1301.19 466.864 1251.12 441.964 1202.02 418.272C1180.62 407.959 1163.98 400.117 1148.09 392.837C1079.43 361.421 999.339 327.101 917.574 317.474C820.778 306.075 738.935 341.407 671.641 377.468C669.094 378.83 666.458 380.255 663.804 381.704C653.801 387.162 643.603 392.862 633.74 398.373C568.403 434.88 500.842 472.63 423.812 479.814C387.989 483.156 351.942 479.9 316.253 470.132L316.255 470.136Z" fill="white"/>
<path d="M306.52 453.112C244.085 436.023 192.48 403.983 155.361 374.874C152.232 372.42 148.947 369.812 145.6 367.119C105.66 334.997 70.4765 299.187 33.2248 261.271C3.15966 230.672 -27.9289 199.027 -61.8114 169.443C-142.733 98.2205 -234.928 66.3037 -370.091 62.7283L-370.081 62.3135C-304.8 64.042 -252.486 71.8635 -205.448 86.9188C-152.036 104.02 -104.965 130.911 -61.5386 169.132C-27.6456 198.728 3.44936 230.375 33.5195 260.981C70.7605 298.885 105.936 334.69 145.858 366.798C149.202 369.489 152.487 372.097 155.614 374.548C213.188 419.698 305.675 471.921 419.319 464.306C493.706 459.322 558.736 425.171 621.625 392.145C631.758 386.823 642.235 381.321 652.512 376.073C655.062 374.773 657.625 373.475 660.13 372.222C703.741 350.325 740.17 336.079 774.771 327.386C817.576 316.63 858.413 314.194 899.611 319.937C973.606 330.249 1045.51 360.119 1115.05 389.007C1120.47 391.259 1125.86 393.499 1131.24 395.722C1149.34 403.218 1166.51 410.469 1185.49 418.493C1247.9 444.986 1293.54 464.776 1338.1 484.682C1390.1 507.903 1445.97 535.915 1504.16 567.934C1566.17 602.167 1619.89 632.874 1668.41 661.813C1674.31 665.331 1686.6 671.572 1702.16 679.473C1747.5 702.495 1816.01 737.288 1817.76 751.184L1817.35 751.236C1816.6 745.306 1802.63 734.444 1775.82 718.958C1752.76 705.633 1724.6 691.334 1701.97 679.841C1686.4 671.935 1674.11 665.693 1668.2 662.165C1619.69 633.23 1565.96 602.524 1503.96 568.295C1445.78 536.278 1389.92 508.272 1337.93 485.057C1293.37 465.156 1247.73 445.362 1185.32 418.873C1166.35 410.85 1149.18 403.598 1131.08 396.103C1125.7 393.88 1120.31 391.636 1114.89 389.388C1045.37 360.508 973.494 330.651 899.551 320.347C806.314 307.353 726.292 339.469 660.311 372.596C657.805 373.849 655.247 375.144 652.697 376.445C642.423 381.69 631.947 387.193 621.814 392.514C558.887 425.559 493.815 459.731 419.343 464.722C378.846 467.434 341.021 462.556 306.513 453.113L306.52 453.112Z" fill="white"/>
<path d="M294.86 435.619C287.598 433.63 280.356 431.438 273.13 429.04C229.964 414.708 188.384 393.392 149.551 365.68C146.413 363.442 143.174 361.104 139.638 358.533C94.5898 325.753 54.8449 287.913 12.7649 247.855C-14.3544 222.038 -42.3972 195.341 -72.4764 169.58C-155.782 98.2354 -248.143 65.8774 -381.31 61.3833L-381.294 60.9263C-316.705 63.1063 -264.399 71.4238 -216.683 87.1045C-163.622 104.539 -116.354 131.405 -72.179 169.234C-42.0917 195.003 -14.0424 221.702 13.0825 247.524C55.1511 287.572 94.8885 325.401 139.91 358.164C143.443 360.734 146.685 363.073 149.82 365.31C207.003 406.116 299.406 453.787 414.865 449.166C486.731 446.29 549.343 415.65 609.896 386.018C620.231 380.961 630.919 375.729 641.403 370.767C643.899 369.585 646.385 368.421 648.799 367.302C691.461 347.413 726.869 334.655 760.228 327.149C802.003 317.753 841.705 316.316 881.605 322.764C943.561 332.775 1005.12 356.748 1064.65 379.935C1080.98 386.296 1097.87 392.876 1114.24 398.942C1130.45 404.966 1149.62 412.065 1168.79 419.051C1180.73 423.426 1192.7 427.791 1204.27 432.015C1244 446.511 1281.53 460.203 1320.93 475.298C1374.11 495.67 1430.59 521.836 1488.8 553.066C1550.18 586.145 1604.2 617.088 1653.96 647.665C1660.47 651.662 1673.91 658.714 1689.48 666.875C1733.5 689.962 1800.04 724.851 1803.02 739.368L1802.58 739.461C1799.63 725.159 1733.21 690.33 1689.26 667.28C1673.69 659.114 1660.24 652.061 1653.72 648.054C1603.96 617.484 1549.95 586.544 1488.58 553.469C1430.39 522.25 1373.93 496.095 1320.76 475.727C1281.36 460.633 1243.84 446.941 1204.11 432.445C1192.53 428.225 1180.57 423.857 1168.63 419.481C1149.45 412.495 1130.29 405.397 1114.08 399.373C1097.71 393.307 1080.81 386.728 1064.48 380.364C1004.97 357.186 943.436 333.221 881.529 323.217C791.818 308.724 713.635 337.581 648.986 367.721C646.572 368.841 644.087 370.005 641.594 371.187C631.112 376.15 620.428 381.379 610.093 386.436C549.499 416.089 486.845 446.75 414.881 449.63C374.933 451.23 334.657 446.524 294.858 435.629L294.86 435.619Z" fill="white"/>
<path d="M280.88 417.689C276.753 416.559 272.638 415.377 268.527 414.136C224.365 400.794 182.385 381.399 143.745 356.49C140.629 354.483 137.339 352.341 133.68 349.951C82.6475 316.58 37.558 276.235 -10.1792 233.525C-33.5161 212.642 -57.6472 191.051 -83.1463 169.72C-168.583 98.2333 -261.112 65.4331 -392.534 60.0409L-392.515 59.5407C-361.476 60.8126 -333.523 63.5357 -307.052 67.8596C-278.744 72.4834 -252.84 78.8175 -227.858 87.2197C-175.094 104.967 -127.657 131.828 -82.8273 169.338C-57.3233 190.677 -33.1897 212.272 -9.8496 233.156C37.8731 275.856 82.9455 316.187 133.949 349.538C137.608 351.928 140.899 354.066 144.011 356.076C223.728 407.472 318.332 435.159 410.402 434.031C479.785 433.18 540.048 405.992 598.331 379.696C608.814 374.966 619.652 370.077 630.286 365.465C632.701 364.417 635.114 363.381 637.462 362.388C679.748 344.287 713.126 333.355 745.684 326.942C786.424 318.919 824.994 318.479 863.597 325.597C916.523 335.358 969.986 355.474 1021.69 374.925C1046.61 384.302 1072.38 393.997 1097.23 402.162C1115.86 408.301 1134.31 414.168 1152.08 419.603C1172.51 425.906 1192.72 431.97 1212.26 437.834C1241.98 446.75 1272.7 455.968 1303.75 465.909C1357.63 483.164 1414.73 507.481 1473.44 538.19C1533.34 569.701 1589.21 601.771 1639.51 633.511C1646.6 637.984 1660.43 645.471 1676.45 654.142C1721.88 678.724 1784.08 712.391 1788.29 727.545L1787.81 727.677C1783.66 712.727 1719 677.734 1676.22 654.579C1660.19 645.906 1646.35 638.414 1639.24 633.931C1588.95 602.197 1533.09 570.133 1473.21 538.628C1414.52 507.936 1357.46 483.628 1303.6 466.383C1272.55 456.442 1241.83 447.222 1212.12 438.309C1192.58 432.446 1172.37 426.382 1151.94 420.078C1134.17 414.642 1115.71 408.774 1097.08 402.635C1072.22 394.468 1046.44 384.768 1021.51 375.39C969.832 355.944 916.393 335.839 863.51 326.085C777.534 310.228 704.152 334.381 637.662 362.844C635.316 363.837 632.904 364.873 630.488 365.922C619.858 370.531 609.022 375.423 598.541 380.151C540.212 406.467 479.901 433.678 410.414 434.528C367.147 435.056 323.633 429.398 280.878 417.696L280.88 417.689Z" fill="white"/>
<path d="M263.146 399C218.609 386.808 176.182 369.391 137.944 347.298C134.959 345.573 131.714 343.69 127.728 341.367C69.2878 307.31 17.5463 263.524 -37.2333 217.166C-55.4378 201.761 -74.263 185.83 -93.8078 169.854C-180.297 99.1509 -275.887 64.8673 -403.754 58.6927L-403.728 58.1503C-341.167 61.1709 -287.293 70.7132 -239.025 87.3268C-186.591 105.373 -138.978 132.229 -93.4666 169.434C-73.9193 185.414 -55.0941 201.344 -36.8872 216.753C17.873 263.094 69.5975 306.866 127.998 340.9C131.985 343.224 135.23 345.106 138.215 346.831C215.964 391.748 311.049 417.337 405.956 418.886C472.888 419.978 530.867 396.189 586.935 373.184C597.51 368.844 608.449 364.356 619.182 360.153C621.453 359.264 623.728 358.389 625.999 357.513L626.136 357.46C691.548 332.274 763.408 311.324 845.596 328.418C891.451 337.956 938.35 355.365 983.702 372.2C1015.56 384.028 1048.51 396.257 1080.23 405.373C1098.7 410.701 1116.74 415.535 1135.38 420.146C1159.09 426.089 1182.35 431.515 1204.84 436.764C1231.34 442.944 1258.73 449.335 1286.57 456.514C1340.96 470.542 1398.66 493.014 1458.08 523.304C1517.41 553.76 1573.58 586.074 1625.06 619.347C1632.7 624.288 1646.8 632.16 1663.13 641.274C1707.45 666.011 1768.14 699.894 1773.56 715.712L1773.05 715.888C1767.69 700.267 1707.11 666.446 1662.87 641.749C1646.53 632.63 1632.42 624.753 1624.77 619.805C1573.3 586.542 1517.14 554.238 1457.84 523.79C1398.45 493.514 1340.79 471.051 1286.44 457.039C1258.61 449.858 1231.21 443.47 1204.72 437.291C1182.22 432.045 1158.96 426.618 1135.25 420.675C1116.6 416.058 1098.56 411.223 1080.09 405.894C1048.34 396.774 1015.39 384.54 983.515 372.709C938.182 355.882 891.304 338.481 845.489 328.949C763.435 311.882 691.668 332.809 626.334 357.965L626.197 358.018C623.926 358.894 621.651 359.77 619.383 360.66C608.654 364.86 597.719 369.346 587.143 373.685C531.023 396.713 472.996 420.524 405.95 419.43C357.627 418.639 309.258 411.624 263.149 399.004L263.146 399Z" fill="white"/>
<path d="M240.385 379.416C201.025 368.644 164.693 354.783 132.142 338.109C128.665 336.329 125.21 334.553 121.771 332.785C90.8918 316.912 60.2034 297.643 25.1959 272.148C-6.03361 249.402 -36.8601 224.501 -69.4939 198.139C-80.8331 188.978 -92.5561 179.509 -104.473 169.991C-193.248 99.0842 -289.009 64.3411 -414.977 57.347L-414.945 56.7623C-352.948 60.2063 -299.058 70.2401 -250.192 87.4339C-198.12 105.757 -150.335 132.613 -104.111 169.536C-92.194 179.056 -80.4679 188.526 -69.1279 197.683C-2.78838 251.271 54.5051 297.551 122.04 332.265C125.48 334.033 128.935 335.808 132.409 337.588C206.838 375.716 302.407 399.209 401.502 403.743C466.016 406.693 521.761 386.262 575.67 366.503C586.3 362.607 597.288 358.58 608.074 354.84C609.944 354.193 611.815 353.552 613.686 352.915L614.806 352.533C642.158 343.2 678.449 331.823 716.642 326.639C755.339 321.384 791.63 322.889 827.586 331.244C867.691 340.564 909.094 355.959 949.139 370.85C986.786 384.848 1025.71 399.323 1063.22 408.59C1081.6 413.154 1099.73 417.115 1118.67 420.7C1143.89 425.568 1168.48 429.632 1192.25 433.56C1217.22 437.685 1243.03 441.953 1269.39 447.126C1324.17 457.874 1382.48 478.5 1442.72 508.429C1501.53 537.891 1558.01 570.447 1610.6 605.194C1618.76 610.591 1633.01 618.791 1649.51 628.288C1692.84 653.228 1752.18 687.382 1758.82 703.886L1758.27 704.105C1751.72 687.788 1692.48 653.69 1649.22 628.794C1632.71 619.292 1618.46 611.086 1610.28 605.682C1557.71 570.946 1501.24 538.402 1442.46 508.952C1382.27 479.047 1324.01 458.436 1269.27 447.699C1242.92 442.528 1217.11 438.261 1192.16 434.138C1168.38 430.208 1143.79 426.141 1118.55 421.274C1099.61 417.687 1081.46 413.723 1063.08 409.156C1025.54 399.882 986.592 385.403 948.93 371.398C908.904 356.514 867.516 341.123 827.45 331.816C748.963 313.578 678.953 331.265 614.988 353.09L613.869 353.471C611.998 354.108 610.127 354.746 608.26 355.394C597.482 359.132 586.494 363.159 575.868 367.053C521.903 386.833 466.103 407.285 401.47 404.328C352.621 402.092 304.771 395.35 259.24 384.288C252.88 382.743 246.589 381.117 240.378 379.418L240.385 379.416Z" fill="white"/>
<path d="M211.254 358.82C180.183 350.314 151.751 340.306 126.348 328.915L125.158 328.382C122.031 326.981 118.921 325.587 115.825 324.199C37.0025 288.91 -30.3317 236.338 -108.298 175.463L-115.138 170.125C-206.3 98.9744 -302.234 63.7781 -426.199 55.9982L-426.161 55.3711C-302.062 63.1577 -206.021 98.3986 -114.753 169.631L-107.914 174.968C-29.9807 235.815 37.3244 288.367 116.08 323.625C119.176 325.012 122.287 326.406 125.413 327.807L126.604 328.341C196.336 359.607 289.856 380.441 397.055 388.598C459.178 393.322 512.733 376.214 564.525 359.668C575.169 356.269 586.174 352.751 596.973 349.526C598.555 349.051 600.14 348.588 601.724 348.121L603.483 347.606C631.903 339.239 665.848 330.191 702.12 326.501C739.78 322.668 774.934 325.146 809.588 334.067C844.858 343.151 881.54 356.967 917.015 370.327C959.615 386.374 1003.67 402.967 1046.22 411.8C1064.63 415.65 1082.87 418.738 1101.96 421.246C1127.96 424.762 1153.14 427.19 1177.48 429.537C1201.63 431.865 1226.59 434.271 1252.2 437.733C1307.33 445.178 1366.26 463.958 1427.36 493.551C1485.71 522.068 1542.5 554.868 1596.15 591.04C1604.8 596.869 1619.09 605.349 1635.64 615.163C1678.09 640.348 1736.23 674.838 1744.08 692.063L1743.51 692.323C1735.75 675.279 1677.7 640.848 1635.32 615.706C1618.76 605.884 1604.46 597.402 1595.8 591.562C1542.18 555.406 1485.41 522.621 1427.09 494.118C1366.05 464.556 1307.18 445.796 1252.12 438.36C1226.52 434.904 1201.56 432.496 1177.42 430.17C1153.07 427.821 1127.89 425.392 1101.88 421.876C1082.77 419.366 1064.52 416.277 1046.09 412.423C1003.49 403.579 959.417 386.978 916.791 370.925C881.333 357.569 844.67 343.754 809.431 334.683C730.777 314.433 661.976 331.05 603.66 348.215L601.9 348.733C600.318 349.197 598.735 349.664 597.154 350.136C586.362 353.359 575.358 356.874 564.717 360.273C512.867 376.837 459.253 393.968 397.008 389.233C346.129 385.365 298.208 378.671 254.577 369.343C239.63 366.147 225.178 362.637 211.252 358.826L211.254 358.82Z" fill="white"/>
<path d="M175.792 337.702C155.796 332.227 137.466 326.26 120.55 319.727C116.966 318.343 113.412 316.976 109.875 315.619C71.2226 300.79 33.7355 281.401 -8.1014 254.604C-44.9669 230.989 -81.815 203.81 -125.803 170.262C-219.459 98.8334 -315.567 63.177 -437.422 54.6526L-437.374 53.9839C-393.592 57.0483 -353.114 63.6135 -314.894 74.0753C-246.62 92.7646 -185.51 123.883 -125.397 169.732C-46.1387 230.181 26.2879 282.832 110.114 314.994C113.651 316.35 117.208 317.722 120.792 319.106C200.357 349.831 302.844 363.826 392.606 373.463C452.359 379.878 503.767 366.06 553.479 352.697C564.104 349.839 575.094 346.886 585.874 344.222C587.229 343.884 588.589 343.558 589.946 343.227L592.161 342.688C619.981 335.897 653.075 328.651 687.593 326.398C724.218 324.013 758.237 327.443 791.588 336.901C822.677 345.714 855.192 358.225 886.633 370.324C933.585 388.391 982.134 407.07 1029.2 415.021C1047.28 418.104 1065.61 420.32 1085.25 421.803C1111.38 423.776 1136.54 424.461 1160.88 425.126C1184.79 425.777 1209.52 426.451 1235.02 428.349C1290.45 432.479 1349.99 449.411 1412 478.675C1469.14 505.905 1527.82 539.865 1581.7 576.889C1590.78 583.126 1605 591.819 1621.47 601.888C1665.49 628.787 1720.26 662.266 1729.34 680.241L1728.74 680.542C1719.75 662.738 1662.74 627.897 1621.12 602.457C1604.64 592.386 1590.41 583.688 1581.31 577.44C1527.46 540.437 1468.81 506.494 1411.71 479.281C1349.77 450.051 1290.31 433.141 1234.96 429.016C1209.48 427.118 1184.76 426.446 1160.85 425.793C1136.51 425.13 1111.34 424.443 1085.19 422.47C1065.53 420.985 1047.18 418.765 1029.09 415.681C981.949 407.718 933.367 389.024 886.387 370.948C854.958 358.855 822.458 346.35 791.398 337.544C790.544 337.303 789.687 337.064 788.835 336.83C714.993 316.618 648.726 329.562 592.313 343.335L590.095 343.873C588.738 344.204 587.381 344.531 586.026 344.869C575.253 347.535 564.267 350.485 553.646 353.34C503.872 366.72 452.404 380.554 392.527 374.124C333.536 367.791 289.538 361.697 249.875 354.372C222.839 349.378 198.259 343.853 175.786 337.7L175.792 337.702Z" fill="white"/>
<path d="M138.629 317.657C130.471 315.424 122.505 313.056 114.758 310.537C111.119 309.352 107.511 308.188 103.932 307.034C64.2132 294.26 24.8071 276.237 -16.5389 251.94C-50.9319 231.728 -87.9159 206.58 -136.466 170.4C-199.133 123.694 -261.823 92.0813 -330.933 73.1647C-367.994 63.0204 -406.887 56.5264 -448.645 53.3036L-448.59 52.5926C-388.269 57.2469 -334.321 68.7406 -283.666 87.7306C-232.94 106.747 -184.65 133.6 -136.043 169.827C-49.6648 234.203 20.6476 279.497 104.147 306.356C107.73 307.508 111.337 308.675 114.977 309.857C179.013 330.687 258.201 341.094 334.783 351.156C352.315 353.46 370.445 355.842 388.156 358.317C445.556 366.337 494.841 355.783 542.506 345.578C553.094 343.311 564.04 340.967 574.777 338.905C575.966 338.674 577.158 338.451 578.349 338.227C579.179 338.069 580.011 337.916 580.845 337.755C609.466 332.307 640.45 327.151 673.067 326.306C708.652 325.383 741.534 329.772 773.589 339.723C800.965 348.223 828.434 359.088 857.515 370.593C908.37 390.712 960.957 411.514 1012.2 418.233C1030.44 420.655 1048.87 422.002 1068.53 422.351C1094.91 422.822 1120.17 421.727 1144.6 420.67C1168.19 419.651 1192.58 418.596 1217.83 418.958C1273.54 419.764 1333.7 434.848 1396.64 463.796C1453.43 490.185 1512.43 524.395 1567.25 562.732C1576.7 569.339 1590.75 578.185 1607.02 588.424C1650.35 615.696 1704.28 649.64 1714.61 668.413L1713.99 668.758C1703.74 650.148 1649.91 616.26 1606.65 589.031C1590.37 578.784 1576.31 569.937 1566.85 563.32C1512.06 525.007 1453.1 490.818 1396.34 464.449C1333.5 435.545 1273.43 420.48 1217.82 419.677C1192.59 419.312 1168.21 420.366 1144.64 421.388C1120.2 422.445 1094.93 423.542 1068.52 423.069C1048.84 422.717 1030.38 421.368 1012.11 418.943C960.781 412.214 908.154 391.396 857.258 371.261C828.19 359.763 800.733 348.9 773.383 340.41C702.313 318.349 639.369 327.349 580.984 338.46C580.151 338.617 579.318 338.774 578.488 338.932C577.3 339.156 576.109 339.379 574.92 339.607C564.189 341.67 553.244 344.014 542.663 346.28C494.937 356.498 445.589 367.064 388.065 359.026C370.357 356.552 352.231 354.17 334.699 351.867C267.345 343.016 197.973 333.9 138.636 317.658L138.629 317.657Z" fill="white"/>
<path d="M92.5276 296.991C53.1836 286.223 14.6878 270.588 -24.9807 249.283C-61.4236 229.711 -100.239 204.688 -147.131 170.536C-246.154 98.4182 -342.603 61.8467 -459.868 51.9579L-459.804 51.2052C-342.394 61.1069 -245.824 97.7227 -146.686 169.925C-52.1079 238.805 17.7194 275.732 92.4965 296.196C94.3904 296.715 96.2768 297.221 98.179 297.718C101.805 298.668 105.469 299.629 109.161 300.614C157.272 313.407 212.44 320.205 270.844 327.401C307.98 331.978 346.383 336.712 383.709 343.175C438.765 352.711 485.947 345.4 531.576 338.331C542.107 336.7 553.002 335.01 563.683 333.591C564.727 333.452 565.774 333.317 566.821 333.182C567.722 333.064 568.626 332.95 569.528 332.829C595.693 329.365 626.31 325.717 658.537 326.243C693.085 326.807 724.83 332.142 755.586 342.551C779.58 350.671 803.723 360.541 829.282 370.992C883.719 393.248 940.008 416.262 995.182 421.447C1013.6 423.209 1032.13 423.686 1051.81 422.903C1078.32 421.851 1103.56 418.955 1127.98 416.154C1151.34 413.473 1175.51 410.701 1200.63 409.569C1256.61 407.047 1317.39 420.284 1381.28 448.912C1437.76 474.494 1497.07 508.958 1552.8 548.574C1562.54 555.5 1576.3 564.418 1592.24 574.745C1635.01 602.461 1688.24 636.958 1699.87 656.584L1699.22 656.967C1687.69 637.495 1634.53 603.053 1591.83 575.378C1575.88 565.046 1562.12 556.123 1552.36 549.188C1496.68 509.598 1437.41 475.161 1380.97 449.599C1317.19 421.019 1256.53 407.802 1200.67 410.32C1175.57 411.452 1151.42 414.22 1128.06 416.9C1103.63 419.702 1078.37 422.598 1051.84 423.653C1032.12 424.438 1013.56 423.96 995.11 422.194C939.824 416.997 883.482 393.961 828.996 371.687C803.449 361.242 779.319 351.375 755.344 343.263C688.176 320.536 626.771 326.014 569.628 333.575C568.726 333.693 567.822 333.81 566.917 333.927C565.87 334.062 564.826 334.198 563.782 334.338C553.107 335.758 542.221 337.442 531.693 339.074C486.004 346.153 438.76 353.473 383.58 343.916C346.274 337.454 307.882 332.722 270.752 328.147C212.322 320.946 157.131 314.145 108.968 301.34C105.272 300.358 101.612 299.397 97.986 298.448C96.167 297.97 94.3431 297.485 92.5252 296.987L92.5276 296.991Z" fill="white"/>
<path d="M59.9744 282.223C28.5732 273.629 -2.23132 261.88 -33.4221 246.639C-71.8036 227.884 -111.326 203.747 -157.794 170.674C-259.706 98.1408 -356.33 61.1122 -471.091 50.6122L-471.017 49.818C-356.108 60.3316 -259.364 97.4077 -157.33 170.026C-63.1952 237.026 11.4336 272.633 92.2093 289.09C95.7013 289.8 99.469 290.57 103.346 291.378C141.617 299.335 184.487 303.538 229.872 307.983C279.103 312.809 330.013 317.798 379.266 328.041C431.982 339.006 477.066 334.911 520.662 330.953C531.14 330.002 541.971 329.018 552.597 328.284C553.52 328.221 554.443 328.159 555.368 328.1C556.317 328.037 557.27 327.974 558.221 327.908C585.172 326.03 613.995 324.348 644.006 326.207C677.526 328.283 708.136 334.554 737.589 345.383C758.427 353.044 779.428 361.954 801.662 371.389C859.449 395.911 919.202 421.267 978.167 424.668C996.766 425.771 1015.39 425.374 1035.09 423.462C1061.65 420.882 1086.81 416.177 1111.14 411.628C1134.36 407.288 1158.36 402.801 1183.44 400.193C1239.95 394.312 1301.34 405.702 1365.91 434.045C1421.66 458.514 1481.29 493.228 1538.34 534.429C1548.28 541.601 1562.26 550.929 1577.07 560.804C1619.43 589.057 1672.16 624.219 1685.13 644.768L1684.45 645.194C1671.57 624.789 1618.93 589.678 1576.63 561.467C1561.82 551.587 1547.82 542.257 1537.88 535.076C1480.86 493.906 1421.29 459.224 1365.59 434.777C1301.15 406.49 1239.89 395.123 1183.52 400.989C1158.47 403.594 1134.49 408.077 1111.29 412.414C1086.94 416.966 1061.75 421.673 1035.16 424.259C1015.42 426.179 996.758 426.573 978.116 425.467C956.95 424.248 935.683 420.203 914.46 414.395C876.415 403.983 838.479 387.884 801.346 372.128C779.121 362.698 758.133 353.791 737.31 346.137C674.141 322.917 616.576 324.643 558.27 328.71C557.317 328.776 556.364 328.838 555.414 328.901C554.492 328.961 553.57 329.023 552.647 329.086C542.031 329.819 531.204 330.801 520.73 331.752C477.071 335.717 431.929 339.815 379.098 328.827C329.886 318.593 278.999 313.606 229.788 308.781C184.377 304.33 141.488 300.127 103.175 292.16C99.3011 291.353 95.5325 290.586 92.0413 289.873C81.2577 287.675 70.5765 285.13 59.9672 282.225L59.9744 282.223Z" fill="white"/>
<path d="M28.8912 269.304C5.07514 262.786 -18.3654 254.394 -41.8626 244.005C-81.3129 226.562 -122.723 202.62 -168.457 170.815C-273.418 97.8133 -370.217 60.3278 -482.314 49.2697L-482.232 48.434C-423.551 54.2221 -369.539 67.1667 -317.115 88.006C-268.325 107.399 -219.543 134.263 -167.977 170.127C-74.835 234.909 1.19157 267.907 86.234 280.457L86.5693 280.506C90.176 281.037 93.8274 281.579 97.5222 282.137C129.067 286.905 163.766 289.121 200.506 291.465C258.063 295.137 317.581 298.935 374.824 312.908C425.185 325.2 468.154 324.298 509.712 323.425C520.148 323.205 530.938 322.979 541.518 322.981C542.342 322.98 543.166 322.982 543.99 322.985C544.965 322.988 545.943 322.992 546.919 322.989C570.445 322.945 599.727 322.889 629.471 326.197C661.968 329.813 691.449 337.015 719.595 348.216C737.42 355.31 755.385 363.252 774.41 371.665C835.392 398.626 898.45 426.504 961.154 427.889C979.94 428.334 998.654 427.068 1018.37 424.022C1044.94 419.916 1069.98 413.402 1094.2 407.103C1117.3 401.095 1141.18 394.885 1166.25 390.809C1195.29 386.089 1226.05 386.301 1257.67 391.444C1287.44 396.285 1318.69 405.612 1350.56 419.164C1406.55 443.237 1466.49 478.198 1523.9 520.272C1533.89 527.595 1547.27 536.777 1561.44 546.496C1603.57 575.402 1656 611.373 1670.4 632.942L1669.7 633.409C1655.4 611.974 1603.04 576.054 1560.97 547.189C1546.79 537.464 1533.4 528.282 1523.4 520.95C1466.04 478.914 1406.16 443.983 1350.22 419.935C1284.54 392.005 1222.69 382.485 1166.38 391.636C1141.35 395.704 1117.48 401.911 1094.41 407.914C1070.17 414.218 1045.11 420.734 1018.49 424.847C998.73 427.903 979.965 429.171 961.129 428.724C932.988 428.101 902.061 421.99 866.587 410.037C835.217 399.468 804.127 385.723 774.064 372.431C755.048 364.023 737.089 356.085 719.28 348.996C655.528 323.621 597.826 323.731 546.917 323.826C545.937 323.828 544.959 323.824 543.981 323.821C543.158 323.818 542.334 323.816 541.513 323.814C530.943 323.811 520.156 324.038 509.728 324.256C468.119 325.131 425.09 326.033 374.623 313.716C317.454 299.761 257.972 295.967 200.451 292.297C163.695 289.953 128.976 287.735 97.3949 282.962C93.7001 282.404 90.0511 281.867 86.4452 281.332L86.1099 281.283C66.6712 278.415 47.6626 274.44 28.8886 269.3L28.8912 269.304Z" fill="white"/>
<path d="M-0.2499 258.169C-17.0827 253.563 -33.711 247.983 -50.3028 241.385C-91.1415 225.15 -133.276 202.113 -179.119 170.953C-288.764 96.4312 -382.797 59.6356 -493.54 47.9201L-493.447 47.0395C-435.306 53.1893 -381.276 66.6158 -328.262 88.0839C-280.321 107.499 -231.375 134.367 -178.625 170.217C-86.0141 233.163 -8.59242 263.548 80.2568 271.817L82.6155 272.037C85.6104 272.315 88.6379 272.596 91.7 272.889C118.393 275.444 147.336 276.151 177.98 276.896C209.162 277.656 241.404 278.441 273.882 281.255C310.711 284.443 342.283 289.85 370.384 297.761C418.339 311.272 459.157 313.521 498.626 315.695C509.066 316.27 519.861 316.866 530.441 317.665C531.159 317.717 531.876 317.776 532.593 317.832C533.602 317.91 534.61 317.988 535.622 318.063L538.923 318.299C563.853 320.082 589.635 321.925 616.739 326.5C647.501 331.692 675.26 339.72 701.6 351.042C716.472 357.433 731.452 364.361 747.309 371.689C811.399 401.316 877.669 431.95 944.138 431.099C963.108 430.883 981.918 428.751 1001.64 424.572C1028.2 418.95 1053.09 410.632 1077.17 402.589C1100.17 394.904 1123.96 386.957 1149.05 381.422C1178.3 374.972 1209.35 373.859 1241.35 378.118C1271.33 382.106 1302.9 390.909 1335.2 404.284C1364.02 416.352 1393.94 431.489 1424.12 449.28C1452.52 466.02 1481.23 485.145 1509.45 506.118C1519.31 513.449 1531.88 522.314 1545.19 531.703C1587.31 561.418 1639.73 598.395 1655.66 621.118L1654.94 621.626C1639.1 599.028 1586.74 562.1 1544.68 532.425C1531.37 523.035 1518.79 514.165 1508.92 506.829C1450.78 463.614 1390.59 428.439 1334.85 405.104C1268.2 377.503 1205.75 369.828 1149.24 382.292C1124.2 387.815 1100.43 395.756 1077.45 403.433C1053.35 411.485 1028.43 419.81 1001.83 425.442C982.043 429.634 963.174 431.773 944.147 431.989C914.327 432.371 881.588 426.301 844.063 413.44C810.954 402.089 778.409 387.048 746.939 372.5C731.085 365.172 716.112 358.25 701.252 351.861C642.458 326.592 587.419 322.659 538.859 319.187L535.558 318.95C534.545 318.878 533.534 318.799 532.526 318.721C531.808 318.666 531.094 318.611 530.377 318.555C519.806 317.758 509.014 317.163 498.578 316.589C459.883 314.456 419.896 312.249 373.138 299.454C372.14 299.18 371.146 298.906 370.144 298.621C307.383 280.958 238.629 279.266 177.958 277.789C147.298 277.044 118.338 276.336 91.6156 273.778C88.5567 273.486 85.529 273.205 82.5341 272.927L80.1747 272.71C52.5337 270.138 25.902 265.334 -0.254513 258.175L-0.2499 258.169Z" fill="white"/>
<path d="M-27.2887 248.647C-37.8411 245.758 -48.3058 242.469 -58.7346 238.771C-100.829 223.841 -143.695 201.701 -189.782 171.091C-269.516 118.133 -339.871 83.9963 -412.158 64.209C-442.412 55.9261 -472.994 50.1625 -504.763 46.5745L-504.658 45.6531C-447.055 52.1581 -393 66.0646 -339.4 88.1673C-291.798 107.798 -244.094 133.902 -189.267 170.32C-96.863 231.694 -18.0429 259.467 74.2827 263.191C75.7426 263.25 77.2097 263.308 78.6872 263.365C81.0614 263.458 83.4588 263.553 85.8746 263.655C108.944 264.614 133.676 264.162 159.861 263.684C225.095 262.495 299.034 261.154 365.944 282.628C411.38 297.214 449.931 302.55 487.217 307.713C497.768 309.175 508.678 310.685 519.367 312.367C520.003 312.468 520.643 312.569 521.282 312.671C522.295 312.834 523.308 312.994 524.326 313.148C527.636 313.653 530.971 314.152 534.329 314.654C579.088 321.362 629.819 328.968 683.601 353.878C695.523 359.399 707.493 365.208 720.171 371.355C784.206 402.419 856.789 437.629 927.115 434.321C946.271 433.448 965.176 430.442 984.913 425.136C1011.43 418.003 1036.17 407.888 1060.08 398.106C1083.01 388.728 1106.71 379.032 1131.84 372.043C1161.28 363.855 1192.63 361.412 1225.01 364.782C1255.21 367.925 1287.11 376.209 1319.82 389.402C1348.73 401.183 1378.84 416.304 1409.32 434.337C1437.7 451.13 1466.53 470.52 1494.99 491.959C1504.45 499.084 1515.93 507.404 1528.08 516.211C1570.5 546.956 1623.29 585.218 1640.91 609.289L1640.17 609.835C1622.63 585.882 1569.9 547.668 1527.54 516.962C1515.38 508.151 1503.9 499.834 1494.43 492.7C1435.53 448.331 1375.03 412.907 1319.47 390.261C1251.85 362.991 1188.81 357.162 1132.09 372.933C1107.01 379.907 1083.33 389.591 1060.43 398.959C1036.49 408.752 1011.73 418.877 985.148 426.024C965.346 431.349 946.375 434.364 927.151 435.241C895.613 436.725 861.022 430.692 821.4 416.799C786.529 404.573 752.586 388.106 719.757 372.183C707.086 366.037 695.116 360.228 683.203 354.712C629.543 329.857 578.882 322.264 534.182 315.566C530.821 315.06 527.487 314.561 524.176 314.06C523.158 313.905 522.142 313.742 521.126 313.581C520.489 313.48 519.85 313.375 519.213 313.277C508.531 311.597 497.624 310.088 487.08 308.627C455.688 304.281 423.389 299.809 386.838 289.807C379.931 287.916 372.879 285.831 365.646 283.509C298.882 262.071 225.026 263.421 159.863 264.606C133.665 265.084 108.916 265.533 85.8201 264.574C83.4036 264.475 81.0062 264.381 78.6327 264.285C77.1552 264.228 75.685 264.169 74.225 264.11C38.9051 262.684 5.41473 257.595 -27.3072 248.639L-27.2887 248.647Z" fill="white"/>
<path d="M-52.3059 240.533C-57.2783 239.173 -62.2233 237.721 -67.1623 236.17C-110.416 222.609 -154.014 201.365 -200.445 171.231C-286.973 115.07 -385.091 60.9371 -515.99 45.2313L-515.875 44.2683C-458.808 51.1158 -404.727 65.5025 -350.547 88.2485C-304.14 107.732 -256.276 133.842 -199.92 170.419C-149.051 203.433 -100.821 226.114 -51.7803 239.539C-12.8452 250.197 26.5896 255.021 68.2995 254.563C70.3976 254.539 72.5163 254.513 74.6516 254.487C76.4361 254.466 78.2349 254.441 80.0465 254.419C100.353 254.185 121.929 252.833 144.771 251.402C213.619 247.09 291.656 242.2 361.504 267.498C404.105 282.926 440.154 291.216 475.021 299.229C486.447 301.856 497.24 304.338 508.303 307.067C508.861 307.204 509.421 307.345 509.982 307.483C510.998 307.734 512.016 307.989 513.04 308.236C518.728 309.601 524.37 310.914 530.341 312.31C571.04 321.809 617.167 332.572 665.608 356.711C674.498 361.139 683.382 365.68 692.791 370.489C759.786 404.726 835.719 443.533 910.096 437.541C929.604 435.994 948.605 432.122 968.186 425.697C994.775 417.085 1019.4 405.131 1043.22 393.567C1065.99 382.512 1089.53 371.08 1114.64 362.667C1144.27 352.739 1175.91 348.962 1208.67 351.444C1239.09 353.75 1271.32 361.516 1304.46 374.529C1333.46 386.033 1363.77 401.132 1394.53 419.405C1422.9 436.259 1451.84 455.91 1480.55 477.813C1489.19 484.405 1499.16 491.824 1509.71 499.679C1552.88 531.79 1606.59 571.754 1626.18 597.471L1625.4 598.059C1605.9 572.451 1552.25 532.532 1509.13 500.459C1498.57 492.603 1488.6 485.183 1479.95 478.586C1419.47 432.434 1360.3 397.727 1304.1 375.437C1235.51 348.504 1171.87 344.517 1114.95 363.594C1089.9 371.988 1066.38 383.405 1043.64 394.446C1019.79 406.023 995.134 417.995 968.483 426.626C948.829 433.075 929.754 436.961 910.168 438.513C835.516 444.526 759.454 405.652 692.344 371.359C682.939 366.551 674.053 362.013 665.17 357.583C616.833 333.496 570.76 322.744 530.115 313.258C524.141 311.865 518.496 310.547 512.808 309.182C511.784 308.936 510.762 308.683 509.743 308.428C509.182 308.29 508.626 308.15 508.068 308.013C497.012 305.282 486.222 302.804 474.799 300.178C439.906 292.155 403.824 283.862 361.172 268.411C291.509 243.182 213.583 248.064 144.83 252.371C121.974 253.802 100.388 255.155 80.0544 255.39C78.2428 255.412 76.4448 255.433 74.6602 255.455C72.5242 255.483 70.4055 255.509 68.3075 255.533C25.8489 256 -13.7734 251.083 -52.3098 240.535L-52.3059 240.533Z" fill="white"/>
<path d="M-75.5023 233.597C-75.5279 233.591 -75.5535 233.585 -75.5783 233.576C-119.93 221.426 -164.261 201.079 -211.104 171.37C-314.451 105.824 -407.76 59.0598 -527.213 43.8824L-527.085 42.8785C-470.552 50.062 -416.445 64.9257 -361.683 88.3223C-316.091 107.799 -269.484 133.148 -210.564 170.517C-119.023 228.573 -34.863 251.832 62.32 245.932C65.0795 245.766 67.8759 245.585 70.706 245.404L74.2186 245.181C92.3924 244.027 111.562 241.956 131.857 239.761C203.691 231.993 285.107 223.189 357.072 252.363C395.773 268.055 428.527 278.881 460.201 289.351C472.926 293.558 484.942 297.53 497.244 301.776L498.648 302.26C499.683 302.62 500.719 302.976 501.759 303.328C510.097 306.133 518.482 308.831 527.359 311.692C563.682 323.391 604.849 336.646 647.619 359.548C653.317 362.598 658.973 365.657 664.958 368.896C734.983 406.77 814.352 449.699 893.079 440.765C912.747 438.558 931.845 433.816 951.461 426.266C977.99 416.16 1002.42 402.425 1026.05 389.139C1048.76 376.368 1072.24 363.167 1097.45 353.294C1127.26 341.617 1159.18 336.502 1192.33 338.096C1222.98 339.569 1255.54 346.823 1289.1 359.653C1318.2 370.887 1348.7 385.967 1379.73 404.473C1408.09 421.384 1437.15 441.297 1466.09 463.658C1473.22 469.162 1481.03 475.112 1489.29 481.413C1533.91 515.439 1589.46 557.782 1611.44 585.647L1610.64 586.274C1588.74 558.511 1533.26 516.208 1488.67 482.219C1480.41 475.918 1472.6 469.967 1465.47 464.459C1404.27 417.182 1344.81 382.239 1288.73 360.596C1219.16 334.001 1154.92 331.86 1097.81 354.235C1072.68 364.079 1049.22 377.267 1026.54 390.018C1002.88 403.32 978.417 417.074 951.819 427.205C932.123 434.784 912.943 439.548 893.188 441.765C857.929 445.767 819.327 439.692 775.182 423.199C736.579 408.778 699.921 388.952 664.474 369.779C658.489 366.543 652.837 363.484 647.138 360.435C604.449 337.578 563.326 324.336 527.047 312.651C518.167 309.789 509.778 307.09 501.434 304.283C500.391 303.931 499.352 303.571 498.313 303.213L496.913 302.73C484.617 298.485 472.602 294.514 459.883 290.308C428.193 279.831 395.42 269.001 356.688 253.298C284.96 224.219 203.675 233.009 131.962 240.764C111.653 242.959 92.4727 245.034 74.2791 246.187L70.7664 246.411C67.9364 246.591 65.1366 246.771 62.3771 246.938C13.2881 249.916 -31.8158 245.551 -75.508 233.592L-75.5023 233.597Z" fill="white"/>
<path d="M-97.2167 227.617C-138.17 216.408 -179.05 197.977 -221.766 171.508C-331.74 103.357 -423.076 58.0072 -538.439 42.5359L-538.299 41.4912C-482.294 49.0019 -428.165 64.3449 -372.818 88.3927C-316.986 112.651 -264.847 143.569 -221.209 170.612C-129.206 227.625 -43.6062 248.194 56.3402 237.305C59.8662 236.92 63.375 236.52 67.0919 236.094L68.3875 235.945C84.8944 234.058 102.211 231.391 120.544 228.564C194.914 217.104 279.207 204.113 352.64 237.228C378.661 248.962 401.543 259.009 423.669 268.726C445.272 278.213 465.677 287.172 486.193 296.482L487.404 297.03C488.428 297.496 489.452 297.964 490.486 298.418C501.846 303.448 513.48 308.282 525.794 313.398C558.833 327.125 592.994 341.317 629.634 362.373C631.88 363.665 634.141 364.966 636.414 366.274C705.977 406.313 792.552 456.144 876.063 443.975C895.895 441.106 915.087 435.494 934.739 426.821C961.209 415.228 985.441 399.721 1008.87 384.726C1031.53 370.229 1054.95 355.242 1080.25 343.911C1110.23 330.483 1142.44 324.031 1175.98 324.734C1206.86 325.383 1239.76 332.123 1273.74 344.767C1329.82 365.815 1389.67 401.052 1451.65 449.499C1455.95 452.859 1460.45 456.362 1465.09 459.978C1509.99 494.955 1571.49 542.857 1596.71 573.817L1595.89 574.486C1570.74 543.62 1509.3 495.76 1464.44 460.813C1459.8 457.196 1455.3 453.694 1451 450.334C1389.11 401.949 1329.34 366.767 1273.37 345.756C1202.81 319.506 1137.98 319.212 1080.68 344.874C1055.45 356.174 1032.06 371.142 1009.44 385.616C985.973 400.633 961.706 416.162 935.162 427.785C915.423 436.499 896.142 442.138 876.216 445.019C838.851 450.466 797.978 444.258 751.262 426.043C710.587 410.185 670.901 387.342 635.889 367.191C633.616 365.883 631.355 364.582 629.109 363.29C592.529 342.267 558.399 328.087 525.389 314.376C513.067 309.258 501.43 304.42 490.058 299.384C489.021 298.926 487.995 298.457 486.967 297.991L485.759 297.443C465.245 288.137 444.845 279.176 423.247 269.693C401.118 259.975 378.236 249.925 352.209 238.19C279.06 205.203 194.934 218.168 120.707 229.607C102.364 232.435 85.04 235.104 68.5092 236.992L67.2137 237.141C63.4936 237.566 59.9808 237.968 56.4549 238.354C6.2022 243.829 -39.7371 241.421 -83.9849 230.987C-88.3975 229.946 -92.8086 228.825 -97.2167 227.617Z" fill="white"/>
<path d="M-117.689 222.427C-155.547 212.064 -193.313 195.334 -232.429 171.648C-329.661 112.775 -427.09 58.4936 -549.665 41.1894L-549.512 40.1038C-520.183 44.2436 -492.017 50.4096 -463.403 58.9486C-437.164 66.7821 -411.178 76.4354 -383.956 88.4625C-331.092 111.817 -279.613 141.794 -231.86 170.712C-139.247 226.791 -52.2069 244.666 50.3559 228.68C54.4058 228.047 58.6051 227.364 62.5576 226.716C77.7417 224.226 93.5996 221.051 110.389 217.688C149.066 209.946 189.062 201.939 229.737 200.29C276.27 198.405 315.021 205.54 348.205 222.103C398.418 247.162 437.419 269.553 475.137 291.208L476.05 291.732C477.101 292.335 478.151 292.94 479.207 293.534C494.239 301.973 510.003 310.051 526.689 318.601C553.86 332.524 581.956 346.92 611.639 365.223C678.551 406.476 770.188 462.972 859.034 447.209C879.033 443.682 898.321 437.2 918.001 427.4C944.41 414.33 968.44 397.065 991.677 380.37C1014.27 364.134 1037.63 347.349 1063.04 334.553C1093.19 319.372 1125.68 311.578 1159.6 311.391C1190.73 311.22 1223.96 317.448 1258.37 329.902C1314.37 350.335 1374.54 385.817 1437.2 435.361C1479.98 469.19 1551.6 525.81 1581.96 562.009L1581.12 562.716C1550.83 526.605 1479.27 470.027 1436.52 436.225C1373.95 386.753 1313.89 351.331 1258 330.938C1186.45 305.037 1121.02 306.583 1063.54 335.537C1038.21 348.294 1014.88 365.056 992.321 381.266C969.047 397.99 944.981 415.281 918.493 428.39C898.717 438.239 879.332 444.749 859.227 448.296C820.222 455.217 777.711 449.111 729.264 429.634C685.418 412.004 642.442 385.51 611.062 366.165C581.413 347.887 553.335 333.498 526.185 319.587C509.487 311.03 493.718 302.948 478.667 294.501C477.608 293.907 476.552 293.3 475.502 292.694L474.588 292.17C436.885 270.525 397.899 248.141 347.713 223.098C273.652 186.136 187.03 203.478 110.602 218.777C93.8027 222.141 77.9376 225.317 62.7328 227.809C58.7771 228.456 54.5771 229.142 50.5241 229.775C-0.825577 237.779 -47.5713 237.334 -92.3861 228.416C-100.835 226.736 -109.267 224.744 -117.688 222.438L-117.689 222.427Z" fill="white"/>
<path d="M-137.082 217.897C-172.148 208.301 -207.115 193.069 -243.088 171.787C-329.869 120.449 -406.308 77.8766 -493.42 54.0334C-515.143 48.0885 -537.511 43.309 -560.888 39.844L-560.722 38.7143C-531.477 43.0501 -503.296 49.4552 -474.563 58.3036C-448.503 66.3287 -422.505 76.2133 -395.089 88.5268C-343.339 111.766 -293.387 140.706 -242.508 170.805C-149.154 226.034 -60.6748 241.223 44.3696 220.051C48.7064 219.177 53.0464 218.261 56.723 217.479C70.8608 214.472 85.5721 210.852 101.146 207.017C138.897 197.729 181.684 187.197 223.289 184.407C270.948 181.208 310.356 188.589 343.773 206.971C385.364 229.851 418.319 253.335 450.192 276.049C454.739 279.291 459.441 282.641 464.082 285.928L464.722 286.383C465.789 287.137 466.855 287.894 467.93 288.64C487.749 302.388 509.205 315.468 531.918 329.318C551.795 341.437 572.345 353.972 593.649 368.057C668.281 417.401 755.176 468.533 842.01 450.424C862.176 446.235 881.561 438.888 901.272 427.961C927.618 413.423 951.443 394.409 974.48 376.02C997.011 358.037 1020.31 339.442 1045.83 325.171C1076.13 308.236 1108.9 299.102 1143.22 298.019C1174.6 297.03 1208.17 302.747 1243 315.014C1298.94 334.851 1359.42 370.575 1422.74 421.198C1493.83 478.025 1542.43 521.421 1567.22 550.176L1566.35 550.921C1541.62 522.221 1493.06 478.873 1422.03 422.09C1358.81 371.546 1298.45 335.885 1242.62 316.089C1170.09 290.543 1104.07 293.931 1046.39 326.163C1020.95 340.384 997.687 358.951 975.193 376.905C952.116 395.322 928.257 414.369 901.823 428.954C882.011 439.939 862.52 447.326 842.241 451.537C821.39 455.883 799.11 456.378 776.023 452.999C755.609 450.013 733.777 443.879 711.132 434.76C669.208 417.881 629.586 393.179 593.017 369C571.731 354.925 551.186 342.399 531.321 330.283C508.594 316.422 487.127 303.333 467.278 289.568C466.2 288.822 465.131 288.064 464.062 287.306L463.422 286.851C458.78 283.564 454.076 280.213 449.528 276.971C417.681 254.277 384.752 230.808 343.221 207.963C268.679 166.959 179.817 188.824 101.417 208.118C85.8327 211.954 71.111 215.575 56.959 218.586C53.2823 219.368 48.9353 220.286 44.5946 221.162C-7.80761 231.723 -55.3607 233.244 -100.774 225.818C-112.918 223.832 -125.008 221.196 -137.084 217.89L-137.082 217.897Z" fill="white"/>
<path d="M-155.567 213.913C-188.108 205.006 -220.551 191.111 -253.744 171.926L-256.61 170.268C-361.7 109.527 -452.461 57.0676 -572.114 38.494L-571.932 37.3245C-517.168 45.8244 -464.964 61.9071 -407.639 87.9389C-356.531 111.147 -307.707 139.365 -256.02 169.242L-253.154 170.9C-158.958 225.341 -69.0423 237.838 38.3894 211.424C41.9922 210.538 45.9632 209.527 50.8913 208.243C64.18 204.783 77.9732 200.762 92.5738 196.505C131.129 185.263 174.83 172.52 217.265 168.546C265.93 163.988 305.863 171.607 339.346 191.841C377.564 214.938 407.44 240.983 436.334 266.171C441.798 270.933 447.446 275.858 453.033 280.655L453.247 280.838C454.381 281.813 455.516 282.784 456.659 283.747C483.573 306.413 514.068 327.73 546.354 350.299C555.88 356.957 565.735 363.845 575.668 370.889C645.571 420.453 737.08 474.653 824.995 453.641C845.328 448.794 864.808 440.58 884.55 428.526C910.838 412.528 934.453 391.775 957.292 371.702C979.759 351.958 1002.99 331.541 1028.64 315.796C1059.09 297.111 1092.13 286.633 1126.85 284.656C1158.49 282.853 1192.4 288.06 1227.65 300.137C1283.56 319.394 1344.34 355.362 1408.3 407.047C1469.97 456.877 1523.87 505.962 1552.49 538.354L1551.6 539.138C1523.03 506.793 1469.18 457.759 1407.56 407.968C1343.7 356.372 1283.04 320.467 1227.26 301.257C1153.73 276.069 1087.11 281.3 1029.26 316.808C1003.7 332.499 980.501 352.881 958.071 372.592C935.196 392.697 911.539 413.485 885.165 429.537C865.317 441.658 845.724 449.92 825.267 454.794C804.178 459.832 781.682 460.847 758.401 457.804C737.7 455.1 715.687 449.089 692.973 439.941C647.883 421.78 606.229 394.014 574.98 371.857C565.05 364.817 555.198 357.929 545.672 351.27C513.366 328.687 482.851 307.355 455.894 284.657C454.747 283.693 453.61 282.714 452.473 281.739L452.259 281.556C446.67 276.755 441.019 271.829 435.556 267.064C406.701 241.911 376.864 215.899 338.735 192.856C264.077 147.735 173.138 174.248 92.9067 197.643C78.2958 201.902 64.4948 205.928 51.192 209.391C46.2567 210.677 42.2793 211.686 38.6725 212.575C-14.7524 225.709 -63.104 229.201 -109.147 223.243C-124.7 221.232 -140.147 218.132 -155.57 213.909L-155.567 213.913Z" fill="white"/>
<path d="M706.354 455.86C695.998 453.026 685.447 449.452 674.768 445.152C638.709 430.636 600.169 407.596 556.938 374.712C512.198 340.681 475.956 311.506 444.511 279.739C443.371 278.584 442.244 277.43 441.099 276.251C435.261 270.24 429.375 264.036 423.682 258.037C397.241 230.171 369.899 201.356 334.244 177.744C259.785 128.436 166.874 159.699 84.9028 187.281C71.0841 191.931 58.0309 196.323 45.4226 200.193C40.6551 201.658 36.5108 202.898 32.7483 203.984C-21.6023 219.693 -70.7394 225.129 -117.473 220.609C-166.735 215.844 -214.794 199.967 -264.402 172.071C-270.227 168.768 -276.019 165.479 -281.78 162.203C-378.149 107.419 -469.171 55.6749 -583.338 37.1549L-583.144 35.9444C-530.921 44.418 -480.97 59.8936 -425.941 84.6461C-376.986 106.671 -330.449 133.125 -281.177 161.136C-275.416 164.411 -269.627 167.7 -263.802 171.003C-233.495 188.045 -203.579 200.669 -173.376 208.937C-108.522 226.69 -42.2854 224.393 32.4065 202.809C36.1627 201.723 40.2999 200.484 45.0596 199.023C57.6536 195.157 70.6964 190.767 84.5081 186.118C123.829 172.887 168.392 157.891 211.575 152.701C261.164 146.742 301.507 154.599 334.917 176.723C370.689 200.412 398.08 229.278 424.566 257.196C430.257 263.193 436.14 269.393 441.976 275.398C443.121 276.576 444.245 277.727 445.383 278.878C476.778 310.596 512.981 339.739 557.681 373.737C620.412 421.45 714.606 481.98 807.971 456.87C828.473 451.365 848.048 442.28 867.821 429.1C894.048 411.652 917.459 389.166 940.095 367.423C962.494 345.908 985.655 323.664 1011.44 306.433C1042.03 285.996 1075.34 274.174 1110.46 271.298C1142.36 268.685 1176.62 273.384 1212.28 285.263C1268.17 303.951 1329.26 340.164 1393.85 392.9C1447.41 436.625 1503.9 489.08 1537.75 526.536L1536.84 527.358C1503.02 489.944 1446.59 437.538 1393.08 393.85C1328.6 341.211 1267.64 305.067 1211.89 286.428C1137.37 261.605 1070.15 268.677 1012.12 307.455C986.425 324.627 963.303 346.832 940.942 368.312C918.267 390.094 894.818 412.615 868.499 430.126C848.615 443.382 828.92 452.519 808.289 458.059C786.963 463.795 764.244 465.334 740.762 462.629C729.605 461.345 718.106 459.082 706.359 455.868L706.354 455.86Z" fill="white"/>
<path d="M686.523 460.573C640.553 447.992 591.217 420.282 538.893 377.561C496.558 343 461.961 309.388 433.127 274.811C432.057 273.524 430.996 272.23 429.935 270.935C424.093 263.786 418.227 256.372 412.558 249.202C388.335 218.577 363.29 186.913 329.748 162.622C255.761 109.048 156.77 146.732 77.2306 177.01C64.0815 182.015 51.6617 186.742 39.6487 190.983C34.93 192.648 30.7334 194.089 26.8193 195.381C-28.5184 213.698 -78.4553 221.113 -125.851 218.054C-147.541 216.651 -168.975 213.06 -190.355 207.206C-218.498 199.505 -246.557 187.889 -275.065 172.199C-286.326 165.976 -297.584 159.681 -308.469 153.598C-400.004 102.423 -486.466 54.0915 -594.569 35.7975L-594.359 34.5467C-486.042 52.8759 -399.487 101.262 -307.85 152.491C-296.966 158.577 -285.711 164.868 -274.453 171.09C-178.188 224.068 -85.3943 231.191 26.4204 194.177C30.3281 192.883 34.5169 191.447 39.2253 189.783C51.2233 185.549 63.6359 180.824 76.7779 175.82C116.841 160.568 162.248 143.282 206.139 136.847C256.601 129.448 297.276 137.542 330.49 161.59C364.178 185.982 389.278 217.718 413.552 248.409C419.219 255.575 425.082 262.985 430.919 270.127C431.978 271.42 433.039 272.712 434.104 273.993C462.885 308.505 497.425 342.06 539.696 376.573C634.026 453.585 718.559 481.682 790.945 460.088C811.618 453.925 831.288 443.975 851.089 429.667C877.259 410.773 900.458 386.57 922.894 363.163C945.22 339.868 968.309 315.782 994.235 297.057C1024.95 274.874 1058.54 261.708 1094.06 257.93C1126.22 254.507 1160.83 258.693 1196.91 270.38C1226.76 280.07 1258.39 295.05 1290.91 314.909C1319.24 332.213 1349.01 353.691 1379.4 378.744C1426.82 417.855 1480.51 468.681 1523.01 514.71L1522.07 515.571C1479.61 469.583 1425.97 418.798 1378.59 379.724C1313.5 326.056 1252.25 289.676 1196.52 271.59C1121 247.134 1053.19 256.051 994.975 298.09C969.142 316.748 946.094 340.79 923.807 364.043C901.331 387.492 878.092 411.736 851.826 430.699C831.909 445.092 812.113 455.104 791.303 461.31C758.73 471.027 723.726 470.757 686.519 460.576L686.523 460.573Z" fill="white"/>
<path d="M666.692 465.286C657.318 462.719 647.824 459.51 638.214 455.658C617.78 447.463 596.749 436.289 575.701 422.454C557.355 410.391 538.901 396.247 520.845 380.412C483.778 347.907 450.438 310.72 421.746 269.887C414.981 260.26 408.288 250.151 401.815 240.376C379.727 207.013 356.883 172.517 325.247 147.509C292.646 121.739 252.045 113.498 201.12 122.312C156.695 130.001 110.52 149.582 69.7803 166.861C52.5066 174.187 36.1942 181.104 20.8904 186.796C-35.4062 207.731 -86.1437 217.126 -134.216 215.518C-158.696 214.699 -182.81 211.042 -206.848 204.463C-233.09 197.282 -259.243 186.618 -285.727 172.35C-301.806 163.689 -317.756 154.879 -333.181 146.36C-420.504 98.129 -502.986 52.5735 -605.797 34.4605L-605.57 33.1665C-502.542 51.3186 -419.968 96.9256 -332.546 145.21C-317.124 153.728 -301.177 162.537 -285.104 171.193C-187.886 223.56 -93.6556 227.993 20.4337 185.565C35.7083 179.883 52.0096 172.971 69.2683 165.651C110.074 148.347 156.321 128.732 200.896 121.016C252.21 112.136 293.152 120.462 326.063 146.48C357.865 171.616 380.766 206.203 402.913 239.65C409.38 249.418 416.068 259.518 422.823 269.132C451.456 309.882 484.727 346.989 521.715 379.425C573.329 424.69 674.725 495.777 773.921 463.317C829.116 445.257 868.049 401.374 905.702 358.935C927.954 333.854 950.965 307.92 977.038 287.691C999.25 270.457 1023.12 258.043 1047.97 250.79C1071.19 244.017 1095.87 241.566 1121.35 243.503C1144.91 245.297 1169.77 250.896 1195.24 260.143C1218.51 268.591 1242.93 280.315 1267.8 294.991C1310.15 319.966 1353.93 353.198 1401.66 396.577C1441.36 432.661 1476.37 468.996 1508.28 502.884L1507.32 503.784C1434.73 426.695 1355.39 348.182 1267.14 296.119C1154.5 229.676 1057.17 227.189 977.845 288.726C951.87 308.879 928.901 334.766 906.685 359.804C887.831 381.056 868.335 403.03 846.993 421.542C823.018 442.339 799.251 456.41 774.33 464.564C740.919 475.496 704.823 475.721 666.695 465.287L666.692 465.286Z" fill="white"/>
</g>
<defs>
<clipPath id="clip0_17_16">
<rect width="1440" height="1024" fill="white"/>
</clipPath>
</defs>
</svg>
