<svg width="1440" height="1024" viewBox="0 0 1440 1024" fill="none" xmlns="http://www.w3.org/2000/svg">
<g clip-path="url(#clip0_17_16)">
<rect width="1440" height="1024" fill="#66D076"/>
<path d="M292.936 903.974C280.153 900.477 267.429 896.045 254.782 890.681C214.051 873.411 173.743 846.352 134.983 810.263C98.1713 775.986 64.949 737.187 32.8226 699.664C-0.218501 661.074 -34.3834 621.169 -72.4739 586.171C-169.484 497.033 -277.438 483.628 -379.644 482.416L-379.64 482.088C-313.287 482.873 -261.014 489.753 -215.133 503.744C-161.312 520.155 -114.572 547.038 -72.2499 585.926C-34.1456 620.937 0.0274886 660.851 33.0743 699.445C65.1957 736.961 98.4091 775.754 135.21 810.019C219.005 888.042 306.828 922.214 396.242 911.586C475.812 902.129 545.92 860.74 613.719 820.716C623.244 815.091 633.092 809.278 642.747 803.686C690.148 776.236 729.835 757.975 767.65 746.218C814.013 731.8 858.493 726.916 903.63 731.281C949.791 735.748 997.71 747.966 1050.12 768.634C1099.44 788.085 1146.93 812.787 1186.88 834.384C1271.34 880.047 1355.74 929.147 1437.36 976.629C1458.83 989.116 1481.02 1002.03 1502.88 1014.68C1550.66 1042.34 1607.33 1074.96 1665.32 1107.12C1669.93 1109.68 1680.67 1114.78 1694.26 1121.23C1739.81 1142.87 1816.03 1179.09 1815.22 1191.82L1814.89 1191.8C1815.24 1186.4 1800.69 1175.7 1771.65 1160C1746.94 1146.63 1716.41 1132.12 1694.11 1121.53C1680.52 1115.07 1669.78 1109.96 1665.16 1107.4C1607.17 1075.24 1550.5 1042.62 1502.71 1014.96C1480.86 1002.31 1458.66 989.398 1437.19 976.911C1355.57 929.429 1271.18 880.332 1186.72 834.671C1125.88 801.777 1057.29 766.796 983.776 746.676C957.626 739.519 930.869 734.242 903.594 731.603C801.11 721.689 714.303 762.62 642.906 803.965C633.25 809.556 623.403 815.37 613.877 820.994C546.05 861.039 475.912 902.445 396.273 911.909C361.779 916.007 327.16 913.335 292.934 903.967L292.936 903.974Z" fill="white"/>
<path d="M284.255 887.136C272.879 884.023 261.542 880.249 250.258 875.815C208.781 859.518 168.042 834.37 129.168 801.071C126.035 798.387 122.803 795.572 119.562 792.709C83.4182 760.761 50.1344 724.495 17.9431 689.415C-13.9036 654.714 -46.833 618.828 -83.143 586.31C-134.114 540.469 -188.375 514.455 -242.122 499.74C-293.244 485.747 -343.895 481.975 -390.867 481.074L-390.86 480.702C-325.039 481.962 -272.746 489.314 -226.292 503.833C-172.664 520.593 -125.761 547.48 -82.8943 586.031C-46.5705 618.561 -13.6354 654.452 18.2162 689.161C50.4001 724.229 83.6775 760.494 119.807 792.428C123.048 795.292 126.28 798.106 129.411 800.787C212.147 871.662 302.871 904.741 391.777 896.45C468.732 889.272 536.258 851.544 601.56 815.056C611.422 809.546 621.624 803.846 631.627 798.384C634.281 796.936 636.917 795.51 639.468 794.146C684.024 770.268 721.473 754.542 757.322 744.649C801.155 732.556 843.121 729.108 885.62 734.111C922.234 738.424 960.825 747.803 1003.59 762.792C1043.22 776.678 1081.15 793.451 1116.24 809.505C1132.14 816.786 1148.78 824.631 1170.18 834.942C1219.29 858.636 1269.36 883.536 1323.27 911.069C1372.89 936.411 1426.62 965.438 1487.52 999.81C1550.19 1035.24 1602.1 1064.84 1650.87 1092.97C1656.13 1096 1667.75 1101.71 1682.45 1108.93C1704.31 1119.68 1734.25 1134.39 1758.07 1147.72C1786.4 1163.57 1800.27 1174.13 1800.49 1180.01L1800.12 1180.02C1799.64 1166.94 1726.17 1130.84 1682.28 1109.27C1667.57 1102.04 1655.95 1096.33 1650.68 1093.29C1601.91 1065.16 1550.01 1035.56 1487.34 1000.13C1426.44 965.761 1372.72 936.737 1323.1 911.396C1269.19 883.864 1219.12 858.964 1170.02 835.272C1148.62 824.959 1131.98 817.117 1116.09 809.837C1047.43 778.421 967.339 744.101 885.574 734.474C788.778 723.075 706.935 758.407 639.641 794.468C637.094 795.83 634.458 797.255 631.804 798.704C621.801 804.162 611.603 809.862 601.74 815.373C536.403 851.88 468.842 889.63 391.812 896.814C355.989 900.156 319.942 896.9 284.253 887.132L284.255 887.136Z" fill="white"/>
<path d="M274.52 870.112C212.085 853.023 160.48 820.983 123.361 791.874C120.232 789.42 116.947 786.812 113.6 784.119C73.6605 751.997 38.4765 716.187 1.22481 678.271C-28.8403 647.672 -59.9289 616.027 -93.8114 586.443C-174.733 515.22 -266.928 483.304 -402.091 479.728L-402.081 479.314C-336.8 481.042 -284.486 488.863 -237.448 503.919C-184.036 521.02 -136.965 547.911 -93.5386 586.132C-59.6456 615.728 -28.5506 647.375 1.51945 677.981C38.7605 715.885 73.9356 751.69 113.858 783.798C117.202 786.489 120.487 789.097 123.614 791.548C181.188 836.698 273.675 888.921 387.319 881.306C461.706 876.322 526.736 842.171 589.625 809.145C599.758 803.823 610.235 798.321 620.512 793.073C623.062 791.773 625.625 790.475 628.13 789.222C671.741 767.325 708.17 753.079 742.771 744.386C785.576 733.63 826.413 731.194 867.611 736.937C941.606 747.249 1013.51 777.119 1083.05 806.007C1088.47 808.259 1093.86 810.499 1099.24 812.722C1117.34 820.218 1134.51 827.469 1153.49 835.493C1215.9 861.986 1261.54 881.776 1306.1 901.682C1358.1 924.903 1413.97 952.915 1472.16 984.934C1534.17 1019.17 1587.89 1049.87 1636.41 1078.81C1642.31 1082.33 1654.6 1088.57 1670.16 1096.47C1715.5 1119.49 1784.01 1154.29 1785.76 1168.18L1785.35 1168.24C1784.6 1162.31 1770.63 1151.44 1743.82 1135.96C1720.76 1122.63 1692.6 1108.33 1669.97 1096.84C1654.4 1088.94 1642.11 1082.69 1636.2 1079.17C1587.69 1050.23 1533.96 1019.52 1471.96 985.295C1413.78 953.278 1357.92 925.272 1305.93 902.057C1261.37 882.156 1215.73 862.362 1153.32 835.873C1134.35 827.85 1117.18 820.598 1099.08 813.103C1093.7 810.88 1088.31 808.636 1082.89 806.388C1013.37 777.508 941.494 747.651 867.551 737.347C774.314 724.353 694.292 756.469 628.311 789.596C625.805 790.849 623.247 792.144 620.697 793.445C610.423 798.69 599.947 804.193 589.814 809.514C526.887 842.559 461.815 876.731 387.343 881.722C346.846 884.434 309.021 879.556 274.513 870.113L274.52 870.112Z" fill="white"/>
<path d="M262.86 852.619C255.598 850.63 248.356 848.438 241.13 846.04C197.964 831.708 156.384 810.392 117.551 782.68C114.413 780.442 111.174 778.104 107.638 775.533C62.5898 742.753 22.8449 704.913 -19.2351 664.855C-46.3544 639.038 -74.3972 612.341 -104.476 586.58C-187.782 515.235 -280.143 482.877 -413.31 478.383L-413.294 477.926C-348.705 480.106 -296.399 488.424 -248.683 504.105C-195.622 521.539 -148.354 548.405 -104.179 586.234C-74.0917 612.003 -46.0424 638.702 -18.9175 664.524C23.1511 704.572 62.8885 742.401 107.91 775.164C111.443 777.734 114.685 780.073 117.82 782.31C175.003 823.116 267.406 870.787 382.865 866.166C454.731 863.29 517.343 832.65 577.896 803.018C588.231 797.961 598.919 792.729 609.403 787.767C611.899 786.585 614.385 785.421 616.799 784.302C659.461 764.413 694.869 751.655 728.228 744.149C770.003 734.753 809.705 733.316 849.605 739.764C911.561 749.775 973.115 773.748 1032.65 796.935C1048.98 803.296 1065.87 809.876 1082.24 815.942C1098.45 821.966 1117.62 829.065 1136.79 836.051C1148.73 840.426 1160.7 844.791 1172.27 849.015C1212 863.511 1249.53 877.203 1288.93 892.298C1342.11 912.67 1398.59 938.836 1456.8 970.066C1518.18 1003.14 1572.2 1034.09 1621.96 1064.67C1628.47 1068.66 1641.91 1075.71 1657.48 1083.87C1701.5 1106.96 1768.04 1141.85 1771.02 1156.37L1770.58 1156.46C1767.63 1142.16 1701.21 1107.33 1657.26 1084.28C1641.69 1076.11 1628.24 1069.06 1621.72 1065.05C1571.96 1034.48 1517.95 1003.54 1456.58 970.469C1398.39 939.25 1341.93 913.095 1288.76 892.727C1249.36 877.633 1211.84 863.941 1172.11 849.445C1160.53 845.225 1148.57 840.857 1136.63 836.481C1117.45 829.495 1098.29 822.397 1082.08 816.373C1065.71 810.307 1048.81 803.728 1032.48 797.364C972.969 774.186 911.436 750.221 849.529 740.217C759.818 725.724 681.635 754.581 616.986 784.721C614.572 785.841 612.087 787.005 609.594 788.187C599.112 793.15 588.428 798.379 578.093 803.436C517.499 833.089 454.845 863.75 382.881 866.63C342.933 868.23 302.657 863.524 262.858 852.629L262.86 852.619Z" fill="white"/>
<path d="M248.88 834.689C244.753 833.559 240.638 832.377 236.527 831.136C192.365 817.794 150.385 798.399 111.745 773.49C108.629 771.483 105.339 769.341 101.68 766.951C50.6475 733.58 5.55803 693.235 -42.1792 650.525C-65.5161 629.642 -89.6472 608.051 -115.146 586.72C-200.583 515.233 -293.112 482.433 -424.534 477.041L-424.515 476.541C-393.476 477.813 -365.523 480.536 -339.052 484.86C-310.744 489.483 -284.84 495.818 -259.858 504.22C-207.094 521.967 -159.657 548.828 -114.827 586.338C-89.3233 607.677 -65.1897 629.272 -41.8496 650.156C5.87307 692.856 50.9455 733.187 101.949 766.538C105.608 768.928 108.899 771.066 112.011 773.076C191.728 824.472 286.332 852.159 378.402 851.031C447.785 850.18 508.048 822.992 566.331 796.696C576.814 791.966 587.652 787.077 598.286 782.465C600.701 781.417 603.114 780.381 605.462 779.388C647.748 761.287 681.126 750.355 713.684 743.942C754.424 735.919 792.994 735.479 831.597 742.597C884.523 752.358 937.986 772.474 989.687 791.925C1014.61 801.302 1040.38 810.997 1065.23 819.162C1083.86 825.301 1102.31 831.168 1120.08 836.603C1140.51 842.906 1160.72 848.97 1180.26 854.834C1209.98 863.75 1240.7 872.968 1271.75 882.909C1325.63 900.164 1382.73 924.481 1441.44 955.19C1501.34 986.701 1557.21 1018.77 1607.51 1050.51C1614.6 1054.98 1628.43 1062.47 1644.45 1071.14C1689.88 1095.72 1752.08 1129.39 1756.29 1144.54L1755.81 1144.68C1751.66 1129.73 1687 1094.73 1644.22 1071.58C1628.19 1062.91 1614.35 1055.41 1607.24 1050.93C1556.95 1019.2 1501.09 987.133 1441.21 955.628C1382.52 924.936 1325.46 900.628 1271.6 883.383C1240.55 873.442 1209.83 864.222 1180.12 855.309C1160.58 849.446 1140.37 843.382 1119.94 837.078C1102.17 831.642 1083.71 825.774 1065.08 819.635C1040.22 811.468 1014.44 801.768 989.514 792.39C937.832 772.944 884.393 752.839 831.51 743.085C745.534 727.228 672.152 751.381 605.662 779.844C603.316 780.837 600.904 781.873 598.488 782.922C587.858 787.531 577.022 792.423 566.541 797.151C508.212 823.467 447.901 850.678 378.414 851.528C335.147 852.056 291.633 846.398 248.878 834.696L248.88 834.689Z" fill="white"/>
<path d="M231.146 816C186.609 803.808 144.182 786.391 105.944 764.298C102.959 762.573 99.7137 760.69 95.7275 758.367C37.2878 724.31 -14.4537 680.524 -69.2333 634.166C-87.4378 618.761 -106.263 602.83 -125.808 586.854C-212.297 516.151 -307.887 481.867 -435.754 475.693L-435.728 475.15C-373.167 478.171 -319.293 487.713 -271.025 504.327C-218.591 522.373 -170.978 549.229 -125.467 586.434C-105.919 602.414 -87.0941 618.344 -68.8872 633.753C-14.127 680.094 37.5975 723.866 95.9985 757.9C99.9847 760.224 103.23 762.106 106.215 763.831C183.964 808.748 279.049 834.337 373.956 835.886C440.888 836.978 498.867 813.189 554.935 790.184C565.51 785.844 576.449 781.356 587.182 777.153C589.453 776.264 591.728 775.389 593.999 774.513L594.136 774.46C659.548 749.274 731.408 728.324 813.596 745.418C859.451 754.956 906.35 772.365 951.702 789.2C983.565 801.028 1016.51 813.257 1048.23 822.373C1066.7 827.701 1084.74 832.535 1103.38 837.146C1127.09 843.089 1150.35 848.515 1172.84 853.764C1199.34 859.944 1226.73 866.335 1254.57 873.514C1308.96 887.542 1366.66 910.014 1426.08 940.304C1485.41 970.76 1541.58 1003.07 1593.06 1036.35C1600.7 1041.29 1614.8 1049.16 1631.13 1058.27C1675.45 1083.01 1736.14 1116.89 1741.56 1132.71L1741.05 1132.89C1735.69 1117.27 1675.11 1083.45 1630.87 1058.75C1614.53 1049.63 1600.42 1041.75 1592.77 1036.8C1541.3 1003.54 1485.14 971.238 1425.84 940.79C1366.45 910.514 1308.79 888.051 1254.44 874.039C1226.61 866.858 1199.21 860.47 1172.72 854.291C1150.22 849.045 1126.96 843.618 1103.25 837.675C1084.6 833.058 1066.56 828.223 1048.09 822.894C1016.34 813.774 983.388 801.54 951.515 789.709C906.182 772.882 859.304 755.481 813.489 745.949C731.435 728.882 659.668 749.809 594.334 774.965L594.197 775.018C591.926 775.894 589.651 776.77 587.383 777.66C576.654 781.86 565.719 786.346 555.143 790.685C499.023 813.713 440.996 837.524 373.95 836.43C325.627 835.639 277.258 828.624 231.149 816.004L231.146 816Z" fill="white"/>
<path d="M208.385 796.416C169.025 785.644 132.693 771.783 100.142 755.109C96.6651 753.329 93.2102 751.553 89.7706 749.785C58.8918 733.912 28.2034 714.643 -6.80414 689.148C-38.0336 666.402 -68.8601 641.501 -101.494 615.139C-112.833 605.978 -124.556 596.509 -136.473 586.991C-225.248 516.084 -321.009 481.341 -446.977 474.347L-446.945 473.762C-384.948 477.206 -331.058 487.24 -282.192 504.434C-230.12 522.757 -182.335 549.613 -136.111 586.536C-124.194 596.056 -112.468 605.526 -101.128 614.683C-34.7884 668.271 22.5051 714.551 90.0404 749.265C93.48 751.033 96.9349 752.808 100.409 754.588C174.838 792.716 270.407 816.209 369.502 820.743C434.016 823.693 489.761 803.262 543.67 783.503C554.3 779.607 565.288 775.58 576.074 771.84C577.944 771.193 579.815 770.552 581.686 769.915L582.806 769.533C610.158 760.2 646.449 748.823 684.642 743.639C723.339 738.384 759.63 739.889 795.586 748.244C835.691 757.564 877.094 772.959 917.139 787.85C954.786 801.848 993.713 816.323 1031.22 825.59C1049.6 830.154 1067.73 834.115 1086.67 837.7C1111.89 842.568 1136.48 846.632 1160.25 850.56C1185.22 854.685 1211.03 858.953 1237.39 864.126C1292.17 874.874 1350.48 895.5 1410.72 925.429C1469.53 954.891 1526.01 987.447 1578.6 1022.19C1586.76 1027.59 1601.01 1035.79 1617.51 1045.29C1660.84 1070.23 1720.18 1104.38 1726.82 1120.89L1726.27 1121.11C1719.72 1104.79 1660.48 1070.69 1617.22 1045.79C1600.71 1036.29 1586.46 1028.09 1578.28 1022.68C1525.71 987.946 1469.24 955.402 1410.46 925.952C1350.27 896.047 1292.01 875.436 1237.27 864.699C1210.92 859.528 1185.11 855.261 1160.16 851.138C1136.38 847.208 1111.79 843.141 1086.55 838.274C1067.61 834.687 1049.46 830.723 1031.08 826.156C993.539 816.882 954.592 802.403 916.93 788.398C876.904 773.514 835.516 758.123 795.45 748.816C716.963 730.578 646.953 748.265 582.988 770.09L581.869 770.471C579.998 771.108 578.127 771.746 576.26 772.394C565.482 776.132 554.494 780.159 543.868 784.053C489.903 803.833 434.103 824.285 369.47 821.328C320.621 819.092 272.771 812.35 227.24 801.288C220.88 799.743 214.589 798.117 208.378 796.418L208.385 796.416Z" fill="white"/>
<path d="M179.254 775.82C148.183 767.314 119.751 757.306 94.3485 745.915L93.1577 745.382C90.0315 743.981 86.9206 742.587 83.8249 741.199C5.00251 705.91 -62.3317 653.338 -140.298 592.463L-147.138 587.125C-238.3 515.974 -334.234 480.778 -458.199 472.998L-458.161 472.371C-334.062 480.158 -238.021 515.399 -146.753 586.631L-139.914 591.968C-61.9807 652.815 5.32437 705.367 84.08 740.625C87.1757 742.012 90.2867 743.406 93.413 744.807L94.6036 745.341C164.336 776.607 257.856 797.441 365.055 805.598C427.178 810.322 480.733 793.214 532.525 776.668C543.169 773.269 554.174 769.751 564.973 766.526C566.555 766.051 568.14 765.588 569.724 765.121L571.483 764.606C599.903 756.239 633.848 747.191 670.12 743.501C707.78 739.668 742.934 742.146 777.588 751.067C812.858 760.151 849.54 773.967 885.015 787.327C927.615 803.374 971.666 819.967 1014.22 828.8C1032.63 832.65 1050.87 835.738 1069.96 838.246C1095.96 841.762 1121.14 844.19 1145.48 846.537C1169.63 848.865 1194.59 851.271 1220.2 854.733C1275.33 862.178 1334.26 880.958 1395.36 910.551C1453.71 939.068 1510.5 971.868 1564.15 1008.04C1572.8 1013.87 1587.09 1022.35 1603.64 1032.16C1646.09 1057.35 1704.23 1091.84 1712.08 1109.06L1711.51 1109.32C1703.75 1092.28 1645.7 1057.85 1603.32 1032.71C1586.76 1022.88 1572.46 1014.4 1563.8 1008.56C1510.18 972.406 1453.41 939.621 1395.09 911.118C1334.05 881.556 1275.18 862.796 1220.12 855.36C1194.52 851.904 1169.56 849.496 1145.42 847.17C1121.07 844.821 1095.89 842.392 1069.88 838.876C1050.77 836.366 1032.52 833.277 1014.09 829.423C971.49 820.579 927.417 803.978 884.791 787.925C849.333 774.569 812.67 760.754 777.431 751.683C698.777 731.433 629.976 748.05 571.66 765.215L569.9 765.733C568.318 766.197 566.735 766.664 565.154 767.136C554.362 770.359 543.358 773.874 532.717 777.273C480.867 793.837 427.253 810.968 365.008 806.233C314.129 802.365 266.208 795.671 222.577 786.343C207.63 783.147 193.178 779.637 179.252 775.826L179.254 775.82Z" fill="white"/>
<path d="M143.792 754.702C123.796 749.227 105.466 743.26 88.5502 736.727C84.966 735.343 81.4115 733.976 77.8748 732.619C39.2226 717.79 1.7355 698.401 -40.1014 671.604C-76.9669 647.989 -113.815 620.81 -157.803 587.262C-251.459 515.833 -347.567 480.177 -469.422 471.653L-469.374 470.984C-425.592 474.048 -385.114 480.613 -346.894 491.075C-278.62 509.765 -217.51 540.883 -157.397 586.732C-78.1387 647.181 -5.71215 699.832 78.1145 731.994C81.6512 733.35 85.2081 734.722 88.7924 736.106C168.357 766.831 270.844 780.826 360.606 790.463C420.359 796.878 471.767 783.06 521.479 769.697C532.104 766.839 543.094 763.886 553.874 761.222C555.229 760.884 556.589 760.558 557.946 760.227L560.161 759.688C587.981 752.897 621.075 745.651 655.593 743.398C692.218 741.013 726.237 744.443 759.588 753.901C790.677 762.714 823.192 775.225 854.633 787.324C901.585 805.391 950.134 824.07 997.204 832.021C1015.28 835.104 1033.61 837.32 1053.25 838.803C1079.38 840.776 1104.54 841.461 1128.88 842.126C1152.79 842.777 1177.52 843.451 1203.02 845.349C1258.45 849.479 1317.99 866.411 1380 895.675C1437.14 922.905 1495.82 956.865 1549.7 993.889C1558.78 1000.13 1573 1008.82 1589.47 1018.89C1633.49 1045.79 1688.26 1079.27 1697.34 1097.24L1696.74 1097.54C1687.75 1079.74 1630.74 1044.9 1589.12 1019.46C1572.64 1009.39 1558.41 1000.69 1549.31 994.44C1495.46 957.437 1436.81 923.494 1379.71 896.281C1317.77 867.051 1258.31 850.141 1202.96 846.016C1177.48 844.118 1152.76 843.446 1128.85 842.793C1104.51 842.13 1079.34 841.443 1053.19 839.47C1033.53 837.985 1015.18 835.765 997.087 832.681C949.949 824.718 901.367 806.024 854.387 787.948C822.958 775.855 790.458 763.35 759.398 754.544C758.544 754.303 757.687 754.064 756.835 753.83C682.993 733.618 616.726 746.562 560.313 760.335L558.095 760.873C556.738 761.204 555.381 761.531 554.026 761.869C543.253 764.535 532.267 767.485 521.646 770.34C471.872 783.72 420.404 797.554 360.527 791.124C301.536 784.791 257.538 778.697 217.875 771.372C190.839 766.378 166.259 760.853 143.786 754.7L143.792 754.702Z" fill="white"/>
<path d="M106.629 734.657C98.471 732.424 90.5048 730.056 82.7583 727.537C79.1186 726.352 75.5111 725.188 71.9318 724.034C32.2132 711.26 -7.19287 693.237 -48.5389 668.94C-82.9319 648.728 -119.916 623.58 -168.466 587.4C-231.133 540.694 -293.823 509.081 -362.933 490.165C-399.994 480.02 -438.887 473.526 -480.645 470.304L-480.59 469.593C-420.269 474.247 -366.321 485.741 -315.666 504.731C-264.94 523.747 -216.65 550.6 -168.043 586.827C-81.6648 651.203 -11.3524 696.497 72.1466 723.356C75.7299 724.508 79.3366 725.675 82.977 726.857C147.013 747.687 226.201 758.094 302.783 768.156C320.315 770.46 338.445 772.842 356.156 775.317C413.556 783.337 462.841 772.783 510.506 762.578C521.094 760.311 532.04 757.967 542.777 755.905C543.966 755.674 545.158 755.451 546.349 755.227C547.179 755.069 548.011 754.916 548.845 754.755C577.466 749.307 608.45 744.151 641.067 743.306C676.652 742.383 709.534 746.772 741.589 756.723C768.965 765.223 796.434 776.088 825.515 787.593C876.37 807.712 928.957 828.514 980.197 835.233C998.442 837.655 1016.87 839.002 1036.53 839.351C1062.91 839.822 1088.17 838.727 1112.6 837.67C1136.19 836.651 1160.58 835.596 1185.83 835.958C1241.54 836.764 1301.7 851.848 1364.64 880.796C1421.43 907.185 1480.43 941.395 1535.25 979.732C1544.7 986.339 1558.75 995.185 1575.02 1005.42C1618.35 1032.7 1672.28 1066.64 1682.61 1085.41L1681.99 1085.76C1671.74 1067.15 1617.91 1033.26 1574.65 1006.03C1558.37 995.784 1544.31 986.937 1534.85 980.32C1480.06 942.007 1421.1 907.818 1364.34 881.449C1301.5 852.545 1241.43 837.48 1185.82 836.677C1160.59 836.312 1136.21 837.366 1112.64 838.388C1088.2 839.445 1062.93 840.542 1036.52 840.069C1016.84 839.717 998.38 838.368 980.109 835.943C928.781 829.214 876.154 808.396 825.258 788.261C796.19 776.763 768.733 765.9 741.383 757.41C670.313 735.349 607.369 744.349 548.984 755.46C548.151 755.617 547.318 755.774 546.488 755.932C545.3 756.156 544.109 756.379 542.92 756.607C532.189 758.67 521.244 761.014 510.663 763.28C462.937 773.498 413.589 784.064 356.065 776.026C338.357 773.552 320.231 771.17 302.699 768.867C235.345 760.016 165.973 750.9 106.636 734.658L106.629 734.657Z" fill="white"/>
<path d="M60.5276 713.991C21.1836 703.223 -17.3122 687.588 -56.9807 666.283C-93.4236 646.711 -132.239 621.688 -179.131 587.536C-278.154 515.418 -374.603 478.847 -491.868 468.958L-491.804 468.205C-374.394 478.107 -277.824 514.723 -178.686 586.925C-84.1079 655.805 -14.2806 692.732 60.4965 713.196C62.3904 713.715 64.2768 714.221 66.179 714.718C69.8049 715.668 73.4686 716.629 77.1606 717.614C125.272 730.407 180.44 737.205 238.844 744.401C275.98 748.978 314.383 753.712 351.709 760.175C406.765 769.711 453.947 762.4 499.576 755.331C510.107 753.7 521.002 752.01 531.683 750.591C532.727 750.452 533.774 750.317 534.821 750.182C535.722 750.064 536.626 749.95 537.528 749.829C563.693 746.365 594.31 742.717 626.537 743.243C661.085 743.807 692.83 749.142 723.586 759.551C747.58 767.671 771.723 777.541 797.282 787.992C851.719 810.248 908.008 833.262 963.182 838.447C981.601 840.209 1000.13 840.686 1019.81 839.903C1046.32 838.851 1071.56 835.955 1095.98 833.154C1119.34 830.473 1143.51 827.701 1168.63 826.569C1224.61 824.047 1285.39 837.284 1349.28 865.912C1405.76 891.494 1465.07 925.958 1520.8 965.574C1530.54 972.5 1544.3 981.418 1560.24 991.745C1603.01 1019.46 1656.24 1053.96 1667.87 1073.58L1667.22 1073.97C1655.69 1054.49 1602.53 1020.05 1559.83 992.378C1543.88 982.046 1530.12 973.123 1520.36 966.188C1464.68 926.598 1405.41 892.161 1348.97 866.599C1285.19 838.019 1224.53 824.802 1168.67 827.32C1143.57 828.452 1119.42 831.22 1096.06 833.9C1071.63 836.702 1046.37 839.598 1019.84 840.653C1000.12 841.438 981.562 840.96 963.11 839.194C907.824 833.997 851.482 810.961 796.996 788.687C771.449 778.242 747.319 768.375 723.344 760.263C656.176 737.536 594.771 743.014 537.628 750.575C536.726 750.693 535.822 750.81 534.917 750.927C533.87 751.062 532.826 751.198 531.782 751.338C521.107 752.758 510.221 754.442 499.693 756.074C454.004 763.153 406.76 770.473 351.58 760.916C314.274 754.454 275.882 749.722 238.752 745.147C180.322 737.946 125.131 731.145 76.9683 718.34C73.2724 717.358 69.612 716.397 65.986 715.448C64.167 714.97 62.3431 714.485 60.5252 713.987L60.5276 713.991Z" fill="white"/>
<path d="M27.9744 699.223C-3.4268 690.629 -34.2313 678.88 -65.4221 663.639C-103.804 644.884 -143.326 620.747 -189.794 587.674C-291.706 515.141 -388.33 478.112 -503.091 467.612L-503.017 466.818C-388.108 477.332 -291.364 514.408 -189.33 587.026C-95.1952 654.026 -20.5664 689.633 60.2093 706.09C63.7013 706.8 67.469 707.57 71.3459 708.378C109.617 716.335 152.487 720.538 197.872 724.983C247.103 729.809 298.013 734.798 347.266 745.041C399.982 756.006 445.066 751.911 488.662 747.953C499.14 747.002 509.971 746.018 520.597 745.284C521.52 745.221 522.443 745.159 523.368 745.1C524.317 745.037 525.27 744.974 526.221 744.908C553.172 743.03 581.995 741.348 612.006 743.207C645.526 745.283 676.136 751.554 705.589 762.383C726.427 770.044 747.428 778.954 769.662 788.389C827.449 812.911 887.202 838.267 946.167 841.668C964.766 842.771 983.386 842.374 1003.09 840.462C1029.65 837.882 1054.81 833.177 1079.14 828.628C1102.36 824.288 1126.36 819.801 1151.44 817.193C1207.95 811.312 1269.34 822.702 1333.91 851.045C1389.66 875.514 1449.29 910.228 1506.34 951.429C1516.28 958.601 1530.26 967.929 1545.07 977.804C1587.43 1006.06 1640.16 1041.22 1653.13 1061.77L1652.45 1062.19C1639.57 1041.79 1586.93 1006.68 1544.63 978.467C1529.82 968.587 1515.82 959.257 1505.88 952.076C1448.86 910.906 1389.29 876.224 1333.59 851.777C1269.15 823.49 1207.89 812.123 1151.52 817.989C1126.47 820.594 1102.49 825.077 1079.29 829.414C1054.94 833.966 1029.75 838.673 1003.16 841.259C983.418 843.179 964.758 843.573 946.116 842.467C924.95 841.248 903.683 837.203 882.46 831.395C844.415 820.983 806.479 804.884 769.346 789.128C747.121 779.698 726.133 770.791 705.31 763.137C642.141 739.917 584.576 741.643 526.27 745.71C525.317 745.776 524.364 745.838 523.414 745.901C522.492 745.961 521.57 746.023 520.647 746.086C510.031 746.819 499.204 747.801 488.73 748.752C445.071 752.717 399.929 756.815 347.098 745.827C297.886 735.593 246.999 730.606 197.788 725.781C152.377 721.33 109.488 717.127 71.1747 709.16C67.3011 708.353 63.5325 707.586 60.0413 706.873C49.2577 704.675 38.5765 702.13 27.9672 699.225L27.9744 699.223Z" fill="white"/>
<path d="M-3.10885 686.304C-26.9249 679.786 -50.3654 671.394 -73.8626 661.005C-113.313 643.562 -154.723 619.62 -200.457 587.815C-305.418 514.813 -402.217 477.328 -514.314 466.27L-514.232 465.434C-455.551 471.222 -401.539 484.167 -349.115 505.006C-300.325 524.399 -251.543 551.263 -199.977 587.127C-106.835 651.909 -30.8084 684.907 54.234 697.457L54.5693 697.506C58.176 698.037 61.8274 698.579 65.5222 699.137C97.0672 703.905 131.766 706.121 168.506 708.465C226.063 712.137 285.581 715.935 342.824 729.908C393.185 742.2 436.154 741.298 477.712 740.425C488.148 740.205 498.938 739.979 509.518 739.981C510.342 739.98 511.166 739.982 511.99 739.985C512.965 739.988 513.943 739.992 514.919 739.989C538.445 739.945 567.727 739.889 597.471 743.197C629.968 746.813 659.449 754.015 687.595 765.216C705.42 772.31 723.385 780.252 742.41 788.665C803.392 815.626 866.45 843.504 929.154 844.889C947.94 845.334 966.654 844.068 986.372 841.022C1012.94 836.916 1037.98 830.402 1062.2 824.103C1085.3 818.095 1109.18 811.885 1134.25 807.809C1163.29 803.089 1194.05 803.301 1225.67 808.444C1255.44 813.285 1286.69 822.612 1318.56 836.164C1374.55 860.237 1434.49 895.198 1491.9 937.272C1501.89 944.595 1515.27 953.777 1529.44 963.496C1571.57 992.402 1624 1028.37 1638.4 1049.94L1637.7 1050.41C1623.4 1028.97 1571.04 993.054 1528.97 964.189C1514.79 954.464 1501.4 945.282 1491.4 937.95C1434.04 895.914 1374.16 860.983 1318.22 836.935C1252.54 809.005 1190.69 799.485 1134.38 808.636C1109.35 812.704 1085.48 818.911 1062.41 824.914C1038.17 831.218 1013.11 837.734 986.494 841.847C966.73 844.903 947.965 846.171 929.129 845.724C900.988 845.101 870.061 838.99 834.587 827.037C803.217 816.468 772.127 802.723 742.064 789.431C723.048 781.023 705.089 773.085 687.28 765.996C623.528 740.621 565.826 740.731 514.917 740.826C513.937 740.828 512.959 740.824 511.981 740.821C511.158 740.818 510.334 740.816 509.513 740.814C498.943 740.811 488.156 741.038 477.728 741.256C436.119 742.131 393.09 743.033 342.623 730.716C285.454 716.761 225.972 712.967 168.451 709.297C131.695 706.953 96.9759 704.735 65.3949 699.962C61.7001 699.404 58.0511 698.867 54.4452 698.332L54.1099 698.283C34.6712 695.415 15.6626 691.44 -3.11135 686.3L-3.10885 686.304Z" fill="white"/>
<path d="M-32.2499 675.169C-49.0827 670.563 -65.711 664.983 -82.3028 658.385C-123.142 642.15 -165.276 619.113 -211.119 587.953C-320.764 513.431 -414.797 476.636 -525.54 464.92L-525.447 464.04C-467.306 470.189 -413.276 483.616 -360.262 505.084C-312.321 524.499 -263.375 551.367 -210.625 587.217C-118.014 650.163 -40.5924 680.548 48.2568 688.817L50.6155 689.037C53.6104 689.315 56.6379 689.596 59.7 689.889C86.3929 692.444 115.336 693.151 145.98 693.896C177.162 694.656 209.404 695.441 241.882 698.255C278.711 701.443 310.283 706.85 338.384 714.761C386.339 728.272 427.157 730.521 466.626 732.695C477.066 733.27 487.861 733.866 498.441 734.665C499.159 734.717 499.876 734.776 500.593 734.832C501.602 734.91 502.61 734.988 503.622 735.063L506.923 735.299C531.853 737.082 557.635 738.925 584.739 743.5C615.501 748.692 643.26 756.72 669.6 768.042C684.472 774.433 699.452 781.361 715.309 788.689C779.399 818.316 845.669 848.95 912.138 848.099C931.108 847.883 949.918 845.751 969.644 841.572C996.196 835.95 1021.09 827.632 1045.17 819.589C1068.17 811.904 1091.96 803.957 1117.05 798.422C1146.3 791.972 1177.35 790.859 1209.35 795.118C1239.33 799.106 1270.9 807.909 1303.2 821.284C1332.02 833.352 1361.94 848.489 1392.12 866.28C1420.52 883.02 1449.23 902.145 1477.45 923.118C1487.31 930.449 1499.88 939.314 1513.19 948.703C1555.31 978.418 1607.73 1015.4 1623.66 1038.12L1622.94 1038.63C1607.1 1016.03 1554.74 979.1 1512.68 949.425C1499.37 940.035 1486.79 931.165 1476.92 923.829C1418.78 880.614 1358.59 845.439 1302.85 822.104C1236.2 794.503 1173.75 786.828 1117.24 799.292C1092.2 804.815 1068.43 812.756 1045.45 820.433C1021.35 828.485 996.431 836.81 969.827 842.442C950.043 846.634 931.174 848.773 912.147 848.989C882.327 849.371 849.588 843.301 812.063 830.44C778.954 819.089 746.409 804.048 714.939 789.5C699.085 782.172 684.112 775.25 669.252 768.861C610.458 743.592 555.419 739.659 506.859 736.187L503.558 735.95C502.545 735.878 501.534 735.799 500.526 735.721C499.808 735.666 499.094 735.611 498.377 735.555C487.806 734.758 477.014 734.163 466.578 733.589C427.883 731.456 387.896 729.249 341.138 716.454C340.14 716.18 339.146 715.906 338.144 715.621C275.383 697.958 206.629 696.266 145.958 694.789C115.298 694.044 86.3379 693.336 59.6156 690.778C56.5567 690.486 53.529 690.205 50.5341 689.927L48.1747 689.71C20.5337 687.138 -6.098 682.334 -32.2545 675.175L-32.2499 675.169Z" fill="white"/>
<path d="M-59.2887 665.647C-69.8411 662.758 -80.3058 659.469 -90.7346 655.771C-132.829 640.841 -175.695 618.701 -221.782 588.091C-301.516 535.133 -371.871 500.996 -444.158 481.209C-474.412 472.926 -504.994 467.163 -536.763 463.574L-536.658 462.653C-479.055 469.158 -425 483.065 -371.4 505.167C-323.798 524.798 -276.094 550.902 -221.267 587.32C-128.863 648.694 -50.0429 676.467 42.2827 680.191C43.7426 680.25 45.2097 680.308 46.6872 680.365C49.0614 680.458 51.4588 680.553 53.8746 680.655C76.9437 681.614 101.676 681.162 127.861 680.684C193.095 679.495 267.034 678.154 333.944 699.628C379.38 714.214 417.931 719.55 455.217 724.713C465.768 726.175 476.678 727.685 487.367 729.367C488.003 729.468 488.643 729.569 489.282 729.671C490.295 729.834 491.308 729.994 492.326 730.148C495.636 730.653 498.971 731.152 502.329 731.654C547.088 738.362 597.819 745.968 651.601 770.878C663.523 776.399 675.493 782.208 688.171 788.355C752.206 819.419 824.789 854.629 895.115 851.321C914.271 850.448 933.176 847.442 952.913 842.136C979.435 835.003 1004.17 824.888 1028.08 815.106C1051.01 805.728 1074.71 796.032 1099.84 789.043C1129.28 780.855 1160.63 778.412 1193.01 781.782C1223.21 784.925 1255.11 793.209 1287.82 806.402C1316.73 818.183 1346.84 833.304 1377.32 851.337C1405.7 868.13 1434.53 887.52 1462.99 908.959C1472.45 916.084 1483.93 924.404 1496.08 933.211C1538.5 963.956 1591.29 1002.22 1608.91 1026.29L1608.17 1026.84C1590.63 1002.88 1537.9 964.668 1495.54 933.962C1483.38 925.151 1471.9 916.834 1462.43 909.7C1403.53 865.331 1343.03 829.907 1287.47 807.261C1219.85 779.991 1156.81 774.162 1100.09 789.933C1075.01 796.907 1051.33 806.591 1028.43 815.959C1004.49 825.752 979.73 835.877 953.148 843.024C933.346 848.349 914.375 851.364 895.151 852.241C863.613 853.725 829.022 847.692 789.4 833.799C754.529 821.573 720.586 805.106 687.757 789.183C675.086 783.037 663.116 777.228 651.203 771.712C597.543 746.857 546.882 739.264 502.182 732.566C498.821 732.06 495.487 731.561 492.176 731.06C491.158 730.905 490.142 730.742 489.126 730.581C488.489 730.48 487.85 730.375 487.213 730.277C476.531 728.597 465.624 727.088 455.08 725.627C423.688 721.281 391.389 716.809 354.838 706.807C347.931 704.916 340.879 702.831 333.646 700.509C266.882 679.071 193.026 680.421 127.863 681.606C101.665 682.084 76.9162 682.533 53.8201 681.574C51.4036 681.475 49.0062 681.381 46.6327 681.285C45.1552 681.228 43.685 681.169 42.225 681.11C6.90511 679.684 -26.5853 674.595 -59.3072 665.639L-59.2887 665.647Z" fill="white"/>
<path d="M-84.3059 657.533C-89.2783 656.173 -94.2233 654.721 -99.1623 653.17C-142.416 639.609 -186.014 618.365 -232.445 588.231C-318.973 532.07 -417.091 477.937 -547.99 462.231L-547.875 461.268C-490.808 468.116 -436.727 482.502 -382.547 505.249C-336.14 524.732 -288.276 550.842 -231.92 587.419C-181.051 620.433 -132.821 643.114 -83.7803 656.539C-44.8452 667.197 -5.41037 672.021 36.2995 671.563C38.3976 671.539 40.5163 671.513 42.6516 671.487C44.4361 671.466 46.2349 671.441 48.0465 671.419C68.3526 671.185 89.9289 669.833 112.771 668.402C181.619 664.09 259.656 659.2 329.504 684.498C372.105 699.926 408.154 708.216 443.021 716.229C454.447 718.856 465.24 721.338 476.303 724.067C476.861 724.204 477.421 724.345 477.982 724.483C478.998 724.734 480.016 724.989 481.04 725.236C486.728 726.601 492.37 727.914 498.341 729.31C539.04 738.809 585.167 749.572 633.608 773.711C642.498 778.139 651.382 782.68 660.791 787.489C727.786 821.726 803.719 860.533 878.096 854.541C897.604 852.994 916.605 849.122 936.186 842.697C962.775 834.085 987.403 822.131 1011.22 810.567C1033.99 799.512 1057.53 788.08 1082.64 779.667C1112.27 769.739 1143.91 765.962 1176.67 768.444C1207.09 770.75 1239.32 778.516 1272.46 791.529C1301.46 803.033 1331.77 818.132 1362.53 836.405C1390.9 853.259 1419.84 872.91 1448.55 894.813C1457.19 901.405 1467.16 908.824 1477.71 916.679C1520.88 948.79 1574.59 988.754 1594.18 1014.47L1593.4 1015.06C1573.9 989.451 1520.25 949.532 1477.13 917.459C1466.57 909.603 1456.6 902.183 1447.95 895.586C1387.47 849.434 1328.3 814.727 1272.1 792.437C1203.51 765.504 1139.87 761.517 1082.95 780.594C1057.9 788.988 1034.38 800.405 1011.64 811.446C987.792 823.023 963.134 834.995 936.483 843.626C916.829 850.075 897.754 853.961 878.168 855.513C803.516 861.526 727.454 822.652 660.344 788.359C650.939 783.551 642.053 779.013 633.17 774.583C584.833 750.496 538.76 739.744 498.115 730.258C492.141 728.865 486.496 727.547 480.808 726.182C479.784 725.936 478.762 725.683 477.743 725.428C477.182 725.29 476.626 725.15 476.068 725.013C465.012 722.282 454.222 719.804 442.799 717.178C407.906 709.155 371.824 700.862 329.172 685.411C259.509 660.182 181.583 665.064 112.83 669.371C89.9742 670.802 68.3875 672.155 48.0544 672.39C46.2428 672.412 44.4448 672.433 42.6602 672.455C40.5242 672.483 38.4055 672.509 36.3075 672.533C-6.15112 673 -45.7734 668.083 -84.3098 657.535L-84.3059 657.533Z" fill="white"/>
<path d="M-107.502 650.597C-107.528 650.591 -107.553 650.585 -107.578 650.576C-151.93 638.426 -196.261 618.079 -243.104 588.37C-346.451 522.824 -439.76 476.06 -559.213 460.882L-559.085 459.879C-502.552 467.062 -448.445 481.926 -393.683 505.322C-348.091 524.799 -301.484 550.148 -242.564 587.517C-151.023 645.573 -66.863 668.832 30.32 662.932C33.0795 662.766 35.8759 662.585 38.706 662.404L42.2186 662.181C60.3924 661.027 79.562 658.956 99.8566 656.761C171.691 648.993 253.107 640.189 325.072 669.363C363.773 685.055 396.527 695.881 428.201 706.351C440.926 710.558 452.942 714.53 465.244 718.776L466.648 719.26C467.683 719.62 468.719 719.976 469.759 720.328C478.097 723.133 486.482 725.831 495.359 728.692C531.682 740.391 572.849 753.646 615.619 776.548C621.317 779.598 626.973 782.657 632.958 785.896C702.983 823.77 782.352 866.699 861.079 857.765C880.747 855.558 899.845 850.816 919.461 843.266C945.99 833.16 970.424 819.425 994.049 806.139C1016.76 793.368 1040.24 780.167 1065.45 770.294C1095.26 758.617 1127.18 753.502 1160.33 755.096C1190.98 756.569 1223.54 763.823 1257.1 776.653C1286.2 787.887 1316.7 802.967 1347.73 821.473C1376.09 838.384 1405.15 858.297 1434.09 880.658C1441.22 886.162 1449.03 892.112 1457.29 898.413C1501.91 932.439 1557.46 974.782 1579.44 1002.65L1578.64 1003.27C1556.74 975.511 1501.26 933.208 1456.67 899.219C1448.41 892.918 1440.6 886.967 1433.47 881.459C1372.27 834.182 1312.81 799.239 1256.73 777.596C1187.16 751.001 1122.92 748.86 1065.81 771.235C1040.68 781.079 1017.22 794.267 994.542 807.018C970.883 820.32 946.417 834.074 919.819 844.205C900.123 851.784 880.943 856.548 861.188 858.765C825.929 862.767 787.327 856.692 743.182 840.199C704.579 825.778 667.921 805.952 632.474 786.779C626.489 783.543 620.837 780.484 615.138 777.435C572.449 754.578 531.326 741.336 495.047 729.651C486.167 726.789 477.778 724.09 469.434 721.283C468.391 720.931 467.352 720.571 466.313 720.213L464.913 719.73C452.617 715.485 440.602 711.514 427.883 707.308C396.193 696.831 363.42 686.001 324.688 670.298C252.96 641.219 171.675 650.009 99.9616 657.764C79.6534 659.959 60.4727 662.034 42.2791 663.187L38.7664 663.411C35.9364 663.591 33.1366 663.771 30.3771 663.938C-18.7119 666.916 -63.8158 662.551 -107.508 650.592L-107.502 650.597Z" fill="white"/>
<path d="M-129.217 644.617C-170.17 633.408 -211.05 614.977 -253.766 588.508C-363.74 520.357 -455.076 475.007 -570.439 459.536L-570.299 458.491C-514.294 466.002 -460.165 481.345 -404.818 505.393C-348.986 529.651 -296.847 560.569 -253.209 587.612C-161.206 644.625 -75.6062 665.194 24.3402 654.305C27.8662 653.92 31.375 653.52 35.0919 653.094L36.3875 652.945C52.8944 651.058 70.2115 648.391 88.5438 645.564C162.914 634.104 247.207 621.113 320.64 654.228C346.661 665.962 369.543 676.009 391.669 685.726C413.272 695.213 433.677 704.172 454.193 713.482L455.404 714.03C456.428 714.496 457.452 714.964 458.486 715.418C469.846 720.448 481.48 725.282 493.794 730.398C526.833 744.125 560.994 758.317 597.634 779.373C599.88 780.665 602.141 781.966 604.414 783.274C673.977 823.313 760.552 873.144 844.063 860.975C863.895 858.106 883.087 852.494 902.739 843.821C929.209 832.228 953.441 816.721 976.873 801.726C999.526 787.229 1022.95 772.242 1048.25 760.911C1078.23 747.483 1110.44 741.031 1143.98 741.734C1174.86 742.383 1207.76 749.123 1241.74 761.767C1297.82 782.815 1357.67 818.052 1419.65 866.499C1423.95 869.859 1428.45 873.362 1433.09 876.978C1477.99 911.955 1539.49 959.857 1564.71 990.817L1563.89 991.486C1538.74 960.62 1477.3 912.76 1432.44 877.813C1427.8 874.196 1423.3 870.694 1419 867.334C1357.11 818.949 1297.34 783.767 1241.37 762.756C1170.81 736.506 1105.98 736.212 1048.68 761.874C1023.45 773.174 1000.06 788.142 977.441 802.616C953.973 817.633 929.706 833.162 903.162 844.785C883.423 853.499 864.142 859.138 844.216 862.019C806.851 867.466 765.978 861.258 719.262 843.043C678.587 827.185 638.901 804.342 603.889 784.191C601.616 782.883 599.355 781.582 597.109 780.29C560.529 759.267 526.399 745.087 493.389 731.376C481.067 726.258 469.43 721.42 458.058 716.384C457.021 715.926 455.995 715.457 454.967 714.991L453.759 714.443C433.245 705.137 412.845 696.176 391.247 686.693C369.118 676.975 346.236 666.925 320.209 655.19C247.06 622.203 162.934 635.168 88.7068 646.607C70.3642 649.435 53.04 652.104 36.5092 653.992L35.2137 654.141C31.4936 654.566 27.9808 654.968 24.4549 655.354C-25.7978 660.829 -71.7371 658.421 -115.985 647.987C-120.397 646.946 -124.809 645.825 -129.217 644.617Z" fill="white"/>
<path d="M-149.689 639.427C-187.547 629.064 -225.313 612.334 -264.429 588.648C-361.661 529.775 -459.09 475.494 -581.665 458.189L-581.512 457.104C-552.183 461.244 -524.017 467.41 -495.403 475.949C-469.164 483.782 -443.178 493.435 -415.956 505.463C-363.092 528.817 -311.613 558.794 -263.86 587.712C-171.247 643.791 -84.2069 661.666 18.3559 645.68C22.4058 645.047 26.6051 644.364 30.5576 643.716C45.7417 641.226 61.5996 638.051 78.3887 634.688C117.066 626.946 157.062 618.939 197.737 617.29C244.27 615.405 283.021 622.54 316.205 639.103C366.418 664.162 405.419 686.553 443.137 708.208L444.05 708.732C445.101 709.335 446.151 709.94 447.207 710.534C462.239 718.973 478.003 727.051 494.689 735.601C521.86 749.524 549.956 763.92 579.639 782.223C646.551 823.476 738.188 879.972 827.034 864.209C847.033 860.682 866.321 854.2 886.001 844.4C912.41 831.33 936.44 814.065 959.677 797.37C982.271 781.134 1005.63 764.349 1031.04 751.553C1061.19 736.372 1093.68 728.578 1127.6 728.391C1158.73 728.22 1191.96 734.448 1226.37 746.902C1282.37 767.335 1342.54 802.817 1405.2 852.361C1447.98 886.19 1519.6 942.81 1549.96 979.009L1549.12 979.716C1518.83 943.605 1447.27 887.027 1404.52 853.225C1341.95 803.753 1281.89 768.331 1226 747.938C1154.45 722.037 1089.02 723.583 1031.54 752.537C1006.21 765.294 982.879 782.056 960.321 798.266C937.047 814.99 912.981 832.281 886.493 845.39C866.717 855.239 847.332 861.749 827.227 865.296C788.222 872.217 745.711 866.111 697.264 846.634C653.418 829.004 610.442 802.51 579.062 783.165C549.413 764.887 521.335 750.498 494.185 736.587C477.487 728.03 461.718 719.948 446.667 711.501C445.608 710.907 444.552 710.3 443.502 709.694L442.588 709.17C404.885 687.525 365.899 665.141 315.713 640.098C241.652 603.136 155.03 620.478 78.602 635.777C61.8027 639.141 45.9376 642.317 30.7328 644.809C26.7771 645.456 22.5771 646.142 18.5241 646.775C-32.8256 654.779 -79.5713 654.334 -124.386 645.416C-132.835 643.736 -141.267 641.744 -149.688 639.438L-149.689 639.427Z" fill="white"/>
<path d="M-169.082 634.897C-204.148 625.301 -239.115 610.069 -275.088 588.787C-361.869 537.449 -438.308 494.877 -525.42 471.033C-547.143 465.089 -569.511 460.309 -592.888 456.844L-592.722 455.714C-563.477 460.05 -535.296 466.455 -506.563 475.304C-480.503 483.329 -454.505 493.213 -427.089 505.527C-375.339 528.766 -325.387 557.706 -274.508 587.805C-181.154 643.034 -92.6748 658.223 12.3696 637.051C16.7064 636.177 21.0464 635.261 24.723 634.479C38.8608 631.472 53.5721 627.852 69.1462 624.017C106.897 614.729 149.684 604.197 191.289 601.407C238.948 598.208 278.356 605.589 311.773 623.971C353.364 646.851 386.319 670.335 418.192 693.049C422.739 696.291 427.441 699.641 432.082 702.928L432.722 703.383C433.789 704.137 434.855 704.894 435.93 705.64C455.749 719.388 477.205 732.468 499.918 746.318C519.795 758.437 540.345 770.972 561.649 785.057C636.281 834.401 723.176 885.533 810.01 867.424C830.176 863.235 849.561 855.888 869.272 844.961C895.618 830.423 919.443 811.409 942.48 793.02C965.011 775.037 988.31 756.442 1013.83 742.171C1044.13 725.236 1076.9 716.102 1111.22 715.019C1142.6 714.03 1176.17 719.747 1211 732.014C1266.94 751.851 1327.42 787.575 1390.74 838.198C1461.83 895.025 1510.43 938.421 1535.22 967.176L1534.35 967.921C1509.62 939.221 1461.06 895.873 1390.03 839.09C1326.81 788.546 1266.45 752.885 1210.62 733.089C1138.09 707.543 1072.07 710.931 1014.39 743.163C988.947 757.384 965.687 775.951 943.193 793.905C920.116 812.322 896.257 831.369 869.823 845.954C850.011 856.939 830.52 864.326 810.241 868.537C789.39 872.883 767.11 873.378 744.023 869.999C723.609 867.013 701.777 860.879 679.132 851.76C637.208 834.881 597.586 810.179 561.017 786C539.731 771.925 519.186 759.399 499.321 747.283C476.594 733.422 455.127 720.333 435.278 706.568C434.2 705.822 433.131 705.064 432.062 704.306L431.422 703.851C426.78 700.564 422.076 697.213 417.528 693.971C385.681 671.277 352.752 647.808 311.221 624.963C236.679 583.959 147.817 605.824 69.4172 625.118C53.8327 628.954 39.111 632.575 24.959 635.586C21.2823 636.368 16.9353 637.286 12.5946 638.162C-39.8076 648.723 -87.3607 650.244 -132.774 642.818C-144.918 640.832 -157.008 638.196 -169.084 634.89L-169.082 634.897Z" fill="white"/>
<path d="M-187.567 630.913C-220.108 622.006 -252.551 608.111 -285.744 588.926L-288.61 587.268C-393.7 526.527 -484.461 474.068 -604.114 455.494L-603.932 454.324C-549.168 462.824 -496.964 478.907 -439.639 504.939C-388.531 528.147 -339.707 556.365 -288.02 586.242L-285.154 587.9C-190.958 642.341 -101.042 654.838 6.3894 628.424C9.9922 627.538 13.9632 626.527 18.8913 625.243C32.18 621.783 45.9732 617.762 60.5738 613.505C99.129 602.263 142.83 589.52 185.265 585.546C233.93 580.988 273.863 588.607 307.346 608.841C345.564 631.938 375.44 657.983 404.334 683.171C409.798 687.933 415.446 692.858 421.033 697.655L421.247 697.838C422.381 698.813 423.516 699.784 424.659 700.747C451.573 723.413 482.068 744.73 514.354 767.299C523.88 773.957 533.735 780.845 543.668 787.889C613.571 837.453 705.08 891.653 792.995 870.641C813.328 865.794 832.808 857.58 852.55 845.526C878.838 829.528 902.453 808.775 925.292 788.702C947.759 768.958 970.988 748.541 996.643 732.796C1027.09 714.111 1060.13 703.633 1094.85 701.656C1126.49 699.853 1160.4 705.06 1195.65 717.137C1251.56 736.394 1312.34 772.362 1376.3 824.047C1437.97 873.877 1491.87 922.962 1520.49 955.354L1519.6 956.138C1491.03 923.793 1437.18 874.759 1375.56 824.968C1311.7 773.372 1251.04 737.467 1195.26 718.257C1121.73 693.069 1055.11 698.3 997.261 733.808C971.695 749.499 948.501 769.881 926.071 789.592C903.196 809.697 879.539 830.485 853.165 846.537C833.317 858.658 813.724 866.92 793.267 871.794C772.178 876.832 749.682 877.847 726.401 874.804C705.7 872.1 683.687 866.089 660.973 856.941C615.883 838.78 574.229 811.014 542.98 788.857C533.05 781.817 523.198 774.929 513.672 768.27C481.366 745.687 450.851 724.355 423.894 701.657C422.747 700.693 421.61 699.714 420.473 698.739L420.259 698.556C414.67 693.755 409.019 688.829 403.556 684.064C374.701 658.911 344.864 632.899 306.735 609.856C232.077 564.735 141.138 591.248 60.9067 614.643C46.2958 618.902 32.4948 622.928 19.192 626.391C14.2567 627.677 10.2793 628.686 6.67253 629.575C-46.7524 642.709 -95.104 646.201 -141.147 640.243C-156.7 638.232 -172.147 635.132 -187.57 630.909L-187.567 630.913Z" fill="white"/>
<path d="M674.354 872.86C663.998 870.026 653.447 866.452 642.768 862.152C606.709 847.636 568.169 824.596 524.938 791.712C480.198 757.681 443.956 728.506 412.511 696.739C411.371 695.584 410.244 694.43 409.099 693.251C403.261 687.24 397.375 681.036 391.682 675.037C365.241 647.171 337.899 618.356 302.244 594.744C227.785 545.436 134.874 576.699 52.9028 604.281C39.0841 608.931 26.0309 613.323 13.4226 617.193C8.6551 618.658 4.51077 619.898 0.748304 620.984C-53.6023 636.693 -102.739 642.129 -149.473 637.609C-198.735 632.844 -246.794 616.967 -296.402 589.071C-302.227 585.768 -308.019 582.479 -313.78 579.203C-410.149 524.419 -501.171 472.675 -615.338 454.155L-615.144 452.944C-562.921 461.418 -512.97 476.894 -457.941 501.646C-408.986 523.671 -362.449 550.125 -313.177 578.136C-307.416 581.411 -301.627 584.7 -295.802 588.003C-265.495 605.045 -235.579 617.669 -205.376 625.937C-140.522 643.69 -74.2854 641.393 0.40652 619.809C4.16268 618.723 8.29993 617.484 13.0596 616.023C25.6536 612.157 38.6964 607.767 52.5081 603.118C91.8286 589.887 136.392 574.891 179.575 569.701C229.164 563.742 269.507 571.599 302.917 593.723C338.689 617.412 366.08 646.278 392.566 674.196C398.257 680.193 404.14 686.393 409.976 692.398C411.121 693.576 412.245 694.727 413.383 695.878C444.778 727.596 480.981 756.739 525.681 790.737C588.412 838.45 682.606 898.98 775.971 873.87C796.473 868.365 816.048 859.28 835.821 846.1C862.048 828.652 885.459 806.166 908.095 784.423C930.494 762.908 953.655 740.664 979.443 723.433C1010.03 702.996 1043.34 691.174 1078.46 688.298C1110.36 685.685 1144.62 690.384 1180.28 702.263C1236.17 720.951 1297.26 757.164 1361.85 809.9C1415.41 853.625 1471.9 906.08 1505.75 943.536L1504.84 944.358C1471.02 906.944 1414.59 854.538 1361.08 810.85C1296.6 758.211 1235.64 722.067 1179.89 703.428C1105.37 678.605 1038.15 685.677 980.122 724.455C954.425 741.627 931.303 763.832 908.942 785.312C886.267 807.094 862.818 829.615 836.499 847.126C816.615 860.382 796.92 869.519 776.289 875.059C754.963 880.795 732.244 882.334 708.762 879.629C697.605 878.345 686.106 876.082 674.359 872.868L674.354 872.86Z" fill="white"/>
<path d="M654.523 877.573C608.553 864.992 559.217 837.282 506.893 794.561C464.558 760 429.961 726.388 401.127 691.811C400.057 690.524 398.996 689.23 397.935 687.935C392.093 680.786 386.227 673.372 380.558 666.202C356.335 635.577 331.29 603.913 297.748 579.622C223.761 526.048 124.77 563.732 45.2306 594.01C32.0815 599.015 19.6617 603.742 7.64866 607.983C2.93003 609.648 -1.26665 611.089 -5.18073 612.381C-60.5184 630.698 -110.455 638.113 -157.851 635.054C-179.541 633.651 -200.975 630.06 -222.355 624.206C-250.498 616.505 -278.557 604.889 -307.065 589.199C-318.326 582.976 -329.584 576.681 -340.469 570.598C-432.004 519.423 -518.466 471.092 -626.569 452.797L-626.359 451.547C-518.042 469.876 -431.487 518.262 -339.85 569.491C-328.966 575.577 -317.711 581.868 -306.453 588.09C-210.188 641.068 -117.394 648.191 -5.57961 611.177C-1.6719 609.883 2.51687 608.447 7.22525 606.783C19.2233 602.549 31.6359 597.824 44.7779 592.82C84.8409 577.568 130.248 560.282 174.139 553.847C224.601 546.448 265.276 554.542 298.49 578.59C332.178 602.982 357.278 634.718 381.552 665.409C387.219 672.575 393.082 679.985 398.919 687.127C399.978 688.42 401.039 689.712 402.104 690.993C430.885 725.505 465.425 759.06 507.696 793.573C602.026 870.585 686.559 898.682 758.945 877.088C779.618 870.925 799.288 860.975 819.089 846.667C845.259 827.773 868.458 803.57 890.894 780.163C913.22 756.868 936.309 732.782 962.235 714.057C992.951 691.874 1026.54 678.708 1062.06 674.93C1094.22 671.507 1128.83 675.693 1164.91 687.38C1194.76 697.07 1226.39 712.05 1258.91 731.909C1287.24 749.213 1317.01 770.691 1347.4 795.744C1394.82 834.855 1448.51 885.681 1491.01 931.71L1490.07 932.571C1447.61 886.583 1393.97 835.798 1346.59 796.724C1281.5 743.056 1220.25 706.676 1164.52 688.59C1089 664.134 1021.19 673.051 962.975 715.09C937.142 733.748 914.094 757.79 891.807 781.043C869.331 804.492 846.092 828.736 819.826 847.699C799.909 862.092 780.113 872.104 759.303 878.31C726.73 888.027 691.726 887.757 654.519 877.576L654.523 877.573Z" fill="white"/>
<path d="M634.692 882.286C625.318 879.719 615.824 876.51 606.214 872.658C585.78 864.463 564.749 853.289 543.701 839.454C525.355 827.391 506.901 813.247 488.845 797.412C451.778 764.907 418.438 727.72 389.746 686.887C382.981 677.26 376.288 667.151 369.815 657.376C347.727 624.013 324.883 589.517 293.247 564.509C260.646 538.739 220.045 530.498 169.12 539.312C124.695 547.001 78.5197 566.582 37.7803 583.861C20.5066 591.187 4.19424 598.104 -11.1096 603.796C-67.4062 624.731 -118.144 634.126 -166.216 632.518C-190.696 631.699 -214.81 628.042 -238.848 621.463C-265.09 614.282 -291.243 603.618 -317.727 589.35C-333.806 580.689 -349.756 571.879 -365.181 563.36C-452.504 515.129 -534.986 469.573 -637.797 451.461L-637.57 450.166C-534.542 468.319 -451.968 513.926 -364.546 562.21C-349.124 570.728 -333.177 579.537 -317.104 588.193C-219.886 640.56 -125.656 644.993 -11.5663 602.565C3.70833 596.883 20.0096 589.971 37.2683 582.651C78.074 565.347 124.321 545.732 168.896 538.016C220.21 529.136 261.152 537.462 294.063 563.48C325.865 588.616 348.766 623.203 370.913 656.65C377.38 666.418 384.068 676.518 390.823 686.132C419.456 726.882 452.727 763.989 489.715 796.425C541.329 841.69 642.725 912.777 741.921 880.317C797.116 862.257 836.049 818.374 873.702 775.935C895.954 750.854 918.965 724.92 945.038 704.691C967.25 687.457 991.118 675.043 1015.97 667.79C1039.19 661.017 1063.87 658.566 1089.35 660.503C1112.91 662.297 1137.77 667.896 1163.24 677.143C1186.51 685.591 1210.93 697.315 1235.8 711.991C1278.15 736.966 1321.93 770.198 1369.66 813.577C1409.36 849.661 1444.37 885.996 1476.28 919.884L1475.32 920.784C1402.73 843.695 1323.39 765.182 1235.14 713.119C1122.5 646.676 1025.17 644.189 945.845 705.726C919.87 725.879 896.901 751.766 874.685 776.804C855.831 798.056 836.335 820.03 814.993 838.542C791.018 859.339 767.251 873.41 742.33 881.564C708.919 892.496 672.823 892.721 634.695 882.287L634.692 882.286Z" fill="white"/>
</g>
<defs>
<clipPath id="clip0_17_16">
<rect width="1440" height="1024" fill="white"/>
</clipPath>
</defs>
</svg>
